<svg width="183" height="223" viewBox="0 0 183 223" fill="none" xmlns="http://www.w3.org/2000/svg">
<path d="M30.8328 49.3607C30.1728 49.3607 22.0828 63.5907 20.7628 70.8107C20.7628 70.8107 17.2628 67.3107 15.0828 69.0607C15.0828 69.0607 24.0828 49.5807 26.2428 48.2707C28.4028 46.9607 30.8328 49.3607 30.8328 49.3607Z" fill="#48361B"/>
<path d="M27.8527 64.8508C27.8527 64.8508 18.8527 64.2308 16.6127 65.7408C14.3727 67.2508 6.10274 76.8908 6.10274 76.8908C6.10274 76.8908 -5.27726 103.581 3.04274 121.531C11.3627 139.481 33.2127 124.361 35.8727 122.621C38.5327 120.881 61.2127 103.151 27.8527 64.8508Z" fill="#98B24A"/>
<path d="M30.2129 102.421C27.2129 89.5406 22.2129 77.5506 17.2129 65.4206C20.1529 64.3406 27.7829 64.8606 27.7829 64.8606C61.1229 103.161 38.4229 120.861 35.7829 122.631C35.3929 122.891 34.5729 123.441 33.4529 124.141C33.0356 116.817 31.9511 109.547 30.2129 102.421Z" fill="#72863D"/>
<path d="M55.2128 153.471C55.2128 153.471 55.2128 155.251 53.7228 163.241C52.2328 171.231 53.8628 189.781 55.2128 198.441H62.2128C62.2128 198.441 66.3328 179.491 67.9628 170.151C69.5928 160.811 70.0728 154.101 70.0728 154.101L55.2128 153.471Z" fill="#DFA478"/>
<path d="M54.5527 195.661C54.5527 195.661 55.2327 201.281 53.7427 204.531C53.7427 204.531 54.5527 210.221 58.6127 209.681C62.6727 209.141 66.4727 204.401 66.4727 204.401C66.4727 204.401 63.4727 203.991 63.4727 200.341C63.4727 196.691 62.7927 195.661 62.7927 195.661H54.5527Z" fill="#B3A991"/>
<path d="M63.4927 194.651H53.7427V196.681H63.4927V194.651Z" fill="#8B7F78"/>
<path d="M53.3228 210.181C52.4925 211.842 52.2663 213.741 52.6828 215.551C53.5028 218.101 55.3228 215.011 58.4228 219.101C61.5228 223.191 65.6728 222.291 70.7928 221.931C75.9128 221.571 76.6328 220.931 76.6328 219.011C76.6328 217.091 74.8828 214.111 74.8828 214.111C74.8828 214.111 57.6028 218.831 53.3228 210.181Z" fill="white"/>
<path d="M55.0527 207.541C55.0527 207.541 58.1427 203.621 60.3327 202.541C62.5227 201.461 65.0727 201.631 65.7127 202.541C66.3527 203.451 77.1827 215.381 75.7127 216.751C74.2427 218.121 67.4327 219.021 63.5127 218.391C59.5927 217.761 56.5127 212.191 56.5127 212.191L55.0527 207.541Z" fill="#BA8546"/>
<path d="M53.4126 204.991L52.6826 211.991C52.6826 211.991 54.4726 211.671 56.6826 214.131C57.9684 215.594 59.5589 216.758 61.3426 217.541C61.3426 217.541 57.0726 207.661 56.5326 206.381C55.9926 205.101 55.4326 206.571 54.9826 205.931C54.5326 205.291 53.4926 204.231 53.4126 204.991Z" fill="#A1683D"/>
<path d="M71.0628 211.111C71.0628 211.111 66.4628 205.171 66.0628 203.851C65.6628 202.531 65.8528 199.181 62.4928 199.741C59.1328 200.301 57.7828 199.691 58.1228 201.741C58.4628 203.791 60.2728 205.081 60.7128 206.371C61.1528 207.661 64.1928 211.691 64.1928 211.691L71.0628 211.111Z" fill="#A1683D"/>
<path d="M67.0716 205.039L60.3311 205.551L60.3659 206.01L67.1065 205.497L67.0716 205.039Z" fill="white"/>
<path d="M61.1828 207.421L61.1428 206.961L67.8928 206.411L67.9228 206.871L61.1828 207.421Z" fill="white"/>
<path d="M68.5105 209.587L61.7505 210.128L61.7873 210.588L68.5473 210.047L68.5105 209.587Z" fill="white"/>
<path d="M64.0527 211.731L64.0127 211.271L70.7527 210.731L70.7927 211.191L64.0527 211.731Z" fill="white"/>
<path d="M63.4629 210.331L63.4229 209.871L70.1628 209.321L70.2029 209.791L63.4629 210.331Z" fill="white"/>
<path d="M32.2128 152.361C32.2128 152.361 32.2128 154.141 30.7228 162.131C29.2328 170.121 30.8628 188.671 32.2128 197.331H39.2128C39.2128 197.331 43.3328 178.381 44.9628 169.031C46.5928 159.681 47.0728 153.031 47.0728 153.031L32.2128 152.361Z" fill="#E5AB77"/>
<path d="M31.5129 194.511C31.5129 194.511 32.1829 200.131 30.6929 203.381C30.6929 203.381 31.5129 209.071 35.5729 208.531C39.6329 207.991 43.4229 203.251 43.4229 203.251C43.4229 203.251 40.4229 202.841 40.4229 199.191C40.4229 195.541 39.7429 194.511 39.7429 194.511H31.5129Z" fill="#B3A991"/>
<path d="M40.4429 193.501H30.6929V195.531H40.4429V193.501Z" fill="#8B7F78"/>
<path d="M30.2728 209.031C29.4482 210.694 29.2222 212.59 29.6328 214.401C30.4528 216.951 32.2828 213.851 35.3728 217.951C38.4628 222.051 42.6328 221.141 47.7428 220.781C52.8528 220.421 53.5928 219.781 53.5928 217.861C53.5928 215.941 51.8428 212.951 51.8428 212.951C51.8428 212.951 34.5528 217.681 30.2728 209.031Z" fill="white"/>
<path d="M32.0029 206.361C32.0029 206.361 35.1029 202.441 37.2929 201.361C39.4829 200.281 42.0229 200.451 42.6629 201.361C43.3029 202.271 54.1329 214.201 52.6629 215.561C51.1929 216.921 44.3729 217.841 40.4529 217.211C36.5329 216.581 33.4529 211.011 33.4529 211.011L32.0029 206.361Z" fill="#BA8546"/>
<path d="M30.3628 203.841L29.6328 210.841C29.6328 210.841 31.4328 210.531 33.6328 212.991C34.9232 214.453 36.5168 215.617 38.3028 216.401L33.4828 205.241C32.9328 203.971 32.3928 205.431 31.9328 204.791C31.4728 204.151 30.4428 203.081 30.3628 203.841Z" fill="#A1683D"/>
<path d="M48.0127 209.961C48.0127 209.961 43.4127 204.021 43.0127 202.701C42.6127 201.381 42.8027 198.031 39.4327 198.591C36.0627 199.151 34.7227 198.541 35.0627 200.591C35.4027 202.641 37.2127 203.941 37.6527 205.231C38.0927 206.521 41.1327 210.551 41.1327 210.551L48.0127 209.961Z" fill="#A1683D"/>
<path d="M44.0376 203.873L37.2993 204.414L37.3361 204.872L44.0744 204.331L44.0376 203.873Z" fill="white"/>
<path d="M38.1428 206.271L38.1028 205.801L44.8428 205.261L44.8828 205.721L38.1428 206.271Z" fill="white"/>
<path d="M39.2426 207.671L39.2026 207.201L45.9426 206.661L45.9826 207.121L39.2426 207.671Z" fill="white"/>
<path d="M47.7149 209.563L40.98 210.145L41.0196 210.603L47.7545 210.021L47.7149 209.563Z" fill="white"/>
<path d="M40.4128 209.181L40.3728 208.721L47.1128 208.171L47.1528 208.631L40.4128 209.181Z" fill="white"/>
<path d="M29.8429 108.541C29.8429 108.951 26.9329 146.451 30.5929 154.541H48.4629L52.3929 125.541L53.6029 155.731C53.6029 155.731 66.4729 156.551 71.3429 155.061C71.3429 155.061 76.3429 124.401 73.4629 110.321L29.8429 108.541Z" fill="#D0F999"/>
<path d="M27.4829 150.921C27.6129 151.331 27.4829 156.021 27.4829 156.021H49.4129V151.871L27.4829 150.921Z" fill="#077265"/>
<path d="M51.3228 150.921V157.281L73.1028 156.611V151.731L51.3228 150.921Z" fill="#077265"/>
<path d="M68.5027 116.671L66.4727 118.321L73.6827 125.201V119.651L68.5027 116.671Z" fill="#077265"/>
<path d="M36.4129 116.671L37.0929 119.241L28.9629 126.151L29.6929 120.191L36.4129 116.671Z" fill="#077265"/>
<path d="M78.5627 57.3607L90.3027 74.3607C90.3027 74.3607 96.4227 81.6307 107.603 93.5707L117.663 97.3607C117.663 97.3607 119.943 105.731 118.813 108.411C118.813 108.411 116.143 108.301 108.043 103.971C99.9427 99.6407 83.2226 88.0507 81.4426 86.2207C79.6626 84.3907 65.7227 68.2207 65.7227 68.2207L78.5627 57.3607Z" fill="#DFA478"/>
<path d="M42.0428 36.7607L40.8428 49.1907C40.8428 49.1907 43.8428 56.6407 49.9628 56.0707C56.0828 55.5007 59.0828 47.4307 59.0828 47.4307L57.2628 36.5007L42.0428 36.7607Z" fill="#E5AB77"/>
<path d="M49.3327 44.1207C52.4714 43.9068 55.6242 44.1937 58.6727 44.9707L57.2627 36.5007L42.0427 36.7607L41.0427 46.6807C43.5893 45.2399 46.4172 44.3667 49.3327 44.1207Z" fill="#D69162"/>
<path d="M46.2128 1.71074C46.2128 1.71074 33.7528 0.260736 33.0328 13.5807C32.3128 26.9007 35.7828 18.6507 35.3428 25.5807C34.9028 32.5107 34.6728 36.3607 39.5728 39.3607C44.4728 42.3607 57.3528 42.9807 61.1228 37.6207C64.8928 32.2607 62.7428 22.6207 62.7428 22.6207L63.3528 10.6207C63.3528 10.6207 63.7228 -5.09926 46.2128 1.71074Z" fill="#2A1604"/>
<path d="M41.0926 47.0307C41.0926 47.0307 29.6426 45.1807 18.0926 59.2607C6.54264 73.3407 14.9826 87.9706 14.9826 87.9706C14.9826 87.9706 24.7326 70.6207 32.7126 67.0407C40.6926 63.4607 45.7126 61.7007 45.7126 61.7007L41.0926 47.0307Z" fill="#DFA478"/>
<path d="M56.9227 30.1407C56.9227 30.1407 55.1927 35.6508 50.2827 35.7808C45.3727 35.9108 44.5127 29.7808 44.5127 29.7808C44.5127 29.7808 45.0927 29.9308 46.0827 30.0908C49.0895 30.6241 52.1566 30.7284 55.1927 30.4008C55.7727 30.3608 56.3427 30.2607 56.9227 30.1407Z" fill="#891736"/>
<path d="M55.2128 30.4307V31.7407C55.2128 31.7407 54.2128 32.6007 50.3728 32.8007C46.5328 33.0007 45.8628 31.3407 45.8628 31.3407L46.1028 30.1207C49.1096 30.654 52.1767 30.7584 55.2128 30.4307Z" fill="white"/>
<path d="M29.5427 113.131C29.5427 113.131 48.5427 124.421 73.8527 112.781L72.6926 68.2007L81.6327 59.5307C81.6327 59.5307 66.6327 46.6707 58.6327 45.4607L50.8627 56.0107L41.2127 46.1007C41.2127 46.1007 27.0327 46.3007 16.9727 60.8507L28.9727 71.0407L29.5427 113.131Z" fill="#A68CF7"/>
<path d="M39.0829 10.9407C39.0829 10.9407 35.4929 17.2007 36.5029 23.5707C37.5129 29.9407 40.4129 29.3607 40.4129 29.3607C42.8292 27.8076 45.6509 27.0039 48.5229 27.0507C52.6541 27.336 56.7647 27.867 60.8329 28.6407C60.8329 28.6407 63.0029 25.1707 62.7129 21.9807C62.4229 18.7907 60.1329 10.6107 58.0429 8.74071C56.5029 7.36071 45.3629 2.85071 39.0829 10.9407Z" fill="#E5AB77"/>
<path d="M52.6729 13.1308V16.0008L60.0528 17.7108C60.0528 17.7108 59.4629 12.9108 52.6729 13.1308Z" fill="#2A1604"/>
<path d="M59.9327 21.5008C59.9327 21.5008 59.7427 23.7008 56.6527 23.1108C53.5627 22.5208 53.2627 21.1708 53.2627 21.1708C53.2627 21.1708 55.0027 18.9108 57.1127 19.2508C57.7327 19.362 58.3152 19.6259 58.8076 20.0187C59.2999 20.4116 59.6866 20.921 59.9327 21.5008Z" fill="white"/>
<path d="M57.9528 21.5107C57.7128 22.5107 57.1028 23.1807 56.5928 23.0607C56.0828 22.9407 55.8628 22.0607 56.1028 21.0607C56.3428 20.0607 56.9428 19.3907 57.4628 19.5107C57.9828 19.6307 58.2128 20.5307 57.9528 21.5107Z" fill="#AE8F6D"/>
<path d="M57.4127 21.6007C57.4127 21.8007 56.9927 22.0708 56.4127 22.1808C55.8327 22.2908 55.2827 22.2308 55.2427 22.0208C55.2027 21.8108 55.6627 21.5507 56.2427 21.4407C56.8227 21.3307 57.3727 21.3607 57.4127 21.6007Z" fill="white"/>
<path d="M53.2627 21.1707C53.2627 21.1707 54.3727 18.1107 57.1227 18.4707C57.8703 18.5574 58.563 18.9064 59.0776 19.4557C59.5921 20.005 59.8951 20.719 59.9327 21.4707C59.5636 20.9604 59.0842 20.5399 58.5302 20.2404C57.9762 19.9408 57.3618 19.7701 56.7327 19.7407C55.4617 19.8704 54.256 20.3673 53.2627 21.1707Z" fill="#2A1604"/>
<path d="M40.2129 21.5408C40.2129 21.5408 40.4329 23.7408 43.5129 23.1008C46.5929 22.4608 46.8629 21.1008 46.8629 21.1008C46.8629 21.1008 45.0929 18.8608 42.9829 19.2408C42.3663 19.3636 41.7901 19.6382 41.3065 20.0398C40.8228 20.4414 40.4469 20.9573 40.2129 21.5408Z" fill="white"/>
<path d="M44.7929 20.8307C45.0529 21.8307 44.8529 22.7007 44.3429 22.8307C43.8329 22.9607 43.2129 22.2907 42.9529 21.3207C42.6929 20.3507 42.8829 19.4507 43.3929 19.3207C43.9029 19.1907 44.5229 19.8607 44.7929 20.8307Z" fill="#AE8F6D"/>
<path d="M44.3628 21.1607C44.4928 21.3307 44.2227 21.7807 43.7427 22.1607C43.2627 22.5407 42.7427 22.7407 42.6427 22.5807C42.5427 22.4207 42.7828 21.9707 43.2628 21.5807C43.7428 21.1907 44.2128 21.0007 44.3628 21.1607Z" fill="white"/>
<path d="M46.8526 21.1107C46.8526 21.1107 45.7026 18.0607 42.9626 18.4707C42.2109 18.5664 41.5187 18.9292 41.012 19.4927C40.5054 20.0562 40.2181 20.783 40.2026 21.5407C40.5629 21.0244 41.0351 20.5962 41.584 20.288C42.1329 19.9798 42.7443 19.7995 43.3726 19.7607C44.6389 19.8642 45.8478 20.3332 46.8526 21.1107Z" fill="#2A1604"/>
<path d="M45.8629 13.1308V16.0008L38.4629 17.7108C38.4629 17.7108 39.0529 12.9108 45.8629 13.1308Z" fill="#2A1604"/>
<path opacity="0.4" d="M49.5428 18.1507C49.5428 17.9107 48.2228 18.1507 48.2228 18.1507C48.2228 18.1507 47.4828 24.8407 50.2928 25.9107C50.2928 25.9107 52.2928 26.0007 53.0928 25.0107C53.8928 24.0207 51.9428 23.6907 50.9528 23.3507C49.9628 23.0107 49.5428 18.7307 49.5428 18.1507Z" fill="#D69162"/>
<path d="M53.0128 25.9208C53.0128 25.9208 49.7128 27.9208 46.8228 25.9208C47.2049 26.5872 47.784 27.119 48.4805 27.4431C49.177 27.7672 49.9568 27.8677 50.7128 27.7308C53.2628 27.1508 53.0128 25.9208 53.0128 25.9208Z" fill="#D69162"/>
<path opacity="0.4" d="M16.9229 60.8507L34.0029 66.4907L31.4229 77.3607L34.1429 115.361C32.5624 114.746 31.0255 114.024 29.5429 113.201L29.3529 71.5907L16.9229 60.8507Z" fill="#D5892D"/>
<path d="M47.0227 57.6307C47.0227 57.6307 41.1227 65.9407 35.0227 62.4407C35.0227 62.4407 29.7727 50.4407 28.0227 49.3107C26.2727 48.1807 41.5827 41.2207 41.5827 41.2207L47.0227 57.6307Z" fill="#72863D"/>
<path d="M31.7127 45.0907L37.4027 41.2207C37.4027 41.2207 45.0627 59.6007 45.4927 66.3807C45.9227 73.1607 44.8427 87.1707 40.9027 98.9907C38.5319 106.096 34.6378 112.597 29.4927 118.041V109.841C29.4927 109.841 41.5527 88.0507 39.8027 74.7007C38.0527 61.3507 31.7127 45.0907 31.7127 45.0907Z" fill="#48361B"/>
<path d="M15.0227 87.9707C15.0227 87.9707 8.79269 75.7807 21.0227 69.8207C33.2527 63.8607 41.5927 55.8807 43.3527 56.0107C45.1127 56.1407 49.4527 58.1807 49.4527 58.1807C49.4527 58.1807 49.1827 63.4607 48.9127 65.0807C48.7052 66.1506 48.2908 67.1697 47.6927 68.0807L44.1727 69.0307L44.7127 67.8107C42.1131 68.7486 39.312 68.9831 36.5927 68.4907C36.5927 68.4907 30.7727 73.4907 28.5927 77.8307C26.4127 82.1707 21.5227 90.9407 15.0227 87.9707Z" fill="#E5AB77"/>
<path d="M103.563 154.471C103.003 158.371 103.003 162.331 103.563 166.231C104.563 171.781 107.263 201.811 107.263 201.811V207.691L114.663 205.401C114.663 205.401 114.013 205.071 115.973 198.401C117.933 191.731 119.593 169.521 118.253 163.631C117.445 160.047 117.172 156.364 117.443 152.701L103.563 154.471Z" fill="#E5AB77"/>
<path d="M84.8628 155.101C84.2977 159 84.2977 162.961 84.8628 166.861C85.8628 172.411 88.5628 202.441 88.5628 202.441V208.361L95.9628 206.071C95.9628 206.071 95.3028 205.751 97.2628 199.071C99.2228 192.391 100.893 170.191 99.5528 164.311C98.7452 160.724 98.4689 157.038 98.7328 153.371L84.8628 155.101Z" fill="#DFA478"/>
<path d="M85.3428 116.741C85.3428 116.741 81.2128 152.981 83.2128 158.531C83.2128 158.531 93.2628 164.741 99.2728 157.231L102.443 134.361V156.361C102.443 156.361 110.813 161.091 117.013 156.691C117.013 156.691 129.253 127.631 121.423 118.491L85.3428 116.741Z" fill="#D0F999"/>
<path d="M86.2929 116.791L85.2929 116.741C85.2929 116.741 81.2129 152.981 83.2129 158.531C84.1073 159.049 85.044 159.491 86.0129 159.851C84.3329 145.571 85.7829 131.181 86.2929 116.791Z" fill="#077265"/>
<path d="M97.2129 159.141C97.9632 158.598 98.636 157.955 99.2129 157.231L101.953 137.641C99.7829 144.664 98.1975 151.856 97.2129 159.141Z" fill="#077265"/>
<path d="M71.5126 219.061C70.5126 219.791 77.1126 221.001 80.5126 220.011C83.9126 219.021 97.5126 210.661 97.5126 210.661L95.1126 204.451C94.11 204.362 93.1002 204.496 92.1549 204.841C91.2095 205.187 90.3518 205.736 89.6426 206.451C89.4226 206.641 88.4226 209.391 87.4226 210.101C81.2126 214.471 72.0926 218.641 71.5126 219.061Z" fill="#DFA478"/>
<path d="M73.8728 217.741C74.9916 218.466 76.2604 218.929 77.5837 219.093C78.907 219.258 80.2504 219.12 81.5128 218.691C93.8128 214.421 97.0328 209.541 97.0328 209.541C97.0328 209.541 99.0328 211.451 99.1728 213.011C99.3128 214.571 82.8728 220.841 80.4528 221.681C78.0328 222.521 70.6028 222.821 69.2428 220.221C69.2128 220.221 71.1028 219.361 73.8728 217.741Z" fill="#D0F999"/>
<path d="M90.2127 218.431C89.2127 219.161 95.8027 220.371 99.2127 219.371C102.623 218.371 116.213 210.031 116.213 210.031L113.813 203.821C112.81 203.732 111.8 203.866 110.855 204.211C109.91 204.557 109.052 205.107 108.343 205.821C108.133 206.011 107.133 208.761 106.133 209.471C99.8627 213.841 90.7927 218.011 90.2127 218.431Z" fill="#E5AB77"/>
<path d="M92.5726 217.111C93.6932 217.837 94.9637 218.299 96.2886 218.464C97.6135 218.628 98.9585 218.49 100.223 218.061C112.523 213.791 115.743 208.901 115.743 208.901C115.743 208.901 117.743 210.821 117.873 212.381C118.003 213.941 101.583 220.211 99.1626 221.041C96.7426 221.871 89.3026 222.191 87.9526 219.581C87.9526 219.581 89.8126 218.721 92.5726 217.111Z" fill="#D0F999"/>
<path d="M76.4727 146.431C75.7784 146.479 75.111 146.718 74.5444 147.123C73.9779 147.527 73.5342 148.08 73.2627 148.721L76.1127 149.721L76.4727 146.431Z" fill="#662F1C"/>
<path d="M62.3427 141.361C62.8425 141.843 63.2002 142.454 63.3765 143.126C63.5529 143.798 63.5412 144.505 63.3427 145.171L60.4927 144.171L62.3427 141.361Z" fill="#662F1C"/>
<path d="M87.3128 153.741C87.3128 153.741 86.2528 154.471 83.6328 153.541L67.9528 147.931L52.2628 142.361C49.6528 141.431 49.2628 140.191 49.2628 140.191C45.3528 140.921 41.0628 146.341 34.3328 165.191L58.6728 173.881L83.0028 182.571C89.7628 163.691 89.8728 156.781 87.3128 153.741Z" fill="#864829"/>
<path d="M52.2627 142.361L67.9527 147.961L83.6327 153.571C86.2527 154.501 87.3127 153.771 87.3127 153.771C86.4503 152.832 85.3522 152.142 84.1327 151.771L68.5727 146.221L53.0127 140.661C51.8384 140.169 50.5514 140.01 49.2927 140.201C49.2927 140.201 49.6527 141.361 52.2627 142.361Z" fill="#733821"/>
<path d="M72.7829 178.871C72.7829 178.871 79.0629 163.101 79.0529 149.921L75.5329 148.661C75.5329 148.661 75.0229 160.591 68.9829 177.511L72.7829 178.871Z" fill="#733821"/>
<path d="M44.6128 168.811C44.6128 168.811 49.7428 152.631 58.1028 142.441L61.6228 143.691C61.6228 143.691 54.4528 153.241 48.4128 170.161L44.6128 168.811Z" fill="#733821"/>
<path d="M77.3029 149.151C77.6689 147.153 77.7798 145.117 77.6329 143.091C77.2929 138.791 75.5729 135.971 72.6329 134.941C69.7229 133.941 66.6329 135.001 63.6329 138.101C62.236 139.575 61.0329 141.222 60.0529 143.001C60.0146 143.071 59.9907 143.148 59.9826 143.227C59.9745 143.307 59.9823 143.387 60.0056 143.463C60.0289 143.54 60.0672 143.611 60.1182 143.672C60.1693 143.733 60.232 143.784 60.3029 143.821H60.3829C60.5194 143.87 60.6688 143.868 60.8044 143.817C60.9401 143.766 61.053 143.668 61.1229 143.541C61.1229 143.441 66.2829 133.931 72.2329 136.051C78.1729 138.171 76.1129 148.771 76.0929 148.881C76.0645 149.022 76.087 149.169 76.1566 149.295C76.2262 149.422 76.3382 149.519 76.4729 149.571H76.5629C76.6391 149.593 76.719 149.6 76.798 149.591C76.8769 149.582 76.9532 149.557 77.0223 149.518C77.0914 149.479 77.1519 149.426 77.2001 149.363C77.2483 149.3 77.2833 149.228 77.3029 149.151Z" fill="#662F1C"/>
<path d="M58.1028 142.441C59.009 141.538 60.1657 140.928 61.4228 140.691C61.4228 140.691 62.9828 141.691 61.6228 143.691L60.2528 145.691L58.1028 142.441Z" fill="#733821"/>
<path d="M79.0528 149.921C78.9249 148.647 78.4161 147.441 77.5928 146.461C77.5928 146.461 75.7428 146.271 75.5328 148.661L75.3328 151.061L79.0528 149.921Z" fill="#733821"/>
<path d="M77.7129 148.011C78.0735 146.012 78.1843 143.977 78.0429 141.951C77.7029 137.651 75.9829 134.831 73.0429 133.801C70.1429 132.801 67.0429 133.861 64.0429 136.961C62.6447 138.436 61.4385 140.083 60.4529 141.861C60.3791 142.004 60.3651 142.171 60.4138 142.324C60.4625 142.478 60.5701 142.606 60.7129 142.681H60.7929C60.9278 142.731 61.0765 142.731 61.211 142.679C61.3454 142.627 61.4564 142.528 61.5229 142.401C61.5829 142.301 66.6929 132.791 72.6429 134.911C78.5829 137.031 76.5229 147.631 76.4929 147.741C76.4629 147.884 76.486 148.032 76.5578 148.159C76.6296 148.286 76.7452 148.383 76.8829 148.431H76.9729C77.1267 148.471 77.29 148.45 77.4283 148.371C77.5665 148.293 77.6686 148.163 77.7129 148.011Z" fill="#733821"/>
<path d="M89.6728 30.3607C89.6728 30.3607 74.4328 48.4907 79.4028 68.7007C84.3728 88.9107 128.953 89.2407 128.953 89.2407C128.953 89.2407 119.953 50.6107 120.713 36.9607C121.473 23.3107 100.263 18.6507 89.6728 30.3607Z" fill="#5C2E08"/>
<path d="M92.4928 68.4407C92.0828 68.3807 86.9228 70.6907 86.4928 74.1407C86.0628 77.5907 80.6628 103.981 80.6628 103.981C80.6628 103.981 77.6628 106.901 76.2828 117.381C74.9028 127.861 74.2828 130.381 74.2828 130.381C74.2828 130.381 66.8528 134.621 66.8528 137.381C66.8528 140.141 72.4328 140.971 72.9628 139.901C73.4928 138.831 75.4828 135.791 75.4828 135.791L76.8028 136.991C76.8028 136.991 77.3328 131.151 77.3328 130.361C77.3328 129.571 85.5628 111.651 86.7528 107.541C87.4845 105.408 87.6228 103.116 87.1528 100.911L96.0528 76.3907C96.0528 76.3907 94.4828 68.7007 92.4928 68.4407Z" fill="#E5AB77"/>
<path d="M72.7426 131.361C70.5626 132.781 66.8926 135.451 66.8926 137.411C66.8965 137.604 66.9268 137.796 66.9826 137.981C68.5921 135.522 70.53 133.295 72.7426 131.361Z" fill="#D69162"/>
<path d="M86.5226 74.1408C86.1326 77.5908 80.6926 103.981 80.6926 103.981C80.6926 103.981 77.6926 106.901 76.3126 117.381C75.3126 125.461 74.6626 128.791 74.4326 129.901L74.6126 129.771C74.8717 129.29 75.0891 128.788 75.2626 128.271C77.2626 121.921 77.5026 115.271 79.9326 109.031C82.3626 102.791 83.5526 96.6408 84.7826 90.0308C86.0126 83.4208 87.4026 77.1408 88.6126 70.6808C87.5215 71.5444 86.7793 72.7732 86.5226 74.1408Z" fill="#D69162"/>
<path d="M124.213 60.1508L145.213 53.0807L169.813 34.5807L176.333 33.2708C176.333 33.2708 150.763 58.8408 148.583 60.1508C146.403 61.4608 125.523 68.6407 125.523 68.6407L124.213 60.1508Z" fill="#E5AB77"/>
<path d="M95.5229 65.8107C95.5229 65.8107 93.1329 64.3907 89.2129 69.2907C87.3388 71.4935 85.6654 73.8596 84.2129 76.3607L88.5729 79.8507L95.5229 65.8107Z" fill="#D0F999"/>
<path d="M84.2029 74.4108L90.4129 78.8708L88.5629 81.5908L83.1929 77.6708L84.2029 74.4108Z" fill="#762B82"/>
<path d="M97.2829 65.3607L94.5329 65.6107C94.5329 65.6107 92.9129 70.4807 90.3029 73.3107C87.6929 76.1407 85.6229 79.4006 86.9229 83.5406C87.3877 85.1609 87.9351 86.7563 88.5629 88.3206C88.5629 88.3206 81.8129 115.091 83.4429 117.381C85.0729 119.671 102.443 129.021 122.943 119.011C122.943 119.011 120.223 108.131 114.453 102.911C108.683 97.6906 105.793 96.8106 107.793 90.0706C109.793 83.3306 112.283 73.7407 112.283 73.7407L124.213 70.0406L123.493 59.0406L107.793 65.2407L97.2829 65.3607Z" fill="#077265"/>
<path opacity="0.3" d="M83.4429 117.361C83.5472 117.492 83.6609 117.616 83.7829 117.731C84.9029 112.911 86.1729 108.121 87.5429 103.371C88.4129 100.371 89.3029 97.3706 90.1929 94.3206C91.0129 91.5306 91.8529 90.0206 90.1329 87.6706C84.3829 79.8206 91.8329 72.5006 95.4229 65.5106L94.5329 65.5906C94.5329 65.5906 92.9129 70.4606 90.3029 73.2906C87.6929 76.1206 85.6229 79.3806 86.9229 83.5206C87.3877 85.1409 87.9351 86.7363 88.5629 88.3006C88.5629 88.3006 81.8129 115.101 83.4429 117.361Z" fill="#D0F999"/>
<path d="M121.423 59.0607L124.793 58.0807L126.643 70.2707L124.033 71.3607L121.423 59.0607Z" fill="#D0F999"/>
<path d="M97.1227 58.5507C97.1227 58.9207 96.2627 65.5507 96.2627 65.5507L96.5127 74.7007L104.513 66.0807L104.443 58.5907L97.1227 58.5507Z" fill="#E5AB77"/>
<path d="M104.503 62.0907V58.5507H97.1628C97.1628 58.8507 96.5828 63.3507 96.3728 64.9507C98.9114 63.5664 101.657 62.6007 104.503 62.0907Z" fill="#D69162"/>
<path d="M118.523 52.3607C117.273 54.6007 113.173 54.6007 113.173 54.6007C110.813 57.2107 103.843 61.9407 98.1229 61.8107C92.4029 61.6807 87.6729 52.9807 86.6829 48.2607C86.3611 46.6917 86.2136 45.0921 86.2429 43.4907C86.2507 44.8787 86.3981 46.2623 86.6829 47.6207C87.6829 52.3407 92.4029 61.0507 98.1229 61.1707C103.843 61.2907 110.813 56.5707 113.173 53.9607C113.173 53.9607 117.273 53.9607 118.523 51.7207C118.971 50.8578 119.214 49.903 119.233 48.9307C119.305 50.1168 119.06 51.3006 118.523 52.3607Z" fill="#D69162"/>
<path d="M119.213 48.9008C119.194 49.873 118.951 50.8279 118.503 51.6907C117.253 53.9307 113.153 53.9308 113.153 53.9308C110.793 56.5408 103.823 61.2708 98.1027 61.1408C92.3827 61.0108 87.6527 52.3108 86.6627 47.5908C86.3778 46.2323 86.2304 44.8487 86.2227 43.4608C86.2295 42.0132 86.3769 40.5698 86.6627 39.1508C94.6627 21.9908 106.803 26.5908 113.773 29.0808C117.773 30.5008 118.533 35.2708 118.573 39.3408V39.4807C118.573 41.5907 118.373 43.4307 118.403 44.3907C118.36 44.8001 118.394 45.2138 118.503 45.6108C118.936 46.6556 119.176 47.7703 119.213 48.9008Z" fill="#E5AB77"/>
<path d="M118.593 39.3607C118.593 35.2907 117.783 30.5207 113.793 29.1007C106.793 26.6107 94.6427 22.0107 86.6827 39.1707C86.3969 40.5898 86.2495 42.0332 86.2426 43.4807C86.2065 41.803 86.354 40.1263 86.6827 38.4807C94.6827 21.3207 106.823 25.9207 113.793 28.4107C117.993 29.9407 118.623 35.1407 118.593 39.3607Z" fill="#E5AB77"/>
<path opacity="0.4" d="M97.3629 41.0707C97.3629 40.8907 98.3629 41.0707 98.3629 41.0707C98.3629 41.0707 98.9129 46.0007 96.8429 46.7907C96.0934 46.8343 95.3548 46.5952 94.7729 46.1207C94.1629 45.3907 95.6229 45.1207 96.3529 44.9007C97.0829 44.6807 97.3629 41.5007 97.3629 41.0707Z" fill="#D69162"/>
<path d="M94.8027 46.7906C94.8027 46.7906 97.2428 48.2506 99.3728 46.7906C99.0898 47.2816 98.6626 47.6736 98.1491 47.9133C97.6356 48.1531 97.0608 48.2289 96.5027 48.1306C94.6227 47.7006 94.8027 46.7906 94.8027 46.7906Z" fill="#D69162"/>
<path d="M105.333 50.2408C104.792 51.7836 103.906 53.1825 102.743 54.3307C101.549 55.5035 99.9556 56.1821 98.2826 56.2307C97.4066 56.2665 96.5361 56.0776 95.7537 55.6821C94.9713 55.2865 94.3031 54.6974 93.8126 53.9707C92.9731 52.7465 92.4101 51.3543 92.1626 49.8907C92.1626 49.8907 92.7826 50.0407 93.8226 50.2207C97.0141 50.7888 100.271 50.8966 103.493 50.5407C104.113 50.4707 104.723 50.3608 105.333 50.2408Z" fill="#891736"/>
<path d="M103.503 50.5407V51.9307C103.503 51.9307 102.503 52.8507 98.3528 53.0607C94.2028 53.2707 93.5728 51.5107 93.5728 51.5107L93.8228 50.2207C97.0176 50.7888 100.277 50.8965 103.503 50.5407Z" fill="white"/>
<path d="M102.743 54.3607C101.549 55.5335 99.9557 56.2121 98.2827 56.2607C97.4068 56.2965 96.5362 56.1076 95.7538 55.712C94.9714 55.3164 94.3032 54.7273 93.8127 54.0007V53.9507C96.7593 54.4715 99.7608 54.6093 102.743 54.3607Z" fill="white"/>
<path d="M102.733 46.7906C102.733 45.8472 103.013 44.925 103.537 44.1406C104.061 43.3562 104.806 42.7448 105.678 42.3837C106.549 42.0227 107.508 41.9282 108.433 42.1123C109.359 42.2963 110.209 42.7506 110.876 43.4177C111.543 44.0848 111.997 44.9348 112.181 45.8601C112.365 46.7853 112.271 47.7444 111.91 48.616C111.549 49.4876 110.937 50.2326 110.153 50.7568C109.369 51.2809 108.446 51.5606 107.503 51.5606C106.238 51.5606 105.025 51.0581 104.13 50.1635C103.235 49.269 102.733 48.0557 102.733 46.7906Z" fill="url(#paint0_radial_24_3171)"/>
<path d="M86.7427 43.8307C86.7427 42.9941 86.9908 42.1763 87.4556 41.4806C87.9204 40.785 88.581 40.2428 89.3539 39.9227C90.1269 39.6025 90.9774 39.5188 91.7979 39.682C92.6185 39.8452 93.3722 40.2481 93.9637 40.8396C94.5553 41.4312 94.9582 42.1849 95.1214 43.0055C95.2846 43.826 95.2009 44.6765 94.8807 45.4494C94.5605 46.2224 94.0184 46.883 93.3227 47.3478C92.6271 47.8126 91.8093 48.0607 90.9727 48.0607C90.4172 48.0607 89.8671 47.9513 89.3539 47.7387C88.8407 47.5261 88.3744 47.2146 87.9816 46.8218C87.5888 46.429 87.2772 45.9627 87.0647 45.4494C86.8521 44.9362 86.7427 44.3862 86.7427 43.8307Z" fill="url(#paint1_radial_24_3171)"/>
<path d="M103.993 36.5107V38.5107C103.993 38.5107 106.993 34.3507 110.993 36.8207C111.013 36.7907 108.083 32.4907 103.993 36.5107Z" fill="#2A1604"/>
<path d="M103.503 43.4107C103.602 43.8565 103.795 44.2759 104.069 44.6411C104.343 45.0063 104.692 45.3087 105.093 45.5283C105.493 45.7479 105.936 45.8795 106.391 45.9144C106.846 45.9493 107.304 45.8867 107.733 45.7307C108.648 45.5634 109.476 45.0824 110.074 44.3706C110.673 43.6589 111.005 42.7607 111.013 41.8307C111.013 41.8307 107.583 38.2807 103.503 43.4107Z" fill="white"/>
<path d="M109.613 43.3607C109.033 44.6307 108.023 45.4207 107.353 45.1107C106.683 44.8007 106.623 43.5307 107.203 42.2507C107.783 40.9707 108.803 40.1907 109.463 40.5007C110.123 40.8107 110.213 42.0507 109.613 43.3607Z" fill="#AE8F6D"/>
<path d="M108.853 43.3006C108.853 43.5906 108.163 43.8306 107.303 43.8306C106.443 43.8306 105.753 43.5906 105.753 43.3006C105.753 43.0106 106.453 42.7806 107.303 42.7806C108.153 42.7806 108.853 43.0106 108.853 43.3006Z" fill="white"/>
<path d="M103.503 43.4107C103.503 43.4107 104.353 39.9607 107.233 39.6107C110.113 39.2607 111.013 40.8807 111.013 40.8807C111.586 40.9323 112.163 40.8177 112.673 40.5507C112.673 40.5507 112.283 42.0807 111.013 42.0107C109.743 41.9407 107.453 39.3607 103.503 43.4107Z" fill="#2A1604"/>
<path d="M94.9829 43.1708C94.9829 43.1708 94.2429 40.1708 91.7129 39.8408C89.1829 39.5108 88.3929 40.9508 88.3929 40.9508C87.8927 40.999 87.3892 40.9017 86.9429 40.6708C86.9429 40.6708 87.2829 42.0007 88.4029 41.9407C89.5229 41.8807 91.5229 39.6508 94.9829 43.1708Z" fill="#2A1604"/>
<path d="M111.003 30.6808L81.4927 44.3608C81.4927 44.3608 87.7527 15.0108 105.713 21.4208C105.713 21.4208 119.023 19.5008 120.473 29.6008C121.923 39.7008 118.383 45.9608 118.383 45.9608C118.383 45.9608 107.633 40.3608 111.003 30.6808Z" fill="#5C2E08"/>
<path fill-rule="evenodd" clip-rule="evenodd" d="M163.683 39.3608C163.437 39.3798 163.189 39.3497 162.955 39.2723C162.721 39.1948 162.505 39.0715 162.318 38.9096C162.132 38.7476 161.98 38.5503 161.871 38.329C161.762 38.1078 161.698 37.867 161.683 37.6208L161.213 30.3608C161.171 29.8729 161.325 29.3885 161.64 29.0136C161.954 28.6387 162.405 28.404 162.893 28.3608L180.453 27.0308C180.699 27.0131 180.947 27.0445 181.181 27.1231C181.415 27.2017 181.632 27.3259 181.818 27.4887C182.004 27.6514 182.156 27.8494 182.265 28.0712C182.374 28.2929 182.438 28.5341 182.453 28.7808L183.003 36.0508C183.042 36.5396 182.886 37.024 182.569 37.3985C182.253 37.7731 181.801 38.0075 181.313 38.0508L163.683 39.3608Z" fill="#42667E"/>
<path fill-rule="evenodd" clip-rule="evenodd" d="M163.793 33.7908C163.798 33.9456 163.758 34.0985 163.677 34.2306C163.596 34.3628 163.479 34.4682 163.338 34.5339C163.198 34.5996 163.042 34.6226 162.888 34.6002C162.735 34.5777 162.592 34.5106 162.477 34.4074C162.361 34.3042 162.279 34.1694 162.239 34.0196C162.2 33.8699 162.205 33.7119 162.255 33.5652C162.305 33.4185 162.396 33.2897 162.518 33.1947C162.641 33.0997 162.788 33.0427 162.943 33.0308C163.156 33.0199 163.365 33.0936 163.524 33.2359C163.683 33.3783 163.78 33.5777 163.793 33.7908Z" fill="white"/>
<path d="M165.873 28.8507C165.873 28.8507 167.173 28.5207 169.353 30.8507C171.533 33.1807 171.203 30.8507 171.203 30.8507C171.203 30.8507 173.703 32.6107 173.593 30.3707C173.593 30.3707 176.323 32.1507 175.883 29.6507C175.883 29.6507 178.603 30.8507 178.173 29.6507C177.743 28.4507 174.793 25.0807 173.593 25.6507C172.393 26.2207 173.163 26.7407 173.163 26.7407C173.163 26.7407 173.423 25.5407 172.043 25.9807C170.663 26.4207 170.983 27.3907 170.983 27.3907C170.983 27.3907 170.663 25.8707 169.793 26.3107C169.549 26.4425 169.36 26.6566 169.259 26.9148C169.158 27.173 169.153 27.4586 169.243 27.7207C169.243 27.7207 168.593 26.2007 167.393 26.7207C167.009 26.9555 166.677 27.2652 166.416 27.6311C166.155 27.9971 165.97 28.4118 165.873 28.8507Z" fill="#DFA478"/>
<defs>
<radialGradient id="paint0_radial_24_3171" cx="0" cy="0" r="1" gradientUnits="userSpaceOnUse" gradientTransform="translate(107.503 46.7906) scale(4.77 4.77001)">
<stop stop-color="#E592E9" stop-opacity="0.95"/>
<stop offset="0.02" stop-color="#E695DA" stop-opacity="0.91"/>
<stop offset="0.05" stop-color="#E699C6" stop-opacity="0.84"/>
<stop offset="0.09" stop-color="#E79CB5" stop-opacity="0.79"/>
<stop offset="0.13" stop-color="#E79FA8" stop-opacity="0.75"/>
<stop offset="0.17" stop-color="#E8A19F" stop-opacity="0.72"/>
<stop offset="0.24" stop-color="#E8A29A" stop-opacity="0.7"/>
<stop offset="0.37" stop-color="#E8A298" stop-opacity="0.7"/>
<stop offset="0.46" stop-color="#E8A298" stop-opacity="0.68"/>
<stop offset="0.56" stop-color="#E8A296" stop-opacity="0.63"/>
<stop offset="0.66" stop-color="#E8A394" stop-opacity="0.54"/>
<stop offset="0.77" stop-color="#E8A391" stop-opacity="0.41"/>
<stop offset="0.87" stop-color="#E9A48E" stop-opacity="0.25"/>
<stop offset="0.97" stop-color="#E9A589" stop-opacity="0.06"/>
<stop offset="1" stop-color="#E9A588" stop-opacity="0"/>
</radialGradient>
<radialGradient id="paint1_radial_24_3171" cx="0" cy="0" r="1" gradientUnits="userSpaceOnUse" gradientTransform="translate(90.9727 43.8307) scale(4.23 4.23)">
<stop stop-color="#E592E9" stop-opacity="0.95"/>
<stop offset="0.02" stop-color="#E695DA" stop-opacity="0.91"/>
<stop offset="0.05" stop-color="#E699C6" stop-opacity="0.84"/>
<stop offset="0.09" stop-color="#E79CB5" stop-opacity="0.79"/>
<stop offset="0.13" stop-color="#E79FA8" stop-opacity="0.75"/>
<stop offset="0.17" stop-color="#E8A19F" stop-opacity="0.72"/>
<stop offset="0.24" stop-color="#E8A29A" stop-opacity="0.7"/>
<stop offset="0.37" stop-color="#E8A298" stop-opacity="0.7"/>
<stop offset="0.46" stop-color="#E8A298" stop-opacity="0.68"/>
<stop offset="0.56" stop-color="#E8A296" stop-opacity="0.63"/>
<stop offset="0.66" stop-color="#E8A394" stop-opacity="0.54"/>
<stop offset="0.77" stop-color="#E8A391" stop-opacity="0.41"/>
<stop offset="0.87" stop-color="#E9A48E" stop-opacity="0.25"/>
<stop offset="0.97" stop-color="#E9A589" stop-opacity="0.06"/>
<stop offset="1" stop-color="#E9A588" stop-opacity="0"/>
</radialGradient>
</defs>
</svg>
