<svg width="824" height="682" viewBox="0 0 824 682" fill="none" xmlns="http://www.w3.org/2000/svg">
<path d="M38.1107 476.521H130.769C130.769 476.521 134.602 457.337 117.355 465.002C117.355 465.002 114.154 439.458 91.7893 455.42C91.7893 455.42 69.4249 438.679 65.5923 463.338C65.5923 463.254 38.1107 452.219 38.1107 476.521Z" fill="#F9FBFC"/>
<path d="M709.272 246.919H824C824 246.919 819.262 224.302 798.477 232.177C798.477 232.177 791.549 200.589 766.426 220.785C766.426 220.785 737.849 199.136 731.784 232.177C731.784 232.241 705.819 228.576 709.272 246.919Z" fill="#F9FBFC"/>
<path d="M412.008 681.78C592.814 681.78 739.386 535.208 739.386 354.402C739.386 173.596 592.814 27.0234 412.008 27.0234C231.202 27.0234 84.6293 173.596 84.6293 354.402C84.6293 535.208 231.202 681.78 412.008 681.78Z" fill="#99C7FF"/>
<mask id="mask0_28_4" style="mask-type:luminance" maskUnits="userSpaceOnUse" x="84" y="27" width="656" height="655">
<path d="M412.008 681.78C592.814 681.78 739.386 535.208 739.386 354.402C739.386 173.596 592.814 27.0234 412.008 27.0234C231.202 27.0234 84.6293 173.596 84.6293 354.402C84.6293 535.208 231.202 681.78 412.008 681.78Z" fill="white"/>
</mask>
<g mask="url(#mask0_28_4)">
<path d="M5.89091 111.574C42.891 98.2436 106.573 117.007 122.83 124.967C139.087 132.927 157.871 128.779 174.066 114.101C190.26 99.4228 190.449 120.945 208.139 119.218C225.828 117.491 216.162 87.9669 232.819 85.7979C249.477 83.6288 288.499 113.364 303.113 127.915C317.728 142.467 304.461 172.138 288.688 166.2C272.915 160.261 259.543 156.302 266.45 148.679C273.357 141.056 277.906 134.844 264.934 124.251C251.962 113.659 227.955 102.097 233.009 118.649C238.063 135.202 214.182 131.537 226.333 142.677C238.484 153.817 230.377 159.819 213.698 154.576C197.02 149.332 184.216 154.997 179.773 179.656C175.329 204.316 212.519 198.82 222.964 209.623C233.409 220.426 234.736 234.893 245.434 228.239C256.131 221.584 242.97 211.708 255.689 200.863C268.409 190.017 240.653 174.202 250.087 165.379C259.522 156.555 286.056 197.409 293.995 184.079C301.934 170.749 316.022 195.345 334.47 213.793C352.917 232.24 340.408 234.346 319.35 236.283C298.291 238.221 305.851 244.412 319.35 251.382C332.848 258.353 317.875 267.913 299.997 267.05C282.118 266.187 278.938 276.653 269.504 292.194C260.069 307.735 243.833 317.759 236.42 329.721C229.008 341.682 242.359 362.656 235.346 365.52C228.334 368.384 227.07 352.19 208.223 344.293C189.375 336.396 175.729 345.767 175.245 368.069C174.761 390.37 190.681 387.232 198.936 394.624C207.191 402.015 225.575 393.149 226.481 411.471C227.386 429.792 242.359 423.327 250.13 428.76C257.9 434.193 268.682 418.609 297.722 415.366C326.762 412.123 355.781 437.668 366.31 461.148C376.84 484.628 402.11 473.299 420.916 483.681C439.721 494.063 415.251 519.481 408.765 542.793C402.279 566.104 277.801 730.425 268.03 702.965C258.258 675.504 278.79 617.909 282.771 586.321C286.751 554.733 269.756 534.959 253.625 518.407C237.494 501.854 238.884 467.445 247.876 455.567C256.868 443.69 253.541 431.918 233.914 433.561C214.288 435.204 218.605 409.638 190.955 402.963C163.305 396.287 139.656 394.834 136.729 378.577C133.801 362.32 101.16 312.916 104.867 331.827C108.573 350.737 124.851 380.03 108.152 359.687C91.4524 339.345 52.7886 290.194 59.38 262.607C65.9714 235.02 21.2006 241.864 16.2728 213.077C11.3451 184.289 -16.326 170.685 -66.7616 186.606C-117.197 202.526 -132.76 143.688 -116.797 124.862C-82.5767 84.4712 -31.1303 124.799 5.89091 111.574ZM357.571 4.49027C302.608 18.2205 247.75 57.8951 284.603 61.4751C321.455 65.0551 341.672 56.4842 343.041 96.3062C344.409 136.128 359.719 211.097 390.317 170.917C420.916 130.737 427.823 120.818 457.937 119.113C488.051 117.407 500.454 76.2372 491.483 54.3572C482.512 32.4773 506.224 19.3998 523.514 14.5984C540.803 9.79706 507.193 -33.1837 357.676 4.38497L357.571 4.49027ZM645.127 106.667C616.403 115.596 623.69 135.707 602.084 147.268C580.477 158.829 566.81 177.193 574.16 187.764C581.509 198.335 596.966 173.213 600.336 188.059C603.705 202.905 621.542 205.243 624.216 176.856C626.891 148.469 651.761 133.58 652.161 143.73C652.561 153.881 635.104 158.471 638.641 170.222C642.179 181.973 672.799 167.442 671.556 176.54C670.314 185.637 645.528 184.374 636.872 199.283C628.217 214.193 607.517 220.468 596.861 215.182C586.205 209.897 597.282 189.912 586.669 194.355C576.055 198.799 582.857 212.992 575.444 220.3C568.032 227.607 563.862 236.725 553.649 239.463C543.435 242.201 524.166 244.665 537.265 251.888C550.363 259.111 547.373 267.787 535.559 272.567C523.745 277.348 515.996 265.365 513.7 276.779C511.405 288.193 513.869 313.569 534.59 302.618C555.312 291.668 560.05 271.03 576.539 271.03C593.028 271.03 586.142 281.812 600.104 283.013C614.066 284.213 614.255 298.259 613.518 300.786C612.781 303.313 619.478 300.449 620.215 295.774C620.952 291.099 615.329 285.561 620.468 287.351C625.606 289.141 628.028 289.077 618.488 282.949C608.949 276.821 597.766 257.11 607.517 263.344C615.086 268.123 622.143 273.67 628.575 279.896C633.777 284.887 627.859 286.803 636.725 295.711C645.591 304.619 642.706 297.985 645.022 289.098C647.339 280.212 662.69 277.664 661.153 288.088C659.616 298.512 670.04 309.504 686.571 306.072C703.102 302.639 698.68 306.682 693.857 320.581C689.035 334.48 686.15 333.911 661.932 330.753C637.715 327.594 628.091 325.846 619.204 334.964C610.317 344.083 584.457 329.089 590.417 317.928C596.377 306.767 584.879 301.081 561.967 307.272C539.055 313.463 531.495 304.029 521.008 316.706C510.52 329.384 481.501 357.118 484.323 389.001C487.145 420.884 490.641 452.324 533.853 444.259C577.066 436.193 573.57 435.204 572.075 450.998C570.58 466.792 600.336 456.747 589.659 473.109C578.982 489.472 613.982 504.697 602.652 519.586C591.323 534.474 605.474 624.985 633.777 616.456C662.08 607.927 729.615 564.272 718.917 532.221C708.219 500.17 710.494 485.639 731.552 465.044C752.611 444.448 769.458 411.702 753.369 418.062C737.28 424.422 722.518 431.392 712.157 415.072C701.796 398.751 680.717 355.812 691.246 353.349C701.775 350.885 717.148 389.843 724.266 402.921C731.384 415.998 753.243 410.291 772.912 395.887C792.58 381.483 796.539 374.07 782.725 367.647C768.91 361.224 763.772 371.501 755.18 355.244C746.588 338.987 759.918 340.776 766.131 349.284C772.343 357.792 790.411 358.276 803.341 354.338C816.271 350.4 843.774 361.667 846.322 377.503C848.87 393.339 866.412 448.092 880.585 413.303C894.757 378.514 918.49 357.139 925.84 382.388C933.189 407.638 1018.5 452.198 998.092 417.093C977.686 381.988 973.327 378.514 1010.73 376.534C1048.13 374.555 1062.76 344.525 1048.63 325.741C1034.5 306.956 1072.7 281.686 1098.48 276.547C1124.25 271.409 1151.13 228.871 1125.56 218.805C1100 208.738 1120.82 185.448 1150.16 186.606C1179.49 187.764 1185.96 189.996 1198.28 176.666C1210.6 163.336 1222.98 164.031 1233.09 182.647C1243.19 201.263 1317.93 161.925 1327.85 146.847C1337.77 131.769 1196.4 90.2202 1154.26 96.601C1112.12 102.982 1096.04 114.396 1071.86 95.9271C1047.69 77.4586 1000.26 30.6452 918.364 67.1188C836.467 103.592 797.908 117.66 766.994 125.241C736.08 132.822 699.754 165.821 693.289 154.955C686.824 144.088 683.286 135.286 700.701 138.108C718.117 140.93 725.866 130.927 702.681 117.049C679.495 103.171 661.574 101.55 645.127 106.667ZM533.516 189.891C521.745 194.271 529.431 202 535.433 210.95C541.434 219.9 537.939 221.669 531.221 229.46C524.503 237.252 546.51 241.19 558.239 227.354C569.969 213.519 545.351 185.511 533.559 189.891H533.516ZM515.785 208.844C504.266 212.424 499.107 229.06 515.785 224.975C532.463 220.889 529.642 204.569 515.827 208.844H515.785Z" fill="#1C7CEE"/>
<g style="mix-blend-mode:multiply">
<path d="M387.495 291.183C385.266 290.337 383.398 288.745 382.21 286.677C381.409 287.762 380.378 288.657 379.191 289.297C378.005 289.938 376.691 290.309 375.344 290.383C373.922 290.497 372.495 290.219 371.218 289.581C369.941 288.942 368.863 287.967 368.1 286.761C370.533 286.672 372.901 285.945 374.965 284.655C372.341 285.258 369.629 285.373 366.963 284.992C364.777 283.971 362.939 282.331 361.677 280.275C361.677 280.275 356.855 284.781 352.454 285.118C350.227 285.394 347.967 285.2 345.82 284.55C346.813 285.485 348.017 286.165 349.33 286.532C350.643 286.898 352.026 286.941 353.359 286.656C356.024 286.355 358.535 285.254 360.561 283.497C362.297 285.362 364.658 286.524 367.195 286.761H367.932C367.174 287.351 362.688 290.699 358.603 290.509C357.349 290.483 356.125 290.124 355.055 289.469C353.986 288.814 353.11 287.887 352.517 286.782C352.517 286.782 348.579 291.731 344.767 291.857C342.521 291.937 340.334 291.128 338.681 289.604C339.238 290.611 340.052 291.454 341.039 292.045C342.027 292.637 343.153 292.957 344.304 292.973H344.62C342.873 295.003 340.418 296.291 337.755 296.574C335.679 296.609 333.617 296.23 331.69 295.458C331.69 295.458 332.932 298.027 338.218 298.154C339.646 298.258 341.077 297.98 342.361 297.347C343.646 296.714 344.738 295.749 345.525 294.553C346.148 295.737 347.116 296.703 348.301 297.324C349.486 297.944 350.831 298.19 352.159 298.027C353.499 298.112 354.839 297.859 356.057 297.292C357.274 296.726 358.33 295.864 359.129 294.784C359.805 295.841 360.741 296.706 361.847 297.296C362.954 297.886 364.193 298.181 365.447 298.154C367.975 297.998 370.401 297.096 372.417 295.564C372.417 295.564 367.237 297.48 364.668 296.574C363.017 295.778 361.639 294.51 360.709 292.931C363.282 292.709 365.703 291.617 367.574 289.836C368.628 290.989 369.942 291.875 371.407 292.421C372.872 292.966 374.445 293.156 375.997 292.973C378.522 292.662 380.841 291.424 382.504 289.499C383.104 290.432 383.898 291.226 384.832 291.826C385.766 292.425 386.818 292.817 387.917 292.973C388.987 292.928 390.038 292.666 391.004 292.202C391.971 291.739 392.833 291.084 393.539 290.278C391.658 291.17 389.555 291.486 387.495 291.183ZM351.274 295.669C350.2 295.675 349.141 295.418 348.19 294.918C347.238 294.419 346.425 293.693 345.82 292.805C347.963 292.201 349.896 291.013 351.401 289.372C353.422 291.332 356.022 292.588 358.813 292.952C356.757 294.816 354.047 295.792 351.274 295.669Z" fill="#39EAFF"/>
<path d="M456.989 403.742C454.759 402.896 452.891 401.303 451.703 399.235C450.907 400.325 449.877 401.223 448.689 401.864C447.502 402.505 446.186 402.873 444.838 402.942C443.415 403.055 441.988 402.778 440.712 402.139C439.435 401.501 438.357 400.526 437.594 399.32C440.029 399.242 442.399 398.515 444.459 397.214C441.834 397.806 439.123 397.92 436.457 397.551C434.272 396.518 432.436 394.872 431.171 392.812C431.171 392.813 426.349 397.319 421.968 397.656C419.742 397.934 417.482 397.74 415.335 397.087C416.325 398.019 417.526 398.697 418.835 399.064C420.144 399.431 421.523 399.475 422.853 399.193C425.518 398.892 428.029 397.791 430.055 396.034C431.799 397.889 434.155 399.048 436.688 399.299H437.425C436.667 399.867 432.203 403.237 428.097 403.026C426.845 403.002 425.622 402.646 424.553 401.995C423.484 401.344 422.606 400.421 422.011 399.32C422.011 399.32 418.073 404.268 414.261 404.374C412.015 404.454 409.827 403.644 408.175 402.12C408.732 403.128 409.545 403.97 410.533 404.562C411.52 405.154 412.647 405.474 413.798 405.49H414.114C412.377 407.533 409.917 408.824 407.248 409.091C405.173 409.126 403.111 408.747 401.183 407.975C401.183 407.975 402.426 410.565 407.712 410.67C409.14 410.775 410.57 410.496 411.855 409.863C413.139 409.23 414.232 408.266 415.019 407.069C415.643 408.253 416.611 409.22 417.794 409.844C418.978 410.468 420.323 410.719 421.653 410.565C422.995 410.647 424.336 410.391 425.553 409.821C426.771 409.25 427.826 408.384 428.623 407.301C429.295 408.36 430.231 409.227 431.338 409.818C432.445 410.408 433.686 410.702 434.941 410.67C437.469 410.514 439.894 409.613 441.911 408.08C441.911 408.08 436.731 409.996 434.161 409.091C432.51 408.295 431.133 407.027 430.202 405.448C432.779 405.236 435.203 404.142 437.067 402.352C438.122 403.506 439.436 404.392 440.901 404.937C442.365 405.483 443.939 405.672 445.491 405.49C448.02 405.174 450.345 403.937 452.019 402.015C452.613 402.949 453.403 403.744 454.334 404.343C455.264 404.943 456.314 405.334 457.41 405.49C458.482 405.449 459.534 405.189 460.501 404.726C461.468 404.262 462.33 403.605 463.033 402.794C461.156 403.701 459.053 404.031 456.989 403.742ZM420.768 408.249C419.692 408.253 418.631 407.992 417.68 407.489C416.729 406.985 415.916 406.255 415.314 405.363C417.457 404.76 419.389 403.571 420.894 401.931C422.909 403.9 425.512 405.157 428.307 405.511C426.254 407.382 423.544 408.366 420.768 408.249Z" fill="#39EAFF"/>
<path d="M573.022 116.312C570.832 115.445 569.004 113.855 567.842 111.806C567.047 112.899 566.019 113.801 564.831 114.446C563.643 115.091 562.326 115.462 560.977 115.533C559.552 115.64 558.126 115.357 556.85 114.715C555.574 114.074 554.496 113.097 553.733 111.89C556.168 111.812 558.538 111.085 560.598 109.784C557.979 110.375 555.276 110.489 552.616 110.121C550.372 109.078 548.493 107.383 547.225 105.256C547.225 105.256 542.382 109.763 538.002 110.1C535.775 110.376 533.515 110.182 531.368 109.531C532.358 110.463 533.559 111.141 534.869 111.508C536.178 111.874 537.556 111.919 538.886 111.637C541.551 111.336 544.062 110.235 546.088 108.478C547.832 110.332 550.189 111.492 552.722 111.742H553.459C552.722 112.311 548.236 115.68 544.13 115.47C542.878 115.446 541.655 115.09 540.586 114.439C539.517 113.788 538.64 112.864 538.044 111.763C538.044 111.763 534.127 116.712 530.294 116.818C529.185 116.86 528.078 116.683 527.037 116.296C525.996 115.91 525.042 115.321 524.229 114.564C524.771 115.616 525.588 116.5 526.593 117.123C527.598 117.746 528.754 118.085 529.936 118.102H530.147C528.423 120.15 525.967 121.442 523.303 121.703C521.22 121.74 519.151 121.361 517.217 120.587C517.217 120.587 518.459 123.177 523.745 123.283C525.173 123.387 526.604 123.108 527.888 122.475C529.173 121.842 530.265 120.878 531.052 119.682C531.676 120.865 532.644 121.833 533.828 122.457C535.012 123.08 536.357 123.332 537.686 123.177C539.024 123.272 540.365 123.031 541.586 122.476C542.807 121.92 543.87 121.068 544.677 119.997C545.353 121.054 546.289 121.919 547.395 122.509C548.502 123.099 549.741 123.394 550.995 123.367C553.523 123.211 555.949 122.309 557.965 120.777C557.965 120.777 552.806 122.693 550.216 121.787C548.565 120.991 547.187 119.723 546.257 118.144C548.834 117.898 551.25 116.775 553.101 114.964C554.152 116.122 555.466 117.011 556.931 117.557C558.397 118.103 559.972 118.29 561.524 118.102C564.054 117.786 566.378 116.549 568.053 114.627C568.647 115.562 569.437 116.356 570.367 116.956C571.298 117.556 572.347 117.947 573.444 118.102C574.515 118.062 575.567 117.802 576.535 117.338C577.502 116.874 578.363 116.217 579.066 115.407C577.188 116.308 575.082 116.624 573.022 116.312ZM536.822 120.819C535.743 120.825 534.679 120.564 533.724 120.061C532.769 119.558 531.953 118.827 531.347 117.934C533.487 117.334 535.419 116.153 536.928 114.522C538.957 116.479 541.565 117.727 544.362 118.081C542.308 119.953 539.598 120.937 536.822 120.819Z" fill="#39EAFF"/>
<path d="M542.108 590.87C539.882 590.029 538.014 588.445 536.823 586.385C536.022 587.47 534.991 588.365 533.804 589.005C532.618 589.646 531.304 590.017 529.957 590.091C528.536 590.195 527.112 589.914 525.837 589.276C524.562 588.639 523.483 587.669 522.713 586.469C525.146 586.38 527.513 585.653 529.578 584.363C526.953 584.955 524.242 585.069 521.576 584.7C519.39 583.679 517.552 582.039 516.29 579.983C516.29 579.983 511.468 584.468 507.067 584.805C504.841 585.079 502.583 584.893 500.433 584.258C501.425 585.193 502.63 585.873 503.943 586.24C505.256 586.606 506.639 586.649 507.972 586.364C510.64 586.073 513.154 584.971 515.174 583.205C516.915 585.067 519.272 586.234 521.808 586.49H522.545C521.787 587.08 517.301 590.428 513.195 590.217C511.945 590.196 510.724 589.841 509.658 589.19C508.592 588.538 507.719 587.613 507.13 586.511C507.13 586.511 503.192 591.46 499.38 591.565C498.269 591.613 497.158 591.441 496.114 591.058C495.069 590.675 494.111 590.089 493.294 589.333C493.851 590.34 494.665 591.183 495.652 591.775C496.639 592.366 497.766 592.686 498.917 592.702H499.149C497.405 594.74 494.95 596.035 492.283 596.324C490.207 596.348 488.146 595.961 486.218 595.187C486.218 595.187 487.461 597.778 492.747 597.883C494.174 597.994 495.604 597.721 496.889 597.091C498.175 596.461 499.267 595.499 500.054 594.303C500.681 595.483 501.65 596.446 502.834 597.066C504.017 597.686 505.361 597.934 506.688 597.778C508.03 597.861 509.372 597.606 510.59 597.036C511.808 596.466 512.863 595.598 513.658 594.513C514.33 595.573 515.266 596.44 516.373 597.03C517.48 597.621 518.721 597.915 519.976 597.883C522.502 597.734 524.927 596.84 526.946 595.314C526.946 595.314 521.766 597.209 519.196 596.324C517.536 595.533 516.155 594.255 515.237 592.66C517.813 592.448 520.238 591.355 522.103 589.565C523.154 590.723 524.467 591.614 525.932 592.164C527.397 592.713 528.972 592.905 530.526 592.723C533.051 592.399 535.368 591.154 537.033 589.228C537.635 590.162 538.429 590.957 539.362 591.559C540.295 592.162 541.346 592.559 542.445 592.723C543.516 592.678 544.567 592.416 545.533 591.952C546.5 591.489 547.362 590.834 548.068 590.028C546.206 590.883 544.134 591.175 542.108 590.87ZM505.887 595.377C504.813 595.383 503.754 595.126 502.802 594.626C501.851 594.127 501.038 593.401 500.433 592.513C502.576 591.909 504.509 590.721 506.014 589.08C508.033 591.039 510.635 592.288 513.426 592.639C512.413 593.572 511.225 594.294 509.931 594.764C508.637 595.234 507.263 595.442 505.887 595.377Z" fill="#39EAFF"/>
<path d="M196.261 487.177C194.032 486.331 192.164 484.739 190.976 482.671C190.181 483.758 189.155 484.654 187.971 485.295C186.787 485.936 185.476 486.306 184.132 486.377C182.706 486.49 181.276 486.212 179.996 485.574C178.716 484.936 177.634 483.962 176.866 482.755C179.3 482.671 181.669 481.944 183.731 480.649C181.115 481.251 178.41 481.373 175.75 481.007C173.562 479.981 171.723 478.333 170.465 476.269C170.465 476.269 165.621 480.776 161.241 481.113C159.014 481.388 156.755 481.195 154.607 480.544C155.6 481.479 156.804 482.159 158.117 482.526C159.431 482.893 160.813 482.935 162.146 482.65C164.804 482.346 167.308 481.245 169.327 479.491C171.071 481.345 173.428 482.505 175.961 482.755H176.698C175.961 483.345 171.475 486.714 167.369 486.504C166.117 486.479 164.894 486.124 163.825 485.472C162.756 484.821 161.879 483.898 161.283 482.797C161.283 482.797 157.366 487.746 153.533 487.851C152.424 487.894 151.317 487.717 150.276 487.33C149.235 486.943 148.281 486.355 147.468 485.598C148.025 486.606 148.839 487.448 149.826 488.04C150.814 488.631 151.94 488.951 153.091 488.967H153.302C151.578 491.015 149.121 492.307 146.458 492.569C144.375 492.605 142.306 492.226 140.372 491.452C140.372 491.452 141.614 494.022 146.9 494.148C148.328 494.252 149.758 493.974 151.043 493.341C152.328 492.708 153.42 491.743 154.207 490.547C154.83 491.731 155.798 492.697 156.983 493.318C158.167 493.938 159.513 494.184 160.841 494.022C162.181 494.11 163.523 493.859 164.741 493.292C165.959 492.725 167.015 491.861 167.811 490.779C168.487 491.835 169.423 492.7 170.529 493.29C171.635 493.88 172.875 494.176 174.129 494.148C176.657 493.992 179.082 493.091 181.099 491.558C181.099 491.558 175.94 493.474 173.35 492.569C171.699 491.772 170.321 490.505 169.391 488.925C171.969 488.7 174.396 487.609 176.277 485.83C177.328 486.987 178.642 487.876 180.107 488.422C181.573 488.968 183.148 489.155 184.7 488.967C187.23 488.652 189.554 487.415 191.228 485.493C191.823 486.427 192.612 487.221 193.543 487.821C194.474 488.421 195.523 488.812 196.619 488.967C197.691 488.927 198.743 488.667 199.71 488.203C200.678 487.74 201.539 487.082 202.242 486.272C200.383 487.161 198.301 487.476 196.261 487.177ZM160.062 491.663C158.984 491.673 157.92 491.417 156.965 490.917C156.01 490.418 155.193 489.69 154.586 488.799C156.729 488.195 158.662 487.007 160.167 485.366C162.198 487.324 164.803 488.579 167.601 488.946C165.544 490.81 162.834 491.786 160.062 491.663Z" fill="#39EAFF"/>
</g>
</g>
<g style="mix-blend-mode:multiply">
<path d="M450.313 444.744L545.478 293.753L463.054 241.801L442.269 274.821L444.522 233.02L347.252 227.734L343.251 301.439L293.384 312.095C292.601 312.258 291.858 312.574 291.198 313.024C290.537 313.474 289.971 314.05 289.533 314.719C289.095 315.387 288.793 316.136 288.645 316.922C288.496 317.707 288.504 318.514 288.667 319.297L325.815 493.052C326.162 494.628 327.12 496.001 328.477 496.873C329.834 497.745 331.481 498.045 333.059 497.706L450.082 472.689C451.656 472.35 453.033 471.403 453.912 470.054C454.792 468.705 455.103 467.064 454.778 465.486L450.313 444.744Z" fill="#97E4DB"/>
</g>
<path d="M458.057 233.398L346.934 409.721L429.35 461.661L540.473 285.338L458.057 233.398Z" fill="#DDF1F2"/>
<path d="M380.506 370.527L357.568 406.924L399.399 433.287L422.338 396.89L380.506 370.527Z" fill="#0EC472"/>
<path d="M461.223 243.816L419.017 310.785L430.954 318.308L473.159 251.338L461.223 243.816Z" fill="#0EC472"/>
<path d="M477.41 250.533L410.454 357.915L418.313 362.814L485.268 255.433L477.41 250.533Z" fill="#0EC472"/>
<path d="M492.037 263.219L464.147 307.473L471.629 312.189L499.52 267.934L492.037 263.219Z" fill="#0EC472"/>
<path d="M459.305 315.16L431.415 359.415L438.898 364.13L466.788 319.876L459.305 315.16Z" fill="#0EC472"/>
<path d="M506.516 272.364L403.006 436.608L428.179 452.473L531.689 288.229L506.516 272.364Z" fill="#0EC472"/>
<path d="M342.271 219.335L330.963 427.446L428.237 432.731L439.545 224.621L342.271 219.335Z" fill="white"/>
<path d="M341.244 376.903L338.91 419.863L388.283 422.545L390.617 379.586L341.244 376.903Z" fill="#0EC472"/>
<path d="M350.098 226.919L345.804 305.962L359.892 306.727L364.187 227.684L350.098 226.919Z" fill="#0EC472"/>
<path d="M369.702 227.973L362.848 354.118L372.079 354.62L378.933 228.475L369.702 227.973Z" fill="#0EC472"/>
<path d="M386.464 228.865L383.626 281.098L392.458 281.578L395.296 229.345L386.464 228.865Z" fill="#0EC472"/>
<path d="M383.14 290.16L380.302 342.393L389.133 342.873L391.971 290.64L383.14 290.16Z" fill="#0EC472"/>
<path d="M403.572 229.812L393.039 423.667L422.751 425.281L433.284 231.427L403.572 229.812Z" fill="#0EC472"/>
<path d="M449.766 457.147C450.091 458.724 449.779 460.366 448.9 461.715C448.021 463.064 446.644 464.01 445.07 464.349L328.047 489.367C326.472 489.705 324.827 489.405 323.473 488.533C322.12 487.66 321.167 486.287 320.824 484.713L283.676 310.958C283.509 310.176 283.499 309.37 283.645 308.584C283.791 307.799 284.091 307.05 284.527 306.381C284.964 305.712 285.528 305.135 286.188 304.685C286.848 304.234 287.59 303.919 288.372 303.756L405.395 278.738C406.175 278.568 406.981 278.553 407.767 278.695C408.552 278.837 409.302 279.133 409.973 279.565C410.644 279.998 411.223 280.558 411.677 281.215C412.131 281.872 412.451 282.611 412.618 283.392L449.766 457.147Z" fill="#242930"/>
<path d="M364.457 359.035C356.141 360.806 348.536 365.003 342.604 371.095C336.673 377.188 332.68 384.902 331.132 393.263C329.583 401.623 330.548 410.256 333.904 418.068C337.261 425.881 342.858 432.523 349.989 437.155C357.119 441.787 365.463 444.201 373.965 444.092C382.468 443.983 390.747 441.356 397.756 436.543C404.766 431.729 410.191 424.946 413.346 417.05C416.501 409.154 417.245 400.5 415.482 392.182C413.107 381.022 406.398 371.263 396.83 365.047C387.263 358.832 375.619 356.67 364.457 359.035ZM356.897 366.048C355.507 368.996 353.928 371.944 352.685 375.019C351.443 378.093 350.58 381.336 349.569 384.832L339.608 382.052C343.518 375.011 349.576 369.403 356.897 366.048ZM337.776 385.674C338.829 386.053 339.776 386.454 340.787 386.727C343.314 387.422 345.841 388.054 348.368 388.686C348.832 388.812 349.274 388.812 349.19 389.507C348.705 394.237 348.854 399.01 349.632 403.701C349.632 403.701 349.632 403.827 349.632 403.974L335.08 407.091C333.931 399.841 334.866 392.414 337.776 385.674ZM347.084 429.561C341.707 424.643 337.843 418.295 335.944 411.261L350.537 408.123C351.787 412.968 353.67 417.627 356.139 421.98L347.084 429.561ZM350.432 432.214L358.392 425.538C362.167 431.07 366.92 435.866 372.417 439.69C367.405 440.659 355.149 436.531 350.432 432.277V432.214ZM379.304 438.995C372.419 435.252 366.511 429.943 362.057 423.496C366.073 421.182 370.388 419.432 374.881 418.294L379.304 438.995ZM373.934 413.851L359.635 419.6C357.402 415.752 355.736 411.603 354.686 407.281L371.744 403.637L373.934 413.851ZM370.838 399.363L353.991 402.985C353.099 398.619 352.936 394.136 353.507 389.718L368.732 389.128C369.343 392.413 370.08 395.867 370.838 399.426V399.363ZM367.7 384.621C363.191 385.426 358.593 385.61 354.033 385.169C355.504 377.603 358.696 370.477 363.362 364.342C364.836 371.333 366.268 377.988 367.785 384.727L367.7 384.621ZM399.373 372.702C399.373 372.702 399.499 372.702 399.646 372.597C405.046 377.529 408.925 383.899 410.829 390.96L396.277 394.056C395.772 392.54 395.35 390.939 394.719 389.444C393.497 386.559 392.171 383.716 390.844 380.873C390.654 380.452 390.423 380.178 390.844 379.736C393.792 377.356 396.593 374.998 399.373 372.702ZM396.424 369.922L388.464 376.598C386.106 373.945 384.021 371.312 381.662 368.975C379.304 366.637 376.629 364.595 373.997 362.341C382.079 362.457 389.924 365.084 396.445 369.859L396.424 369.922ZM367.574 363.605C374.319 367.3 380.131 372.486 384.568 378.767C380.612 381.045 376.36 382.767 371.933 383.884C370.501 377.103 369.069 370.428 367.595 363.563L367.574 363.605ZM372.86 388.328L387.011 382.621C389.28 386.463 390.983 390.612 392.065 394.94L375.05 398.583C374.313 395.045 373.576 391.655 372.881 388.286L372.86 388.328ZM375.955 402.837L392.992 399.194C393.801 403.568 393.985 408.035 393.539 412.461L378.145 413.072C377.472 409.808 376.735 406.396 375.976 402.795L375.955 402.837ZM383.494 438.237C381.999 431.203 380.546 424.422 379.072 417.515C383.638 416.708 388.293 416.531 392.908 416.989C391.47 424.692 388.254 431.954 383.515 438.195L383.494 438.237ZM389.959 436.257C393.467 430.426 395.879 424.003 397.077 417.305L407.185 420.169C403.226 427.151 397.221 432.751 389.98 436.215L389.959 436.257ZM409.06 416.42L397.688 413.198C398.168 408.211 397.977 403.182 397.119 398.246L411.713 395.13C412.878 402.319 411.964 409.691 409.081 416.378L409.06 416.42Z" fill="white"/>
<path d="M303.092 322.604L304.566 322.098C305.404 321.837 306.254 321.619 307.114 321.445C307.883 321.279 308.666 321.188 309.452 321.172C310.226 321.139 310.999 321.261 311.726 321.53C312.451 321.799 313.091 322.257 313.579 322.856C314.185 323.638 314.59 324.556 314.759 325.531C314.944 326.398 314.944 327.295 314.759 328.163C314.612 328.848 314.309 329.489 313.874 330.037C313.442 330.545 312.912 330.96 312.316 331.259C311.702 331.567 311.051 331.794 310.378 331.933L309.536 332.08H308.925L309.999 337.071L309.031 337.45C308.755 337.537 308.473 337.608 308.188 337.661C307.563 337.777 306.929 337.848 306.293 337.871L303.092 322.604ZM308.357 329.069C308.481 329.099 308.611 329.099 308.736 329.069H309.283C309.561 329.025 309.827 328.926 310.066 328.777C310.304 328.629 310.511 328.435 310.673 328.205C310.844 327.936 310.955 327.633 310.998 327.317C311.042 327.001 311.017 326.679 310.926 326.373C310.849 326 310.706 325.644 310.505 325.32C310.336 325.076 310.112 324.874 309.852 324.731C309.592 324.595 309.303 324.522 309.01 324.52C308.709 324.479 308.405 324.479 308.104 324.52H307.788H307.451L308.357 329.069Z" fill="white"/>
<path d="M319.96 335.05L319.076 335.366C318.822 335.456 318.561 335.526 318.297 335.577C317.998 335.644 317.696 335.694 317.391 335.724H316.233L317.77 319.361L318.781 319.046C319.098 318.942 319.422 318.857 319.75 318.793L320.655 318.645L321.771 318.519L329.795 332.839C329.111 333.112 328.407 333.331 327.689 333.492L326.825 333.639H325.878L324.425 330.838C324.07 331.022 323.704 331.184 323.33 331.323C322.991 331.466 322.638 331.572 322.277 331.639C321.938 331.72 321.593 331.769 321.245 331.786C320.873 331.807 320.5 331.807 320.129 331.786L319.96 335.05ZM320.55 323.089L320.276 328.901H321.013H321.687L322.382 328.69L323.098 328.374L320.55 323.089Z" fill="white"/>
<path d="M335.207 321.993C335.803 322.086 336.394 322.213 336.976 322.372C337.485 322.512 337.968 322.733 338.408 323.025C338.841 323.307 339.207 323.681 339.482 324.12C339.795 324.654 340.016 325.238 340.134 325.847C340.278 326.541 340.278 327.258 340.134 327.953C339.998 328.614 339.71 329.234 339.292 329.764C338.835 330.352 338.261 330.839 337.607 331.196C336.823 331.624 335.978 331.929 335.101 332.101C334.313 332.276 333.508 332.368 332.701 332.375C331.917 332.389 331.134 332.325 330.363 332.185C330.33 331.631 330.33 331.076 330.363 330.522C330.363 329.932 330.363 329.321 330.511 328.69C331.697 328.978 332.929 329.021 334.133 328.816C334.724 328.704 335.284 328.467 335.775 328.121C335.949 327.962 336.074 327.757 336.138 327.53C336.201 327.303 336.199 327.063 336.133 326.836C336.101 326.628 336.014 326.431 335.881 326.268C335.758 326.126 335.607 326.012 335.438 325.931C335.265 325.843 335.081 325.779 334.891 325.741L334.301 325.636L333.017 325.447C332.486 325.37 331.964 325.243 331.458 325.068C330.992 324.924 330.556 324.696 330.174 324.394C329.795 324.105 329.473 323.748 329.226 323.341C328.944 322.858 328.745 322.331 328.636 321.782C328.479 321.089 328.479 320.37 328.636 319.677C328.755 319.051 329.015 318.461 329.394 317.95C329.802 317.426 330.31 316.989 330.89 316.665C331.55 316.304 332.259 316.041 332.996 315.886C333.688 315.741 334.394 315.664 335.101 315.654C335.876 315.655 336.65 315.704 337.418 315.802C337.46 316.327 337.46 316.855 337.418 317.381C337.397 317.949 337.319 318.513 337.186 319.066C336.786 319.066 336.302 318.918 335.775 318.855C335.133 318.795 334.485 318.845 333.859 319.003C333.635 319.043 333.417 319.107 333.206 319.192C333.018 319.272 332.847 319.386 332.701 319.529C332.554 319.651 332.444 319.811 332.385 319.992C332.331 320.207 332.331 320.431 332.385 320.645C332.412 320.821 332.482 320.988 332.588 321.132C332.695 321.275 332.835 321.39 332.996 321.466C333.337 321.622 333.698 321.728 334.07 321.782L335.207 321.993Z" fill="white"/>
<path d="M346.873 319.487C347.526 319.613 348.116 319.74 348.663 319.887C349.163 320.024 349.639 320.237 350.074 320.519C350.503 320.807 350.868 321.18 351.148 321.614C351.467 322.146 351.689 322.731 351.801 323.341C351.942 324.036 351.942 324.752 351.801 325.447C351.664 326.103 351.384 326.722 350.98 327.258C350.516 327.834 349.944 328.314 349.295 328.669C348.503 329.097 347.651 329.402 346.768 329.574C345.987 329.754 345.19 329.853 344.388 329.869C343.606 329.864 342.824 329.8 342.051 329.679C341.997 329.126 341.997 328.569 342.051 328.016C342.069 327.403 342.118 326.791 342.198 326.184C343.387 326.421 344.611 326.421 345.799 326.184C346.397 326.097 346.963 325.858 347.442 325.489C347.656 325.231 347.773 324.907 347.773 324.573C347.773 324.238 347.656 323.914 347.442 323.657C347.322 323.515 347.18 323.394 347.021 323.299C346.846 323.22 346.662 323.164 346.473 323.13L345.862 323.004L344.578 322.814C344.047 322.755 343.524 322.634 343.02 322.456C342.567 322.296 342.141 322.069 341.756 321.782C341.374 321.483 341.046 321.12 340.787 320.708C340.164 319.603 339.941 318.316 340.156 317.065C340.275 316.44 340.534 315.849 340.914 315.338C341.316 314.809 341.825 314.371 342.409 314.054C343.064 313.682 343.775 313.419 344.515 313.275C345.205 313.111 345.911 313.026 346.621 313.022C347.395 313.03 348.169 313.086 348.937 313.19C348.97 313.716 348.97 314.244 348.937 314.77C348.899 315.33 348.814 315.887 348.684 316.433L347.273 316.223C346.631 316.174 345.985 316.224 345.357 316.37C345.139 316.415 344.927 316.486 344.725 316.581C344.533 316.656 344.355 316.763 344.199 316.897C344.057 317.022 343.948 317.182 343.883 317.36C343.829 317.574 343.829 317.799 343.883 318.013C343.907 318.193 343.975 318.364 344.082 318.511C344.188 318.658 344.33 318.776 344.494 318.855C344.839 318.993 345.2 319.092 345.568 319.15L346.873 319.487Z" fill="white"/>
<path d="M351.696 312.222L353.17 311.717C353.999 311.453 354.843 311.235 355.697 311.064C356.471 310.889 357.261 310.791 358.055 310.769C358.822 310.747 359.586 310.869 360.309 311.127C361.037 311.411 361.682 311.875 362.183 312.475C362.785 313.256 363.183 314.175 363.341 315.149C363.538 316.009 363.538 316.901 363.341 317.761C363.221 318.454 362.915 319.101 362.457 319.635C362.038 320.153 361.514 320.577 360.919 320.877C360.296 321.18 359.638 321.406 358.961 321.551L358.14 321.699H357.529L358.603 326.689C358.28 326.827 357.949 326.946 357.613 327.047C357.343 327.139 357.069 327.216 356.792 327.279C356.159 327.396 355.518 327.466 354.875 327.49L351.696 312.222ZM356.96 318.687H357.255H357.782C358.059 318.643 358.325 318.544 358.564 318.396C358.802 318.248 359.009 318.053 359.171 317.824C359.334 317.566 359.439 317.277 359.479 316.975C359.519 316.673 359.493 316.367 359.403 316.076C359.336 315.703 359.2 315.346 359.003 315.023C358.833 314.772 358.601 314.569 358.329 314.433C358.077 314.293 357.796 314.214 357.508 314.202C357.196 314.196 356.884 314.232 356.581 314.307H356.286H355.949L356.96 318.687Z" fill="white"/>
<path d="M365.489 317.36C365.25 316.282 365.151 315.178 365.194 314.075C365.246 313.108 365.474 312.159 365.868 311.274C366.282 310.448 366.88 309.728 367.616 309.168C368.49 308.559 369.476 308.13 370.517 307.906C371.558 307.682 372.634 307.667 373.681 307.863C374.585 308.086 375.427 308.511 376.145 309.105C376.871 309.741 377.465 310.514 377.893 311.38C378.875 313.336 379.346 315.51 379.261 317.697C379.213 318.66 378.977 319.604 378.566 320.477C378.171 321.309 377.578 322.032 376.84 322.583C375.977 323.211 374.983 323.636 373.933 323.825C372.893 324.055 371.815 324.055 370.775 323.825C369.869 323.63 369.023 323.218 368.311 322.625C367.585 321.997 366.991 321.231 366.563 320.372C366.064 319.424 365.702 318.41 365.489 317.36ZM374.986 315.254C374.313 312.138 373.07 310.769 371.259 311.169C369.448 311.569 368.816 313.275 369.469 316.434C369.657 317.653 370.15 318.804 370.901 319.782C371.184 320.108 371.555 320.346 371.969 320.469C372.383 320.592 372.823 320.595 373.239 320.477C375.071 320.161 375.639 318.413 374.986 315.318V315.254Z" fill="white"/>
<path d="M379.493 306.283L381.388 305.673C381.978 305.483 382.589 305.315 383.241 305.167C384.037 304.992 384.849 304.9 385.663 304.894C386.434 304.865 387.204 304.972 387.938 305.209C388.632 305.463 389.254 305.882 389.749 306.431C390.329 307.084 390.715 307.886 390.865 308.747C390.966 309.225 391.008 309.713 390.991 310.2C390.952 310.621 390.875 311.037 390.759 311.443C390.635 311.786 390.48 312.117 390.296 312.433C390.122 312.703 389.932 312.963 389.728 313.212L394.487 319.087C394.129 319.233 393.763 319.359 393.392 319.466L392.297 319.74L391.286 319.908C390.943 319.937 390.597 319.937 390.254 319.908L385.705 313.591L385.874 313.443C386.066 313.291 386.23 313.105 386.358 312.896C386.536 312.635 386.678 312.352 386.779 312.054C386.91 311.723 386.995 311.376 387.032 311.022C387.095 310.652 387.095 310.275 387.032 309.906C386.996 309.612 386.893 309.331 386.733 309.083C386.572 308.835 386.358 308.627 386.105 308.474C385.61 308.226 385.041 308.166 384.505 308.305H384.147H383.957L386.59 320.582C385.996 320.828 385.383 321.025 384.758 321.172C384.121 321.307 383.472 321.377 382.82 321.383L379.493 306.283Z" fill="white"/>
<path d="M395.687 306.283L392.107 307.041C391.867 306.507 391.684 305.95 391.56 305.378C391.442 304.824 391.385 304.259 391.391 303.693L402.363 301.355C402.489 301.65 402.595 301.945 402.679 302.198C402.763 302.451 402.826 302.724 402.889 302.956C402.995 303.533 403.059 304.117 403.079 304.704L399.499 305.462L402.047 317.486C401.452 317.729 400.84 317.926 400.215 318.076C399.569 318.202 398.914 318.272 398.256 318.287L395.687 306.283Z" fill="white"/>
<path d="M287.888 577.794C287.888 577.794 376.082 450.999 216.499 403.933C216.499 403.933 315.98 263.661 183.458 229.672C183.458 229.672 360.814 -20.9261 544.425 220.891C544.425 220.891 777.692 184.944 663.617 338.504C663.617 338.504 457.789 814.093 287.888 577.794Z" stroke="white" stroke-width="2" stroke-linecap="round" stroke-linejoin="round" stroke-dasharray="3 6"/>
<path d="M303.198 559.262C303.198 567.685 292.668 588.175 287.888 588.175C283.108 588.175 272.599 567.706 272.599 559.262C272.523 557.205 272.862 555.154 273.597 553.231C274.331 551.308 275.446 549.553 276.874 548.071C278.302 546.589 280.015 545.41 281.909 544.605C283.803 543.799 285.84 543.384 287.898 543.384C289.957 543.384 291.994 543.799 293.888 544.605C295.782 545.41 297.495 546.589 298.923 548.071C300.351 549.553 301.466 551.308 302.2 553.231C302.935 555.154 303.274 557.205 303.198 559.262Z" fill="#242930"/>
<path d="M297.891 559.114C297.891 561.093 297.304 563.027 296.205 564.672C295.106 566.317 293.543 567.599 291.716 568.356C289.888 569.113 287.877 569.311 285.936 568.925C283.996 568.539 282.214 567.586 280.815 566.187C279.416 564.788 278.463 563.006 278.077 561.066C277.691 559.125 277.889 557.114 278.646 555.286C279.403 553.458 280.685 551.896 282.33 550.797C283.975 549.698 285.909 549.111 287.888 549.111C290.541 549.111 293.085 550.165 294.961 552.041C296.837 553.917 297.891 556.461 297.891 559.114Z" fill="white"/>
<path d="M198.746 212.298C198.746 220.721 188.217 241.211 183.458 241.211C178.698 241.211 168.148 220.742 168.148 212.298C168.072 210.241 168.411 208.19 169.145 206.267C169.88 204.344 170.995 202.589 172.423 201.107C173.851 199.625 175.563 198.446 177.458 197.641C179.352 196.835 181.389 196.42 183.447 196.42C185.505 196.42 187.543 196.835 189.437 197.641C191.331 198.446 193.043 199.625 194.472 201.107C195.9 202.589 197.014 204.344 197.749 206.267C198.483 208.19 198.823 210.241 198.746 212.298Z" fill="#242930"/>
<path d="M193.461 212.151C193.461 214.129 192.874 216.063 191.775 217.708C190.676 219.353 189.114 220.635 187.286 221.392C185.458 222.149 183.447 222.347 181.506 221.962C179.566 221.576 177.784 220.623 176.385 219.224C174.986 217.825 174.033 216.043 173.647 214.102C173.261 212.162 173.459 210.151 174.216 208.323C174.973 206.495 176.256 204.933 177.9 203.834C179.545 202.735 181.479 202.148 183.458 202.148C186.111 202.148 188.655 203.202 190.531 205.078C192.407 206.954 193.461 209.498 193.461 212.151Z" fill="white"/>
<path d="M231.809 384.075C231.809 392.498 221.279 412.988 216.499 412.988C211.719 412.988 201.21 392.519 201.21 384.075C201.134 382.018 201.473 379.967 202.208 378.044C202.942 376.121 204.057 374.366 205.485 372.884C206.913 371.402 208.625 370.223 210.52 369.418C212.414 368.612 214.451 368.197 216.509 368.197C218.568 368.197 220.605 368.612 222.499 369.418C224.393 370.223 226.106 371.402 227.534 372.884C228.962 374.366 230.077 376.121 230.811 378.044C231.546 379.967 231.885 382.018 231.809 384.075Z" fill="#242930"/>
<path d="M216.499 393.929C222.023 393.929 226.502 389.451 226.502 383.926C226.502 378.402 222.023 373.923 216.499 373.923C210.974 373.923 206.496 378.402 206.496 383.926C206.496 389.451 210.974 393.929 216.499 393.929Z" fill="white"/>
<path d="M560.05 199.2C560.05 207.623 549.521 228.113 544.741 228.113C539.96 228.113 529.431 207.644 529.431 199.2C529.431 195.139 531.044 191.245 533.915 188.374C536.786 185.503 540.68 183.89 544.741 183.89C548.801 183.89 552.695 185.503 555.566 188.374C558.437 191.245 560.05 195.139 560.05 199.2Z" fill="#242930"/>
<path d="M554.744 199.053C554.744 201.032 554.157 202.966 553.058 204.61C551.959 206.255 550.396 207.538 548.569 208.295C546.741 209.052 544.73 209.25 542.789 208.864C540.849 208.478 539.066 207.525 537.668 206.126C536.269 204.727 535.316 202.945 534.93 201.005C534.544 199.064 534.742 197.053 535.499 195.225C536.256 193.397 537.538 191.835 539.183 190.736C540.828 189.637 542.762 189.05 544.741 189.05C547.394 189.05 549.938 190.104 551.814 191.98C553.69 193.856 554.744 196.4 554.744 199.053Z" fill="white"/>
<path d="M678.927 316.096C678.927 324.52 668.397 345.01 663.617 345.01C658.837 345.01 648.307 324.562 648.307 316.096C648.307 312.036 649.92 308.142 652.791 305.271C655.663 302.4 659.557 300.787 663.617 300.787C667.677 300.787 671.571 302.4 674.443 305.271C677.314 308.142 678.927 312.036 678.927 316.096Z" fill="#242930"/>
<path d="M663.617 325.952C669.141 325.952 673.62 321.474 673.62 315.949C673.62 310.425 669.141 305.946 663.617 305.946C658.093 305.946 653.614 310.425 653.614 315.949C653.614 321.474 658.093 325.952 663.617 325.952Z" fill="white"/>
<path d="M640.663 350.507H648.076C648.282 350.507 648.48 350.589 648.627 350.735C648.773 350.881 648.855 351.08 648.855 351.286C648.855 351.493 648.773 351.691 648.627 351.837C648.48 351.983 648.282 352.065 648.076 352.065H639.252L637.673 353.792H645.759C645.966 353.792 646.164 353.874 646.31 354.02C646.456 354.167 646.538 354.365 646.538 354.571C646.538 354.778 646.456 354.976 646.31 355.122C646.164 355.268 645.966 355.351 645.759 355.351H636.599H636.367L634.745 357.141H642.474C642.656 357.171 642.821 357.265 642.941 357.405C643.06 357.546 643.126 357.725 643.126 357.909C643.126 358.094 643.06 358.272 642.941 358.413C642.821 358.554 642.656 358.648 642.474 358.678H633.335L631.755 360.426H640.179C640.29 360.407 640.404 360.413 640.514 360.443C640.623 360.473 640.724 360.527 640.81 360.6C640.896 360.673 640.966 360.764 641.013 360.867C641.061 360.97 641.085 361.081 641.085 361.194C641.085 361.308 641.061 361.419 641.013 361.522C640.966 361.625 640.896 361.716 640.81 361.789C640.724 361.862 640.623 361.915 640.514 361.945C640.404 361.976 640.29 361.982 640.179 361.963H631.018C630.851 361.969 630.687 361.917 630.555 361.816L628.828 363.711H636.893C637.1 363.711 637.298 363.793 637.444 363.939C637.591 364.085 637.673 364.283 637.673 364.49C637.673 364.697 637.591 364.895 637.444 365.041C637.298 365.187 637.1 365.269 636.893 365.269H627.733H627.459L625.838 367.059H633.587C633.699 367.041 633.813 367.047 633.922 367.077C634.031 367.107 634.132 367.16 634.219 367.234C634.305 367.307 634.374 367.398 634.422 367.5C634.469 367.603 634.494 367.715 634.494 367.828C634.494 367.941 634.469 368.053 634.422 368.155C634.374 368.258 634.305 368.349 634.219 368.422C634.132 368.495 634.031 368.549 633.922 368.579C633.813 368.609 633.699 368.615 633.587 368.597H624.427L622.847 370.344H630.302C630.414 370.326 630.528 370.332 630.637 370.362C630.746 370.392 630.847 370.446 630.934 370.519C631.02 370.592 631.089 370.683 631.137 370.785C631.184 370.888 631.209 371 631.209 371.113C631.209 371.226 631.184 371.338 631.137 371.441C631.089 371.543 631.02 371.634 630.934 371.707C630.847 371.781 630.746 371.834 630.637 371.864C630.528 371.894 630.414 371.9 630.302 371.882H621.436L619.857 373.63H627.712C627.918 373.63 628.117 373.712 628.263 373.858C628.409 374.004 628.491 374.202 628.491 374.409C628.491 374.615 628.409 374.814 628.263 374.96C628.117 375.106 627.918 375.188 627.712 375.188H618.383L616.782 376.936H624.342C624.547 376.941 624.743 377.025 624.888 377.17C625.032 377.315 625.116 377.51 625.122 377.715C625.122 377.922 625.04 378.12 624.893 378.266C624.747 378.412 624.549 378.494 624.342 378.494H615.371L613.792 380.242H621.205C621.316 380.223 621.431 380.229 621.54 380.26C621.649 380.29 621.75 380.343 621.836 380.416C621.922 380.489 621.992 380.58 622.039 380.683C622.087 380.786 622.112 380.898 622.112 381.011C622.112 381.124 622.087 381.236 622.039 381.338C621.992 381.441 621.922 381.532 621.836 381.605C621.75 381.678 621.649 381.732 621.54 381.762C621.431 381.792 621.316 381.798 621.205 381.779H612.381L609.959 384.348H681.011L645.443 345.327L640.663 350.507Z" fill="#0EC472" stroke="#0EC472" stroke-miterlimit="10"/>
<path d="M681.032 343.768H688.445C688.652 343.768 688.85 343.85 688.996 343.996C689.142 344.142 689.224 344.34 689.224 344.547C689.224 344.753 689.142 344.952 688.996 345.098C688.85 345.244 688.652 345.326 688.445 345.326H679.622L678.042 347.074H686.066C686.167 347.071 686.268 347.089 686.362 347.125C686.457 347.162 686.543 347.218 686.615 347.288C686.688 347.359 686.746 347.443 686.785 347.537C686.824 347.63 686.845 347.731 686.845 347.832C686.845 348.039 686.763 348.237 686.616 348.383C686.47 348.529 686.272 348.611 686.066 348.611H676.905H676.673L675.052 350.401H682.78C682.892 350.383 683.006 350.389 683.115 350.419C683.224 350.449 683.326 350.502 683.412 350.575C683.498 350.649 683.567 350.74 683.615 350.842C683.663 350.945 683.687 351.057 683.687 351.17C683.687 351.283 683.663 351.395 683.615 351.497C683.567 351.6 683.498 351.691 683.412 351.764C683.326 351.837 683.224 351.891 683.115 351.921C683.006 351.951 682.892 351.957 682.78 351.938H673.641L672.061 353.686H680.485C680.692 353.686 680.89 353.768 681.036 353.914C681.182 354.061 681.264 354.259 681.264 354.465C681.264 354.672 681.182 354.87 681.036 355.016C680.89 355.162 680.692 355.245 680.485 355.245H671.324C671.155 355.243 670.992 355.184 670.861 355.076L669.134 356.971H677.2C677.406 356.971 677.605 357.053 677.751 357.2C677.897 357.346 677.979 357.544 677.979 357.751C677.979 357.957 677.897 358.155 677.751 358.302C677.605 358.448 677.406 358.53 677.2 358.53H668.039H667.766L666.144 360.32H673.915C674.097 360.35 674.262 360.444 674.381 360.585C674.501 360.725 674.566 360.904 674.566 361.088C674.566 361.273 674.501 361.451 674.381 361.592C674.262 361.733 674.097 361.827 673.915 361.857H664.712L663.659 363.036L664.186 363.605H670.503C670.615 363.586 670.729 363.592 670.838 363.622C670.947 363.653 671.048 363.706 671.135 363.779C671.221 363.852 671.29 363.943 671.338 364.046C671.385 364.149 671.41 364.26 671.41 364.374C671.41 364.487 671.385 364.598 671.338 364.701C671.29 364.804 671.221 364.895 671.135 364.968C671.048 365.041 670.947 365.095 670.838 365.125C670.729 365.155 670.615 365.161 670.503 365.142H665.554L676.947 377.777H721.339L685.771 338.503L681.032 343.768Z" fill="#0EC472" stroke="#0EC472" stroke-miterlimit="10"/>
<path d="M207.107 158.199H209.592L209.318 146.364H207.401L207.107 158.199Z" fill="#242930"/>
<path d="M209.886 170.56H206.812L205.527 225.397H211.171L209.886 170.56Z" fill="#242930"/>
<path d="M206.917 145.268H210.034C210.317 145.23 210.576 145.091 210.764 144.876C210.952 144.661 211.056 144.385 211.056 144.099C211.056 143.814 210.952 143.538 210.764 143.323C210.576 143.108 210.317 142.969 210.034 142.931H206.685C206.402 142.969 206.143 143.108 205.955 143.323C205.767 143.538 205.663 143.814 205.663 144.099C205.663 144.385 205.767 144.661 205.955 144.876C206.143 145.091 206.402 145.23 206.685 145.268H206.917Z" fill="#242930"/>
<path d="M208.391 139.436L208.012 142.005H208.749L208.391 139.436Z" fill="#242930"/>
<path d="M202.305 169.55H214.414C215.697 169.545 216.934 169.065 217.883 168.201C218.832 167.337 219.427 166.152 219.552 164.875H197.209C197.333 166.145 197.922 167.324 198.863 168.187C199.803 169.05 201.029 169.535 202.305 169.55Z" fill="#242930"/>
<path d="M214.414 159.209H202.305C201.02 159.209 199.782 159.688 198.831 160.552C197.881 161.417 197.287 162.605 197.167 163.884H219.552C219.432 162.605 218.838 161.417 217.888 160.552C216.937 159.688 215.699 159.209 214.414 159.209Z" fill="#242930"/>
<path d="M158.356 348.99H156.671V354.887H158.356V348.99Z" fill="#0EC472" stroke="#0EC472" stroke-miterlimit="10"/>
<path d="M164.252 348.99H162.568V354.887H164.252V348.99Z" fill="#0EC472" stroke="#0EC472" stroke-miterlimit="10"/>
<path d="M165.221 350.255V348.57H155.724V350.255H165.221Z" fill="#0EC472" stroke="#0EC472" stroke-miterlimit="10"/>
<path d="M172.718 387.633H148.1L157.85 356.214H163.073L172.718 387.633Z" fill="#0EC472" stroke="#0EC472" stroke-miterlimit="10"/>
<path d="M170.696 376.619H185.311L181.415 367.29H167.79L170.696 376.619Z" fill="#0EC472" stroke="#0EC472" stroke-miterlimit="10"/>
<path d="M167.285 365.626H174.95L171.075 356.276H164.379L167.285 365.626Z" fill="#0EC472" stroke="#0EC472" stroke-miterlimit="10"/>
<path d="M174.129 387.633H195.651L191.776 378.283H171.223L174.129 387.633Z" fill="#0EC472" stroke="#0EC472" stroke-miterlimit="10"/>
<path d="M153.133 367.29H139.508L135.633 376.619H150.227L153.133 367.29Z" fill="#0EC472" stroke="#0EC472" stroke-miterlimit="10"/>
<path d="M156.566 356.276H149.848L145.973 365.626H153.66L156.566 356.276Z" fill="#0EC472" stroke="#0EC472" stroke-miterlimit="10"/>
<path d="M149.722 378.283H129.168L125.273 387.633H146.816L149.722 378.283Z" fill="#0EC472" stroke="#0EC472" stroke-miterlimit="10"/>
<path d="M613.518 218.701C614.094 218.701 614.645 218.472 615.052 218.065C615.459 217.659 615.687 217.107 615.687 216.532C615.687 215.956 615.459 215.405 615.052 214.998C614.645 214.591 614.094 214.363 613.518 214.363H613.16C613.011 212.618 612.672 210.895 612.15 209.224H612.444C612.711 209.119 612.953 208.96 613.156 208.758C613.359 208.556 613.519 208.314 613.626 208.048C613.732 207.782 613.783 207.497 613.776 207.21C613.768 206.924 613.702 206.642 613.582 206.381C613.476 206.115 613.318 205.873 613.115 205.669C612.913 205.466 612.671 205.307 612.405 205.2C612.139 205.094 611.854 205.043 611.567 205.05C611.281 205.058 610.999 205.124 610.739 205.244L610.465 205.392C609.74 204.001 608.864 202.695 607.854 201.496L608.085 201.306C608.292 201.11 608.457 200.873 608.57 200.61C608.683 200.348 608.741 200.065 608.741 199.779C608.741 199.494 608.683 199.211 608.57 198.949C608.457 198.686 608.292 198.449 608.085 198.253C607.888 198.042 607.65 197.875 607.386 197.76C607.121 197.645 606.836 197.586 606.548 197.586C606.26 197.586 605.975 197.645 605.71 197.76C605.446 197.875 605.208 198.042 605.011 198.253L604.842 198.442C603.497 197.321 602.036 196.347 600.483 195.536C600.522 195.468 600.557 195.398 600.588 195.326C600.801 194.792 600.792 194.196 600.565 193.669C600.338 193.142 599.911 192.726 599.377 192.514C598.844 192.302 598.248 192.31 597.721 192.537C597.194 192.765 596.778 193.192 596.566 193.725C596.558 193.795 596.558 193.866 596.566 193.936C595.09 193.49 593.574 193.193 592.038 193.051V192.841C592.038 192.268 591.811 191.719 591.406 191.314C591.002 190.91 590.452 190.682 589.88 190.682C589.308 190.682 588.758 190.91 588.354 191.314C587.949 191.719 587.721 192.268 587.721 192.841V193.051C585.974 193.213 584.25 193.574 582.583 194.125V193.915C582.471 193.653 582.309 193.417 582.105 193.218C581.902 193.019 581.661 192.863 581.397 192.757C581.133 192.652 580.851 192.599 580.567 192.603C580.282 192.606 580.002 192.665 579.74 192.777C579.479 192.889 579.242 193.052 579.044 193.255C578.845 193.459 578.688 193.699 578.583 193.963C578.477 194.227 578.425 194.51 578.428 194.794C578.432 195.078 578.491 195.359 578.603 195.62C578.634 195.693 578.669 195.763 578.708 195.831C577.36 196.581 576.084 197.456 574.897 198.442L574.728 198.253C574.323 197.848 573.774 197.62 573.202 197.62C572.629 197.62 572.08 197.848 571.675 198.253C571.27 198.658 571.042 199.207 571.042 199.779C571.042 200.352 571.27 200.901 571.675 201.306L571.885 201.496C570.77 202.852 569.809 204.328 569.021 205.897L568.748 205.75C568.214 205.537 567.618 205.546 567.091 205.773C566.564 206 566.148 206.427 565.936 206.96C565.724 207.494 565.732 208.09 565.959 208.617C566.187 209.144 566.614 209.56 567.147 209.772H567.463C567.04 211.257 566.765 212.781 566.642 214.32H566.263C565.687 214.32 565.136 214.549 564.729 214.956C564.322 215.363 564.094 215.914 564.094 216.49C564.094 217.065 564.322 217.617 564.729 218.023C565.136 218.43 565.687 218.659 566.263 218.659H566.663C566.83 220.394 567.198 222.104 567.758 223.755L567.337 223.902C567.077 224.014 566.841 224.176 566.644 224.379C566.447 224.582 566.291 224.822 566.187 225.085C566.082 225.348 566.03 225.629 566.034 225.912C566.038 226.195 566.098 226.475 566.21 226.735C566.322 226.995 566.484 227.23 566.687 227.427C566.89 227.625 567.13 227.78 567.393 227.885C567.656 227.989 567.937 228.041 568.22 228.037C568.503 228.033 568.782 227.973 569.042 227.861C569.193 227.805 569.335 227.727 569.464 227.63C570.201 228.986 571.077 230.263 572.075 231.441C571.933 231.527 571.799 231.626 571.675 231.736C571.464 231.933 571.297 232.171 571.182 232.436C571.067 232.7 571.008 232.985 571.008 233.273C571.008 233.562 571.067 233.847 571.182 234.111C571.297 234.376 571.464 234.614 571.675 234.811C571.871 235.018 572.108 235.183 572.371 235.295C572.633 235.408 572.916 235.466 573.202 235.466C573.487 235.466 573.77 235.408 574.032 235.295C574.295 235.183 574.532 235.018 574.728 234.811C574.851 234.684 574.957 234.543 575.044 234.389C576.396 235.5 577.865 236.46 579.424 237.253C579.316 237.401 579.23 237.564 579.172 237.738C578.975 238.199 578.95 238.716 579.1 239.195C579.251 239.674 579.567 240.083 579.993 240.349L578.034 245.277C578.025 245.326 578.025 245.375 578.034 245.424H566.705V247.383H613.118V245.424H602.736L600.42 240.075C600.844 239.798 601.155 239.377 601.294 238.89C601.433 238.403 601.392 237.881 601.178 237.422C601.107 237.256 601.015 237.101 600.904 236.959C602.262 236.228 603.545 235.368 604.737 234.389C604.824 234.543 604.93 234.684 605.053 234.811C605.461 235.218 606.013 235.447 606.59 235.447C607.167 235.447 607.72 235.218 608.127 234.811C608.535 234.403 608.764 233.85 608.764 233.273C608.764 232.697 608.535 232.144 608.127 231.736L607.727 231.441C608.844 230.093 609.818 228.632 610.633 227.082C610.759 227.172 610.893 227.249 611.033 227.314C611.298 227.419 611.58 227.471 611.864 227.467C612.148 227.463 612.429 227.403 612.69 227.291C612.951 227.178 613.187 227.015 613.385 226.812C613.584 226.608 613.74 226.367 613.845 226.103C613.95 225.839 614.002 225.557 613.998 225.272C613.994 224.988 613.934 224.707 613.822 224.446C613.709 224.185 613.546 223.949 613.343 223.751C613.139 223.553 612.898 223.397 612.634 223.292C612.507 223.231 612.372 223.188 612.234 223.165C612.68 221.697 612.976 220.187 613.118 218.659L613.518 218.701ZM611.413 216.11H609.538C609.502 213.715 609.031 211.346 608.148 209.119L609.812 208.403C610.11 208.839 610.561 209.147 611.076 209.266C611.678 211.072 612.046 212.948 612.171 214.847C611.774 215.163 611.505 215.612 611.413 216.11ZM597.177 237.506C595.298 238.149 593.345 238.545 591.365 238.685C591.067 238.383 590.686 238.178 590.27 238.096V235.99C592.63 235.944 594.962 235.473 597.156 234.6L597.977 236.474C597.608 236.725 597.327 237.086 597.177 237.506ZM583.068 237.696C582.9 237.296 582.613 236.958 582.246 236.727L583.004 234.832C585.03 235.576 587.164 235.982 589.322 236.032V238.138C588.906 238.22 588.524 238.425 588.227 238.728C586.473 238.585 584.741 238.239 583.068 237.696ZM603.642 203.433C605.088 204.976 606.269 206.748 607.138 208.677L591.828 215.247L603.642 203.433ZM591.007 214.763L597.324 199.053C599.432 199.955 601.358 201.232 603.01 202.822L591.007 214.763ZM590.27 214.299V197.452C592.43 197.497 594.566 197.91 596.587 198.674L590.27 214.299ZM589.406 214.447L582.731 198.906C584.853 198.042 587.115 197.572 589.406 197.516V214.447ZM588.564 214.657L576.75 202.822C578.273 201.354 580.031 200.151 581.951 199.264L588.564 214.657ZM588.079 215.373L572.454 209.056C573.332 206.949 574.58 205.016 576.139 203.349L588.079 215.373ZM587.616 216.11H571.001C571.032 213.998 571.417 211.905 572.138 209.919L587.616 216.11ZM587.764 216.953L572.433 223.544C571.564 221.452 571.085 219.218 571.022 216.953H587.764ZM587.974 217.795L576.266 229.504C574.812 228.005 573.617 226.276 572.728 224.387L587.974 217.795ZM588.669 218.301L582.583 233.716C580.503 232.844 578.598 231.603 576.96 230.051L588.669 218.301ZM589.406 218.743V235.19C587.328 235.14 585.272 234.749 583.32 234.031L589.406 218.743ZM590.27 235.19V218.595L596.819 233.842C594.734 234.681 592.516 235.137 590.27 235.19ZM591.112 218.343L602.757 229.988C601.245 231.413 599.51 232.58 597.619 233.442L591.112 218.343ZM591.617 217.627L607.117 223.818C606.207 225.879 604.938 227.762 603.368 229.377L591.617 217.627ZM592.06 216.89H608.675C608.6 218.987 608.18 221.057 607.432 223.018L592.06 216.89ZM591.912 216.047L607.369 209.393C608.214 211.511 608.657 213.767 608.675 216.047H591.912ZM609.728 206.023C609.465 206.49 609.376 207.034 609.475 207.561L607.854 208.445C606.95 206.414 605.711 204.549 604.189 202.928L605.432 201.685C605.881 201.992 606.432 202.113 606.969 202.022C608.029 203.276 608.954 204.638 609.728 206.087V206.023ZM604.779 200.906L603.537 202.17C601.814 200.485 599.793 199.136 597.577 198.19L598.23 196.589C598.502 196.64 598.782 196.636 599.053 196.578C599.324 196.52 599.581 196.409 599.809 196.252C601.48 197.092 603.042 198.132 604.463 199.348C604.359 199.909 604.472 200.488 604.779 200.969V200.906ZM596.503 194.925C596.56 195.201 596.671 195.461 596.83 195.693C596.989 195.924 597.193 196.122 597.43 196.273L596.798 197.874C594.711 197.077 592.502 196.649 590.27 196.61V194.904C590.827 194.78 591.316 194.449 591.638 193.978C593.291 194.139 594.922 194.478 596.503 194.989V194.925ZM589.406 194.925V196.631C586.999 196.678 584.621 197.171 582.394 198.084L581.72 196.505C581.951 196.347 582.148 196.144 582.3 195.909C582.452 195.674 582.555 195.411 582.604 195.136C584.361 194.532 586.186 194.15 588.037 193.999C588.352 194.486 588.842 194.833 589.406 194.968V194.925ZM579.34 196.547C579.574 196.7 579.836 196.805 580.111 196.855C580.385 196.906 580.668 196.901 580.941 196.842L581.614 198.421C579.593 199.366 577.743 200.639 576.139 202.191L574.897 200.927C575.209 200.472 575.33 199.912 575.234 199.369C576.499 198.298 577.876 197.366 579.34 196.589V196.547ZM574.286 201.538L575.55 202.78C573.899 204.529 572.579 206.563 571.654 208.782L569.969 208.108C570.061 207.586 569.964 207.049 569.695 206.592C570.513 204.899 571.539 203.314 572.749 201.875C573.28 201.978 573.831 201.872 574.286 201.58V201.538ZM568.432 209.793C568.937 209.654 569.373 209.331 569.653 208.887L571.338 209.561C570.579 211.648 570.18 213.848 570.159 216.068H568.284C568.187 215.567 567.91 215.117 567.505 214.805C567.632 213.119 567.942 211.453 568.432 209.835V209.793ZM568.284 216.911H570.159C570.23 219.292 570.737 221.64 571.654 223.839L569.864 224.618C569.598 224.218 569.205 223.921 568.748 223.776C568.101 221.962 567.691 220.072 567.526 218.153C567.927 217.832 568.197 217.375 568.284 216.869V216.911ZM570.053 226.745C570.25 226.324 570.301 225.851 570.201 225.397L571.991 224.618C572.929 226.607 574.188 228.429 575.718 230.009L574.286 231.441C573.914 231.19 573.471 231.065 573.022 231.083C571.87 229.771 570.874 228.329 570.053 226.787V226.745ZM574.897 232.031L576.329 230.62C578.049 232.246 580.045 233.551 582.225 234.474L581.467 236.369C581.041 236.278 580.597 236.33 580.204 236.516C578.42 235.655 576.756 234.565 575.255 233.273C575.252 232.847 575.128 232.431 574.897 232.073V232.031ZM578.772 245.382L580.688 240.623C581.181 240.725 581.693 240.647 582.134 240.404C582.574 240.161 582.913 239.768 583.089 239.296C583.151 239.119 583.193 238.935 583.215 238.749C584.689 239.198 586.207 239.487 587.743 239.612C587.721 239.801 587.721 239.992 587.743 240.181C587.743 240.753 587.97 241.302 588.375 241.707C588.78 242.112 589.329 242.339 589.901 242.339C590.474 242.339 591.023 242.112 591.427 241.707C591.832 241.302 592.06 240.753 592.06 240.181C592.081 239.992 592.081 239.801 592.06 239.612C593.808 239.467 595.533 239.113 597.198 238.559C597.217 238.748 597.267 238.933 597.345 239.107C597.533 239.571 597.88 239.953 598.324 240.184C598.767 240.416 599.279 240.482 599.767 240.37L601.873 245.382H578.772ZM600.02 236.243C599.622 236.071 599.18 236.027 598.756 236.116L597.956 234.263C599.946 233.35 601.773 232.12 603.368 230.62L604.779 232.031C604.549 232.405 604.426 232.834 604.421 233.273C603.083 234.453 601.604 235.465 600.02 236.285V236.243ZM605.39 231.441L603.979 230.009C605.63 228.308 606.964 226.326 607.917 224.155L609.707 224.871C609.625 225.331 609.7 225.805 609.917 226.219C609.04 227.972 607.943 229.606 606.653 231.083C606.198 231.066 605.752 231.207 605.39 231.483V231.441ZM611.139 223.207C610.688 223.376 610.299 223.677 610.023 224.071L608.233 223.355C609.028 221.297 609.463 219.117 609.517 216.911H611.413C611.504 217.399 611.765 217.839 612.15 218.153C612.009 219.864 611.669 221.553 611.139 223.186V223.207Z" fill="#00477D"/>
<path d="M415.525 153.018C417.63 154.155 419.526 154.092 419.968 152.787C420.41 151.481 419.463 150.681 417.967 150.175L422.916 144.384C425.022 145.542 426.959 145.5 427.423 144.174C427.886 142.847 426.896 142.068 425.317 141.52L429.866 136.213C443.659 141.204 454.609 142.026 456.21 137.477C457.81 132.928 448.734 126.737 434.814 122.02L434.583 115.049C436.141 115.555 437.468 115.323 437.847 114.27C438.226 113.217 436.794 111.659 434.435 111.28L434.183 103.678C435.72 104.162 437.025 103.909 437.383 102.877C437.741 101.846 436.352 100.308 434.056 99.9293L433.719 90.3686L430.518 82.4927L422.537 118.566L421.758 118.377C411.755 116.271 402.637 114.376 395.75 113.196L387.327 97.6971L386.19 111.806C385.232 111.682 384.262 111.682 383.305 111.806C383.243 111.787 383.177 111.787 383.115 111.806C383.115 112.059 383.894 112.775 385.537 113.912L377.619 125.642L393.771 118.714C399.899 122.062 408.154 126.358 417.336 130.864L418.073 131.201L411.902 143.837L401.942 164.411L409.354 160.199L415.525 153.018Z" fill="white"/>
<path d="M570.116 452.325C568.579 454.094 568.242 456.01 569.421 456.726C570.601 457.442 571.527 456.726 572.391 455.294L577.045 461.338C575.486 463.107 575.128 465.065 576.329 465.803C577.529 466.54 578.434 465.803 579.34 464.307L583.552 469.846C575.823 482.334 572.77 492.884 576.897 495.39C581.025 497.896 588.943 490.273 596.419 477.616L603.305 478.817C602.462 480.249 602.441 481.597 603.305 482.165C604.168 482.734 606.063 481.681 606.906 479.47L614.424 480.775C613.624 482.165 613.603 483.492 614.529 484.06C615.456 484.629 617.267 483.597 618.109 481.407L627.522 483.05L635.946 481.533L602.252 466.203L602.61 465.466C606.822 456.116 610.444 447.566 613.013 441.08L629.86 436.131L616.277 432.109C616.616 431.2 616.836 430.252 616.93 429.287C616.93 429.287 616.93 429.097 616.93 429.076C616.93 429.055 615.835 429.645 614.487 431.014L604.61 420.863L608.085 438.11C603.536 443.396 597.556 450.598 591.238 458.664L590.754 459.316L579.593 450.682L561.503 436.678L564.072 444.786L570.116 452.325Z" fill="white"/>
<path d="M174.971 286.636C174.971 286.636 196.619 259.744 146.394 263.619C146.394 263.619 152.438 232.852 117.797 248.878C117.797 248.878 98.149 220.596 76.2269 253.363C76.2269 253.363 32.9302 233.505 34.657 265.872C34.657 265.872 -0.847911 266.104 0.0154957 286.741L174.971 286.636Z" fill="white"/>
<path d="M485.524 61.2024H693.436C693.436 61.2024 696.848 39.7014 660.521 38.0378C660.521 38.0378 662.627 9.46115 633.145 23.2967C633.145 23.2967 608.464 -25.3489 585.953 17.9478C585.953 17.9478 543.035 -9.91285 531.01 37.8693C531.031 37.8693 485.524 27.34 485.524 61.2024Z" fill="white"/>
<path d="M557.313 618.437H731.805C731.805 618.437 731.805 596.262 695.437 597.715C695.437 597.715 694.889 575.835 668.06 589.944C668.06 589.944 647.591 552.46 629.249 592.661C629.249 592.661 600.357 574.424 591.849 603.359C591.765 603.359 557.313 590.492 557.313 618.437Z" fill="#F9FBFC"/>
<path d="M282.686 614.414H147.911C147.911 614.414 150.985 586.49 172.971 597.672C172.971 597.672 186.195 564.968 215.299 584.11C215.299 584.11 234.904 568.148 249.182 595.798C249.182 595.798 278.685 578.087 282.686 614.414Z" fill="#F9FBFC"/>
</svg>
