<svg width="625" height="297" viewBox="0 0 625 297" fill="none" xmlns="http://www.w3.org/2000/svg">
<path d="M185.153 148.143C185.153 148.143 149.728 97.6898 135.883 104.23C122.038 110.77 185.153 148.143 185.153 148.143Z" fill="#08C471"/>
<path d="M182.901 134.582C182.901 134.582 177.49 96.6537 168.959 98.1384C160.429 99.6232 182.901 134.582 182.901 134.582Z" fill="#08C471"/>
<path d="M152.946 252.807C152.946 252.807 156.351 235.924 143.126 233.808C143.126 233.808 134.159 233.494 128.876 236.877C128.876 236.877 143.875 245.54 142.09 248.232C140.305 250.924 126.074 237.363 126.074 237.363C126.074 237.363 109.996 244.407 106.409 249.511C106.409 249.511 125.406 252.897 123.016 255.062C120.626 257.226 100.701 254.643 100.701 254.643C100.701 254.643 87.8548 264.995 93.4491 273.235C99.0435 281.475 105.428 281.415 107.451 279.983C109.474 278.552 119.366 266.72 120.628 268.33C121.89 269.939 117.533 279.928 112.382 283.161C112.382 283.161 128.564 288.61 133.419 281.704C138.273 274.798 136.036 269.433 139.124 265.219C142.213 261.005 145.754 259.035 145.123 261.923C144.492 264.812 138.035 270.885 138.008 276.406C137.98 281.926 137.432 285.945 143.734 281.063C150.036 276.181 158.411 264.891 155.681 258.861L152.946 252.807Z" fill="#08C471"/>
<path d="M100.551 269.56C100.551 269.56 138.276 246.525 152.951 252.797C152.951 252.797 157.983 257.386 166.648 259.273L168.925 261.232C168.925 261.232 158.309 257.918 155.681 258.829C155.681 258.85 151.79 243.093 100.551 269.56Z" fill="#08C471"/>
<path d="M166.648 259.294C166.648 259.294 178.343 260.792 185.026 271.41L183.599 272.384C183.599 272.384 174.639 262.55 167.392 260.797C160.145 259.044 166.648 259.294 166.648 259.294Z" fill="#08C471"/>
<path d="M164.505 203.558C164.505 203.558 191.898 188.211 179.115 167.383C179.115 167.383 168.888 154.594 157.93 151.305C157.93 151.305 163.774 182.365 157.93 183.095C152.086 183.826 153.912 148.016 153.912 148.016C153.912 148.016 125.057 134.14 113.734 135.227C113.734 135.227 131.632 165.556 125.788 164.83C119.944 164.103 99.8549 133.405 99.8549 133.405C99.8549 133.405 70.2648 127.924 65.5211 145.463C60.7775 163.003 68.4431 171.772 72.8262 172.869C77.2092 173.965 105.334 173.599 104.603 177.263C103.873 180.926 84.8795 186.763 74.2872 183.475C74.2872 183.475 85.9752 212.342 101.316 210.88C116.656 209.418 121.405 199.918 130.906 199.187C140.407 198.456 147.342 201.014 142.594 203.581C137.846 206.148 121.775 204.418 114.104 210.942C106.434 217.467 100.234 221.486 114.47 224.409C128.705 227.333 154.282 225.505 159.396 214.543L164.505 203.558Z" fill="#08C471"/>
<path d="M79.0286 150.939C79.0286 150.939 155.732 175.787 164.505 203.558C164.505 203.558 164.139 215.982 171.81 230.232V235.714C171.81 235.714 163.774 217.078 159.391 214.52C159.384 214.518 176.551 190.403 79.0286 150.939Z" fill="#08C471"/>
<path d="M171.803 230.244C171.803 230.244 183.632 248.214 176.888 270.089L173.844 269.271C173.844 269.271 176.798 245.177 170.607 233.059C164.417 220.94 171.803 230.244 171.803 230.244Z" fill="#08C471"/>
<path d="M192.34 75.1548L151.353 287.136C151.156 288.148 151.185 289.192 151.438 290.191C151.691 291.191 152.162 292.122 152.817 292.918C153.473 293.714 154.296 294.355 155.229 294.795C156.161 295.234 157.179 295.462 158.21 295.462H179.827L192.34 75.1548Z" fill="#1C7CEE"/>
<path d="M464.797 135.838C464.797 135.838 446.361 124.071 456.082 110.097C456.082 110.097 463.711 101.614 471.455 99.7643C471.455 99.7643 466.152 121.129 470.186 121.869C474.22 122.609 474.38 97.6389 474.38 97.6389C474.38 97.6389 495 89.1351 502.83 90.3493C502.83 90.3493 489.175 110.724 493.266 110.449C497.358 110.174 512.553 89.6347 512.553 89.6347C512.553 89.6347 533.345 87.0052 535.948 99.3919C538.551 111.779 532.866 117.57 529.773 118.157C526.68 118.745 507.139 117.366 507.502 119.936C507.865 122.505 520.838 127.336 528.335 125.468C528.335 125.468 519.056 145.072 508.454 143.444C497.853 141.816 494.922 135.019 488.342 134.131C481.763 133.243 476.839 134.746 480.041 136.714C483.243 138.682 494.485 138.13 499.557 142.958C504.628 147.787 508.787 150.845 498.766 152.309C488.745 153.773 471.037 151.481 467.921 143.655L464.797 135.838Z" fill="#08C471"/>
<path d="M526.322 102.66C526.322 102.66 471.996 116.876 464.788 135.838C464.788 135.838 464.557 144.489 458.646 154.094L458.426 157.905C458.426 157.905 464.758 145.266 467.904 143.664C467.909 143.664 456.938 126.208 526.322 102.66Z" fill="#C7DCFB"/>
<path d="M458.646 154.094C458.646 154.094 449.702 166.12 453.519 181.597L455.669 181.15C455.669 181.15 454.575 164.268 459.367 156.099C464.159 147.931 458.646 154.094 458.646 154.094Z" fill="#C7DCFB"/>
<path d="M415.151 84.7757C415.151 84.7757 386.823 78.5522 392.547 56.7134C392.547 56.7134 398.16 42.6662 406.965 36.8243C406.965 36.8243 410.118 65.8486 415.482 64.9281C420.845 64.0077 409.638 32.8418 409.638 32.8418C409.638 32.8418 431.425 12.8301 441.729 10.7649C441.729 10.7649 434.031 42.3724 439.001 40.1592C443.971 37.946 453.507 5.42948 453.507 5.42948C453.507 5.42948 478.192 -7.34815 487.087 6.88417C495.983 21.1165 491.551 30.9362 487.97 33.0685C484.389 35.2008 459.43 42.4164 461.055 45.4599C462.68 48.5034 481.035 48.5728 489.517 42.8257C489.517 42.8257 486.918 71.4754 472.965 74.2969C459.011 77.1183 452.27 69.9906 443.68 71.8917C435.09 73.7927 429.641 77.9047 434.523 78.9014C439.406 79.8982 453.151 74.061 461.679 77.7705C470.207 81.4801 476.772 83.3696 464.964 89.7734C453.156 96.1773 430.057 101.415 422.606 93.0944L415.151 84.7757Z" fill="#08C471"/>
<path d="M476.61 15.3418C476.61 15.3418 415.461 57.8676 415.151 84.7758C415.151 84.7758 418.801 95.6616 415.844 110.315L417.312 115.172C417.312 115.172 419.425 96.5428 422.613 93.1061C422.606 93.0853 400.973 76.3691 476.61 15.3418Z" fill="#DFEBFD"/>
<path d="M415.837 110.306C415.837 110.306 410.195 129.362 422.014 146.89L424.486 145.352C424.486 145.352 415.421 124.846 417.645 112.475C419.869 100.104 415.837 110.306 415.837 110.306Z" fill="#DFEBFD"/>
<path d="M192.832 74.2969L165.661 282.432C165.447 284.06 165.584 285.714 166.061 287.284C166.538 288.854 167.344 290.304 168.426 291.538C169.508 292.771 170.841 293.759 172.336 294.436C173.83 295.113 175.452 295.463 177.092 295.462H216.946L194.476 73.5522L192.832 74.2969Z" fill="#1C7CEE"/>
<path d="M192.832 74.2969L180.67 281.105C180.564 282.948 180.834 284.793 181.466 286.527C182.097 288.261 183.076 289.849 184.342 291.191C185.608 292.534 187.135 293.603 188.829 294.335C190.523 295.066 192.349 295.443 194.194 295.444H253.633L192.832 74.2969Z" fill="#79B6FF"/>
<path d="M476.955 295.462H242.592C239.756 295.462 237.01 294.466 234.833 292.649C232.655 290.832 231.183 288.308 230.673 285.518L195.019 90.4095C194.639 88.33 194.721 86.1924 195.258 84.1479C195.795 82.1034 196.775 80.2019 198.128 78.5782C199.481 76.9545 201.174 75.6482 203.088 74.7517C205.002 73.8552 207.089 73.3905 209.202 73.3904H440.797C443.633 73.3907 446.379 74.3861 448.557 76.2032C450.735 78.0203 452.207 80.544 452.717 83.335L488.874 281.153C489.195 282.902 489.127 284.699 488.676 286.418C488.225 288.137 487.402 289.736 486.265 291.101C485.128 292.466 483.704 293.565 482.095 294.318C480.486 295.072 478.731 295.462 476.955 295.462Z" fill="#D7E9FF"/>
<path d="M199.643 115.747H458.787L452.141 78.9108C451.863 77.3619 451.049 75.9603 449.842 74.9511C448.635 73.9419 447.112 73.3894 445.538 73.3904H194.536C194.214 73.3906 193.896 73.4615 193.604 73.5983C193.313 73.735 193.055 73.9342 192.848 74.1817C192.642 74.4293 192.493 74.7191 192.411 75.0308C192.329 75.3424 192.317 75.6682 192.375 75.9852L199.643 115.747Z" fill="#1C468A"/>
<path d="M205.711 62.3057C202.732 62.3081 199.876 63.4927 197.769 65.5994C195.663 67.7062 194.477 70.563 194.474 73.543H196.638C196.638 71.1344 197.594 68.8243 199.296 67.1211C200.999 65.4179 203.308 64.4611 205.716 64.4611C208.123 64.4611 210.432 65.4179 212.135 67.1211C213.837 68.8243 214.794 71.1344 214.794 73.543C214.798 74.5201 214.641 75.4912 214.331 76.4177C213.89 77.7373 213.151 78.938 212.173 79.9275C211.195 80.917 210.003 81.6689 208.689 82.1254C207.898 82.4019 207.072 82.5655 206.236 82.6111V84.7758C207.211 84.7331 208.176 84.5621 209.107 84.267C211.665 83.458 213.849 81.76 215.265 79.48C216.68 77.2 217.233 74.4885 216.824 71.8359C216.415 69.1833 215.071 66.7647 213.034 65.0176C210.997 63.2705 208.403 62.3102 205.72 62.3103L205.711 62.3057Z" fill="#1C7CEE"/>
<path d="M209.186 83.6194C209.185 83.8389 209.155 84.0574 209.098 84.2693C208.933 84.8656 208.548 85.3772 208.021 85.7005C207.494 86.0238 206.864 86.1347 206.258 86.0107C205.652 85.8867 205.116 85.5371 204.758 85.0326C204.4 84.5281 204.247 83.9064 204.33 83.2934C204.413 82.6803 204.725 82.1216 205.204 81.7303C205.683 81.3391 206.293 81.1445 206.91 81.1859C207.527 81.2273 208.105 81.5017 208.528 81.9535C208.95 82.4053 209.185 83.0007 209.186 83.6194Z" fill="#1C7CEE"/>
<path d="M245.993 62.3057C243.014 62.3081 240.158 63.4928 238.052 65.5996C235.946 67.7064 234.761 70.5632 234.758 73.543H236.915C236.915 71.8754 237.373 70.24 238.241 68.816C239.109 67.392 240.351 66.2345 241.833 65.4703C243.315 64.7062 244.978 64.3649 246.641 64.4839C248.303 64.6029 249.901 65.1775 251.259 66.1449C252.617 67.1123 253.682 68.435 254.338 69.968C254.994 71.501 255.216 73.1852 254.978 74.8358C254.741 76.4864 254.054 78.0398 252.993 79.3257C251.931 80.6115 250.536 81.5802 248.961 82.1254C248.17 82.4022 247.345 82.5657 246.508 82.6111V84.7758C247.484 84.7329 248.449 84.5619 249.379 84.267C251.938 83.458 254.122 81.76 255.537 79.48C256.953 77.2 257.506 74.4885 257.097 71.8359C256.688 69.1833 255.343 66.7647 253.307 65.0176C251.27 63.2705 248.676 62.3102 245.993 62.3103V62.3057Z" fill="#1C7CEE"/>
<path d="M249.465 83.6194C249.465 83.8388 249.436 84.0573 249.379 84.2692C249.216 84.8723 248.83 85.3908 248.299 85.7197C247.768 86.0487 247.132 86.1634 246.52 86.0407C245.907 85.918 245.364 85.5671 245.001 85.059C244.637 84.5508 244.481 83.9235 244.562 83.3041C244.644 82.6846 244.957 82.1193 245.44 81.7227C245.922 81.326 246.538 81.1276 247.161 81.1677C247.784 81.2078 248.369 81.4833 248.797 81.9385C249.225 82.3937 249.463 82.9946 249.465 83.6194Z" fill="#1C7CEE"/>
<path d="M286.277 62.3057C283.298 62.3081 280.443 63.4928 278.336 65.5996C276.23 67.7064 275.045 70.5632 275.042 73.543H277.197C277.235 71.1591 278.208 68.8858 279.906 67.2134C281.605 65.541 283.893 64.6037 286.276 64.6037C288.659 64.6037 290.947 65.541 292.645 67.2134C294.344 68.8858 295.317 71.1591 295.355 73.543C295.359 74.5201 295.203 75.4912 294.893 76.4177C294.451 77.737 293.713 78.9375 292.735 79.9269C291.757 80.9164 290.566 81.6684 289.252 82.1254C288.461 82.402 287.634 82.5655 286.797 82.6111V84.7758C287.772 84.7329 288.738 84.5619 289.668 84.267C292.226 83.4581 294.41 81.7603 295.826 79.4805C297.241 77.2007 297.795 74.4895 297.386 71.837C296.977 69.1846 295.633 66.7661 293.597 65.0188C291.561 63.2715 288.967 62.3107 286.284 62.3103L286.277 62.3057Z" fill="#1C7CEE"/>
<path d="M289.749 83.6193C289.748 83.8388 289.719 84.0573 289.661 84.2691C289.497 84.8667 289.111 85.3794 288.583 85.7035C288.055 86.0275 287.423 86.1387 286.816 86.0145C286.209 85.8904 285.672 85.5401 285.313 85.0346C284.955 84.5292 284.801 83.9063 284.884 83.292C284.967 82.6777 285.28 82.1179 285.76 81.7259C286.24 81.3339 286.851 81.139 287.47 81.1806C288.088 81.2222 288.667 81.4972 289.09 81.9499C289.514 82.4027 289.749 82.9994 289.749 83.6193Z" fill="#1C7CEE"/>
<path d="M326.556 62.3057C323.578 62.3087 320.723 63.4937 318.617 65.6004C316.511 67.7072 315.327 70.5636 315.324 73.543H317.481C317.48 71.8754 317.939 70.24 318.807 68.816C319.675 67.392 320.917 66.2345 322.399 65.4703C323.88 64.7062 325.544 64.3649 327.206 64.4839C328.869 64.6029 330.467 65.1776 331.825 66.1449C333.183 67.1123 334.248 68.435 334.904 69.968C335.56 71.501 335.782 73.1852 335.544 74.8358C335.307 76.4865 334.62 78.0399 333.559 79.3257C332.497 80.6115 331.102 81.5802 329.527 82.1254C328.736 82.402 327.911 82.5655 327.074 82.6111V84.7758C328.049 84.7328 329.015 84.5617 329.945 84.267C332.507 83.4607 334.696 81.7631 336.114 79.4816C337.532 77.2001 338.087 74.4858 337.677 71.8305C337.268 69.1752 335.921 66.7545 333.88 65.0072C331.84 63.2599 329.242 62.3015 326.556 62.3057Z" fill="#1C7CEE"/>
<path d="M330.024 83.6194C330.023 83.8389 329.994 84.0574 329.936 84.2693C329.772 84.8656 329.387 85.3772 328.86 85.7005C328.332 86.0238 327.702 86.1347 327.096 86.0107C326.49 85.8867 325.954 85.5371 325.596 85.0326C325.238 84.5281 325.085 83.9064 325.168 83.2934C325.251 82.6803 325.564 82.1216 326.043 81.7303C326.522 81.3391 327.131 81.1445 327.748 81.1859C328.365 81.2273 328.944 81.5017 329.366 81.9535C329.789 82.4053 330.024 83.0007 330.024 83.6194Z" fill="#1C7CEE"/>
<path d="M366.841 62.3057C363.862 62.3081 361.006 63.4928 358.9 65.5996C356.793 67.7064 355.609 70.5632 355.606 73.543H357.765C357.764 71.8747 358.223 70.2384 359.09 68.8136C359.958 67.3888 361.201 66.2305 362.683 65.4658C364.165 64.701 365.829 64.3594 367.492 64.4783C369.156 64.5972 370.754 65.172 372.113 66.1398C373.471 67.1076 374.537 68.4309 375.193 69.9646C375.849 71.4983 376.071 73.1832 375.833 74.8345C375.595 76.4858 374.907 78.0397 373.845 79.3258C372.783 80.6119 371.387 81.5805 369.811 82.1254C369.021 82.4022 368.196 82.5657 367.361 82.6111V84.7758C368.335 84.7331 369.3 84.562 370.23 84.267C372.787 83.4581 374.972 81.7603 376.387 79.4805C377.803 77.2007 378.356 74.4895 377.947 71.837C377.538 69.1846 376.194 66.7661 374.158 65.0188C372.122 63.2715 369.528 62.3107 366.845 62.3103L366.841 62.3057Z" fill="#1C7CEE"/>
<path d="M370.313 83.6194C370.312 83.8389 370.282 84.0574 370.225 84.2693C370.06 84.8656 369.676 85.3772 369.148 85.7005C368.621 86.0238 367.991 86.1347 367.385 86.0107C366.779 85.8867 366.243 85.5371 365.885 85.0326C365.527 84.5281 365.374 83.9064 365.457 83.2934C365.54 82.6803 365.852 82.1216 366.331 81.7303C366.81 81.3391 367.42 81.1445 368.037 81.1859C368.654 81.2273 369.232 81.5017 369.655 81.9535C370.077 82.4053 370.312 83.0007 370.313 83.6194Z" fill="#1C7CEE"/>
<path d="M407.125 62.3057C404.146 62.3081 401.29 63.4927 399.183 65.5994C397.076 67.7062 395.891 70.563 395.887 73.543H398.044C398.044 71.8754 398.503 70.24 399.371 68.816C400.238 67.392 401.481 66.2345 402.962 65.4703C404.444 64.7062 406.107 64.3649 407.77 64.4839C409.433 64.6029 411.031 65.1775 412.388 66.1449C413.746 67.1123 414.812 68.435 415.468 69.968C416.124 71.501 416.345 73.1852 416.108 74.8358C415.871 76.4864 415.184 78.0398 414.122 79.3257C413.061 80.6115 411.666 81.5802 410.091 82.1254C409.3 82.4022 408.474 82.5657 407.638 82.6111V84.7758C408.613 84.7331 409.578 84.5621 410.509 84.267C413.067 83.4581 415.251 81.7603 416.667 79.4805C418.082 77.2007 418.635 74.4895 418.227 71.837C417.818 69.1846 416.474 66.7661 414.437 65.0188C412.401 63.2715 409.807 62.3107 407.125 62.3103V62.3057Z" fill="#1C7CEE"/>
<path d="M410.597 83.6194C410.596 83.8389 410.567 84.0574 410.509 84.2693C410.345 84.8656 409.96 85.3772 409.433 85.7005C408.905 86.0238 408.275 86.1347 407.669 86.0107C407.063 85.8867 406.527 85.5371 406.169 85.0326C405.811 84.5281 405.658 83.9064 405.741 83.2934C405.824 82.6803 406.137 82.1216 406.616 81.7303C407.095 81.3391 407.704 81.1445 408.321 81.1859C408.938 81.2273 409.517 81.5017 409.939 81.9535C410.361 82.4053 410.597 83.0007 410.597 83.6194Z" fill="#1C7CEE"/>
<path d="M447.404 62.3057C444.426 62.3087 441.571 63.4936 439.465 65.6004C437.359 67.7071 436.174 70.5636 436.171 73.543H438.326C438.325 71.8747 438.784 70.2384 439.651 68.8136C440.519 67.3888 441.762 66.2305 443.244 65.4658C444.726 64.701 446.39 64.3594 448.054 64.4783C449.717 64.5972 451.315 65.172 452.674 66.1398C454.032 67.1076 455.098 68.4309 455.754 69.9646C456.41 71.4983 456.632 73.1832 456.394 74.8345C456.156 76.4858 455.469 78.0397 454.406 79.3258C453.344 80.6119 451.949 81.5805 450.372 82.1254C449.583 82.4022 448.758 82.5657 447.922 82.6111V84.7758C448.897 84.7329 449.862 84.5619 450.793 84.267C453.351 83.458 455.536 81.7598 456.951 79.4795C458.367 77.1992 458.92 74.4875 458.51 71.8347C458.101 69.182 456.756 66.7634 454.719 65.0165C452.682 63.2696 450.087 62.3096 447.404 62.3103V62.3057Z" fill="#1C7CEE"/>
<path d="M450.879 83.6193C450.879 83.8388 450.85 84.0573 450.793 84.2692C450.63 84.8704 450.245 85.3873 449.715 85.7151C449.186 86.0429 448.552 86.1571 447.941 86.0347C447.33 85.9122 446.789 85.5622 446.427 85.0556C446.065 84.549 445.908 83.9235 445.99 83.3059C446.071 82.6882 446.384 82.1246 446.865 81.729C447.346 81.3335 447.959 81.1356 448.581 81.1754C449.202 81.2153 449.785 81.4899 450.212 81.9436C450.638 82.3974 450.877 82.9964 450.879 83.6193Z" fill="#1C7CEE"/>
<path d="M349.516 184.948H336.416C334.902 184.948 333.424 183.71 333.131 182.193L330.604 169.087C330.313 167.572 331.312 166.333 332.828 166.333H345.929C347.443 166.333 348.92 167.572 349.211 169.087L351.74 182.193C352.032 183.71 351.031 184.948 349.516 184.948Z" fill="#79B6FF"/>
<path d="M382.574 184.948H369.474C367.959 184.948 366.482 183.71 366.191 182.193L363.662 169.087C363.371 167.572 364.372 166.333 365.886 166.333H378.986C380.5 166.333 381.978 167.572 382.271 169.087L384.798 182.193C385.089 183.71 384.091 184.948 382.574 184.948Z" fill="#79B6FF"/>
<path d="M415.634 184.948H402.534C401.017 184.948 399.528 183.71 399.249 182.193L396.722 169.087C396.428 167.572 397.429 166.333 398.943 166.333H412.044C413.558 166.333 415.035 167.572 415.329 169.087L417.856 182.193C418.147 183.71 417.148 184.948 415.634 184.948Z" fill="#1C7CEE"/>
<path d="M250.343 184.948H237.243C235.729 184.948 234.238 183.71 233.958 182.193L231.431 169.087C231.138 167.572 232.139 166.333 233.653 166.333H246.753C248.268 166.333 249.759 167.572 250.038 169.087L252.565 182.193C252.859 183.71 251.858 184.948 250.343 184.948Z" fill="#79B6FF"/>
<path d="M235.985 145.599H230.354C230.021 145.586 229.702 145.462 229.447 145.248C229.192 145.034 229.015 144.741 228.944 144.415L227.857 138.784C227.821 138.641 227.819 138.492 227.851 138.347C227.883 138.203 227.947 138.069 228.04 137.954C228.132 137.839 228.25 137.747 228.384 137.686C228.518 137.625 228.665 137.595 228.812 137.6H234.441C234.774 137.613 235.094 137.737 235.349 137.951C235.605 138.165 235.782 138.458 235.854 138.784L236.94 144.415C236.976 144.558 236.978 144.708 236.946 144.852C236.915 144.996 236.85 145.131 236.758 145.245C236.665 145.36 236.547 145.452 236.413 145.513C236.279 145.575 236.133 145.604 235.985 145.599Z" fill="#1C468A"/>
<path d="M283.401 184.948H270.301C268.786 184.948 267.295 183.71 267.016 182.193L264.489 169.087C264.198 167.572 265.196 166.333 266.711 166.333H279.811C281.325 166.333 282.816 167.572 283.096 169.087L285.623 182.193C285.916 183.71 284.915 184.948 283.401 184.948Z" fill="#79B6FF"/>
<path d="M316.459 184.948H303.358C301.844 184.948 300.367 183.71 300.073 182.193L297.547 169.087C297.255 167.572 298.254 166.333 299.768 166.333H312.869C314.385 166.333 315.874 167.572 316.154 169.087L318.68 182.193C318.974 183.71 317.973 184.948 316.459 184.948Z" fill="#79B6FF"/>
<path d="M448.692 184.948H435.591C434.077 184.948 432.598 183.71 432.306 182.193L429.78 169.087C429.486 167.572 430.487 166.333 432.001 166.333H445.102C446.616 166.333 448.095 167.572 448.387 169.087L450.913 182.193C451.207 183.71 450.206 184.948 448.692 184.948Z" fill="#1C7CEE"/>
<path d="M344.028 156.483H330.928C329.414 156.483 327.923 155.243 327.643 153.729L325.116 140.623C324.825 139.108 325.824 137.868 327.338 137.868H340.438C341.952 137.868 343.444 139.108 343.723 140.623L346.25 153.729C346.544 155.243 345.543 156.483 344.028 156.483Z" fill="#79B6FF"/>
<path d="M377.086 156.483H363.985C362.471 156.483 360.994 155.243 360.7 153.729L358.174 140.623C357.883 139.108 358.881 137.868 360.395 137.868H373.496C375.012 137.868 376.501 139.108 376.781 140.623L379.31 153.729C379.601 155.243 378.6 156.483 377.086 156.483Z" fill="#79B6FF"/>
<path d="M410.144 156.483H397.043C395.529 156.483 394.052 155.243 393.761 153.729L391.232 140.623C390.94 139.108 391.941 137.868 393.455 137.868H406.556C408.07 137.868 409.547 139.108 409.841 140.623L412.368 153.729C412.659 155.243 411.658 156.483 410.144 156.483Z" fill="#1C7CEE"/>
<path d="M443.204 156.483H430.103C428.587 156.483 427.098 155.243 426.818 153.729L424.289 140.623C423.998 139.108 424.999 137.868 426.513 137.868H439.614C441.128 137.868 442.605 139.108 442.899 140.623L445.425 153.729C445.717 155.243 444.718 156.483 443.204 156.483Z" fill="#1C7CEE"/>
<path d="M355.335 215.119H342.234C340.72 215.119 339.229 213.879 338.95 212.365L336.423 199.254C336.129 197.739 337.13 196.5 338.644 196.5H351.754C353.268 196.5 354.759 197.739 355.039 199.254L357.566 212.36C357.848 213.879 356.84 215.119 355.335 215.119Z" fill="#79B6FF"/>
<path d="M388.393 215.119H375.292C373.778 215.119 372.287 213.879 372.007 212.365L369.481 199.254C369.187 197.739 370.188 196.5 371.702 196.5H384.812C386.326 196.5 387.817 197.739 388.097 199.254L390.624 212.36C390.908 213.879 389.898 215.119 388.393 215.119Z" fill="#79B6FF"/>
<path d="M421.45 215.119H408.35C406.836 215.119 405.358 213.879 405.065 212.365L402.538 199.254C402.247 197.739 403.246 196.5 404.76 196.5H417.87C419.384 196.5 420.875 197.739 421.154 199.254L423.681 212.36C423.966 213.879 422.955 215.119 421.45 215.119Z" fill="#1C7CEE"/>
<path d="M256.16 215.119H243.059C241.545 215.119 240.068 213.879 239.774 212.365L237.248 199.254C236.956 197.739 237.955 196.5 239.472 196.5H252.581C254.095 196.5 255.573 197.739 255.864 199.254L258.393 212.36C258.675 213.879 257.667 215.119 256.16 215.119Z" fill="#79B6FF"/>
<path d="M289.217 215.119H276.117C274.603 215.119 273.126 213.879 272.832 212.365L270.305 199.254C270.014 197.739 271.015 196.5 272.529 196.5H285.639C287.153 196.5 288.63 197.739 288.924 199.254L291.451 212.36C291.733 213.879 290.725 215.119 289.217 215.119Z" fill="#79B6FF"/>
<path d="M322.277 215.119H309.177C307.66 215.119 306.172 213.879 305.892 212.365L303.363 199.254C303.072 197.739 304.073 196.5 305.587 196.5H318.697C320.211 196.5 321.688 197.739 321.982 199.254L324.508 212.36C324.79 213.879 323.782 215.119 322.277 215.119Z" fill="#79B6FF"/>
<path d="M454.508 215.119H441.407C439.893 215.119 438.416 213.879 438.123 212.365L435.596 199.254C435.305 197.739 436.303 196.5 437.817 196.5H450.927C452.441 196.5 453.919 197.739 454.21 199.254L456.739 212.36C457.023 213.879 456.013 215.119 454.508 215.119Z" fill="#1C7CEE"/>
<path d="M361.151 245.288H348.055C346.541 245.288 345.064 244.049 344.77 242.534L342.244 229.428C341.952 227.913 342.951 226.673 344.465 226.673H357.566C359.082 226.673 360.571 227.913 360.851 229.428L363.38 242.534C363.666 244.049 362.666 245.288 361.151 245.288Z" fill="#79B6FF"/>
<path d="M394.209 245.288H381.113C379.599 245.288 378.122 244.049 377.828 242.534L375.301 229.428C375.01 227.913 376.009 226.673 377.525 226.673H390.626C392.14 226.673 393.617 227.913 393.909 229.428L396.438 242.534C396.724 244.049 395.723 245.288 394.209 245.288Z" fill="#79B6FF"/>
<path d="M427.267 245.288H414.171C412.657 245.288 411.179 244.049 410.888 242.534L408.359 229.428C408.068 227.913 409.069 226.673 410.583 226.673H423.683C425.198 226.673 426.675 227.913 426.968 229.428L429.495 242.534C429.782 244.049 428.783 245.288 427.267 245.288Z" fill="#1C7CEE"/>
<path d="M261.978 245.288H248.882C247.366 245.288 245.877 244.049 245.598 242.534L243.071 229.428C242.777 227.913 243.778 226.673 245.292 226.673H258.393C259.907 226.673 261.384 227.913 261.678 229.428L264.205 242.534C264.491 244.049 263.493 245.288 261.978 245.288Z" fill="#79B6FF"/>
<path d="M295.036 245.288H281.94C280.426 245.288 278.935 244.049 278.655 242.534L276.129 229.428C275.835 227.913 276.836 226.673 278.35 226.673H291.451C292.965 226.673 294.456 227.913 294.736 229.428L297.262 242.534C297.551 244.049 296.55 245.288 295.036 245.288Z" fill="#1C468A"/>
<path d="M328.094 245.288H314.998C313.484 245.288 311.993 244.049 311.713 242.534L309.186 229.428C308.895 227.913 309.894 226.673 311.408 226.673H324.508C326.022 226.673 327.513 227.913 327.793 229.428L330.32 242.534C330.609 244.049 329.608 245.288 328.094 245.288Z" fill="#79B6FF"/>
<path d="M460.327 245.288H447.228C445.714 245.288 444.235 244.049 443.943 242.534L441.417 229.428C441.123 227.913 442.124 226.673 443.638 226.673H456.739C458.253 226.673 459.733 227.913 460.024 229.428L462.551 242.534C462.839 244.049 461.841 245.288 460.327 245.288Z" fill="#1C7CEE"/>
<path d="M366.639 273.755H353.539C352.025 273.755 350.547 272.516 350.254 271.001L347.727 257.895C347.436 256.378 348.437 255.138 349.951 255.138H363.052C364.566 255.138 366.043 256.378 366.337 257.895L368.863 271.001C369.155 272.516 368.167 273.755 366.639 273.755Z" fill="#79B6FF"/>
<path d="M399.699 273.755H386.599C385.082 273.755 383.594 272.516 383.314 271.001L380.785 257.895C380.494 256.378 381.494 255.138 383.009 255.138H396.109C397.623 255.138 399.101 256.378 399.394 257.895L401.921 271.001C402.212 272.516 401.225 273.755 399.699 273.755Z" fill="#79B6FF"/>
<path d="M432.757 273.755H419.657C418.142 273.755 416.651 272.516 416.372 271.001L413.845 257.895C413.551 256.378 414.552 255.138 416.066 255.138H429.167C430.681 255.138 432.172 256.378 432.452 257.895L434.979 271.001C435.27 272.516 434.283 273.755 432.757 273.755Z" fill="#1C7CEE"/>
<path d="M267.466 273.755H254.366C252.852 273.755 251.361 272.516 251.081 271.001L248.554 257.895C248.261 256.378 249.262 255.138 250.776 255.138H263.876C265.39 255.138 266.882 256.378 267.161 257.895L269.688 271.001C269.982 272.516 268.981 273.755 267.466 273.755Z" fill="#79B6FF"/>
<path d="M300.524 273.755H287.424C285.909 273.755 284.418 272.516 284.139 271.001L281.612 257.895C281.321 256.378 282.319 255.138 283.833 255.138H296.934C298.448 255.138 299.939 256.378 300.219 257.895L302.746 271.001C303.039 272.516 302.038 273.755 300.524 273.755Z" fill="#79B6FF"/>
<path d="M333.582 273.755H320.481C318.967 273.755 317.49 272.516 317.196 271.001L314.67 257.895C314.378 256.378 315.377 255.138 316.893 255.138H329.994C331.508 255.138 332.985 256.378 333.277 257.895L335.806 271.001C336.097 272.516 335.096 273.755 333.582 273.755Z" fill="#79B6FF"/>
<path d="M275.698 140.428H240.986C240.74 140.428 240.505 140.331 240.332 140.157C240.158 139.984 240.061 139.749 240.061 139.503C240.061 139.258 240.158 139.023 240.332 138.849C240.505 138.676 240.74 138.578 240.986 138.578H275.698C275.944 138.578 276.179 138.676 276.352 138.849C276.526 139.023 276.623 139.258 276.623 139.503C276.623 139.749 276.526 139.984 276.352 140.157C276.179 140.331 275.944 140.428 275.698 140.428Z" fill="#79B6FF"/>
<path d="M276.748 144.635H242.04C241.795 144.635 241.559 144.538 241.386 144.364C241.213 144.191 241.115 143.955 241.115 143.71C241.115 143.465 241.213 143.229 241.386 143.056C241.559 142.882 241.795 142.785 242.04 142.785H276.748C276.993 142.785 277.228 142.882 277.402 143.056C277.575 143.229 277.673 143.465 277.673 143.71C277.673 143.955 277.575 144.191 277.402 144.364C277.228 144.538 276.993 144.635 276.748 144.635Z" fill="#79B6FF"/>
<path d="M238.48 109.117H226.57C226.1 109.116 225.65 108.928 225.317 108.596C224.985 108.264 224.798 107.813 224.797 107.343C224.797 106.873 224.984 106.421 225.316 106.089C225.649 105.756 226.099 105.568 226.57 105.567H238.48C238.95 105.568 239.401 105.756 239.733 106.089C240.065 106.421 240.252 106.873 240.253 107.343C240.252 107.813 240.064 108.264 239.732 108.596C239.4 108.928 238.95 109.116 238.48 109.117Z" fill="white"/>
<path d="M271.149 109.117H259.239C258.769 109.116 258.318 108.928 257.986 108.596C257.653 108.264 257.465 107.813 257.464 107.343C257.465 106.872 257.652 106.421 257.985 106.088C258.318 105.756 258.769 105.568 259.239 105.567H271.149C271.619 105.568 272.07 105.756 272.402 106.089C272.735 106.421 272.922 106.873 272.922 107.343C272.921 107.813 272.734 108.264 272.401 108.596C272.069 108.928 271.619 109.116 271.149 109.117Z" fill="white"/>
<path d="M303.83 109.117H291.918C291.448 109.115 290.998 108.928 290.666 108.595C290.334 108.263 290.146 107.813 290.145 107.343C290.146 106.873 290.333 106.422 290.665 106.089C290.997 105.757 291.448 105.569 291.918 105.567H303.83C304.3 105.568 304.751 105.756 305.083 106.089C305.415 106.421 305.602 106.873 305.603 107.343C305.602 107.813 305.415 108.264 305.082 108.596C304.75 108.928 304.3 109.116 303.83 109.117Z" fill="white"/>
<path d="M336.508 109.117H324.598C324.129 109.116 323.678 108.928 323.346 108.596C323.014 108.264 322.827 107.813 322.825 107.343C322.826 106.873 323.013 106.421 323.345 106.089C323.677 105.756 324.128 105.568 324.598 105.567H336.508C336.979 105.568 337.43 105.756 337.762 106.088C338.095 106.421 338.283 106.872 338.284 107.343C338.282 107.813 338.094 108.264 337.762 108.596C337.429 108.928 336.979 109.116 336.508 109.117Z" fill="white"/>
<path d="M369.189 109.117H357.279C356.809 109.116 356.359 108.928 356.027 108.596C355.695 108.264 355.507 107.813 355.506 107.343C355.507 106.873 355.694 106.421 356.026 106.089C356.358 105.756 356.809 105.568 357.279 105.567H369.189C369.659 105.568 370.11 105.756 370.442 106.089C370.775 106.421 370.962 106.873 370.962 107.343C370.961 107.813 370.774 108.264 370.442 108.596C370.109 108.928 369.659 109.116 369.189 109.117Z" fill="white"/>
<path d="M401.87 109.117H389.96C389.49 109.116 389.039 108.928 388.707 108.596C388.374 108.264 388.187 107.813 388.185 107.343C388.186 106.872 388.373 106.421 388.706 106.088C389.039 105.756 389.49 105.568 389.96 105.567H401.87C402.34 105.568 402.791 105.756 403.123 106.089C403.456 106.421 403.643 106.873 403.643 107.343C403.642 107.813 403.455 108.264 403.123 108.596C402.79 108.928 402.34 109.116 401.87 109.117Z" fill="white"/>
<path d="M434.551 109.117H422.641C422.171 109.116 421.72 108.928 421.388 108.596C421.055 108.264 420.867 107.813 420.865 107.343C420.867 106.872 421.054 106.421 421.387 106.088C421.72 105.756 422.17 105.568 422.641 105.567H434.551C435.021 105.568 435.472 105.756 435.804 106.089C436.136 106.421 436.323 106.873 436.324 107.343C436.323 107.813 436.136 108.264 435.803 108.596C435.471 108.928 435.021 109.116 434.551 109.117Z" fill="white"/>
<path d="M359.223 156.742C356.595 156.742 354.679 155.907 353.636 154.286C351.634 151.178 353.174 146.821 358.227 141.335C360.698 138.71 363.386 136.298 366.263 134.124C366.303 134.094 366.349 134.071 366.397 134.059C366.446 134.046 366.497 134.043 366.547 134.05C366.597 134.057 366.645 134.074 366.688 134.099C366.732 134.125 366.77 134.159 366.8 134.199C366.83 134.239 366.853 134.285 366.865 134.334C366.878 134.383 366.881 134.434 366.874 134.483C366.867 134.533 366.85 134.581 366.825 134.625C366.799 134.668 366.765 134.706 366.725 134.737C366.556 134.862 349.96 147.154 354.286 153.872C355.656 156 358.59 156.141 360.812 155.884C364.924 155.408 370.29 153.192 375.144 149.957C380.184 146.608 383.735 142.836 384.884 139.603C385.64 137.484 385.406 135.983 384.19 135.141C382.62 134.055 379.335 134.052 375.406 135.141C371.647 136.18 367.865 138.051 365.534 140.024C365.457 140.081 365.36 140.106 365.264 140.095C365.168 140.084 365.08 140.037 365.018 139.963C364.955 139.889 364.923 139.795 364.928 139.698C364.932 139.602 364.973 139.511 365.042 139.443C367.451 137.403 371.344 135.475 375.214 134.408C379.414 133.252 382.842 133.287 384.622 134.517C385.676 135.248 386.703 136.767 385.6 139.862C384.396 143.245 380.746 147.156 375.565 150.593C370.602 153.89 365.116 156.143 360.89 156.64C360.337 156.706 359.781 156.74 359.223 156.742Z" fill="#C65447"/>
<path d="M427.993 135.137L426.64 132.593C426.64 132.593 427.311 128.044 421.617 125.169C421.617 125.169 419.536 124.32 418.36 126.018C417.278 127.584 420.422 127.302 420.253 129.977C420.084 132.653 421.353 134.223 423.122 135.095L424.583 136.788L427.993 135.137Z" fill="#FFB27D"/>
<path d="M481.814 129.036C481.814 129.036 476.925 153.051 450.009 160.898C441.609 163.347 422.521 135.676 422.521 135.676C422.521 135.676 423.191 133.132 427.396 133.71C427.396 133.71 445.98 146.018 448.32 147.355C450.4 148.541 464.039 132.103 470.281 129.45C476.523 126.797 481.814 129.036 481.814 129.036Z" fill="#233862"/>
<path d="M403.142 128.613L404.22 134.439L433.515 129.012L432.437 123.186L403.142 128.613Z" fill="#C65447"/>
<path d="M396.844 132.783L404.193 134.434L403.116 128.606L396.844 132.783Z" fill="#FFB27D"/>
<path d="M436.176 124.48L436.516 126.33C436.566 126.6 436.563 126.876 436.506 127.145C436.45 127.413 436.34 127.667 436.185 127.893C436.03 128.119 435.831 128.312 435.601 128.461C435.371 128.61 435.114 128.712 434.845 128.761L433.49 129.013L432.413 123.185L433.885 122.912C434.397 122.817 434.925 122.929 435.354 123.223C435.783 123.517 436.079 123.969 436.176 124.48Z" fill="#FFB27D"/>
<path d="M513.947 280.002C513.947 280.002 517.285 283.05 516.633 285.217C515.981 287.384 512.969 288.827 512.562 291.475C512.156 294.123 510.526 295.566 509.06 295.566H502.072C502.072 295.566 500.992 293.702 503.6 293.14C506.208 292.578 507.188 289.468 507.026 286.581C506.864 283.695 507.257 279.842 507.257 279.842L512.805 278.559L513.947 280.002Z" fill="#233862"/>
<path d="M472.986 287.888C472.986 287.888 473.584 294.826 472.119 295.545L453.359 295.508C453.359 295.508 453.359 293.341 456.364 292.86C459.37 292.379 464.67 290.615 465.567 286.683C466.464 282.752 472.986 287.888 472.986 287.888Z" fill="#233862"/>
<path d="M457.146 189.89C457.146 189.89 458.135 202.05 459.298 216.666C460.879 236.525 462.779 260.915 462.969 265.536C463.293 273.559 464.587 286.394 464.587 286.394C464.587 286.394 467.68 289.442 473.869 288.159C473.869 288.159 479.387 269.837 480.961 250.462C480.987 250.143 481.012 249.823 481.035 249.502C482.501 229.768 484.78 188.216 484.78 188.216L457.146 189.89Z" fill="#1C468A"/>
<path d="M457.146 189.89C457.146 189.89 458.135 202.05 459.298 216.666L480.98 250.452C481.005 250.133 481.031 249.814 481.054 249.493C482.519 229.758 484.799 188.206 484.799 188.206L457.146 189.89Z" fill="#1C7CEE"/>
<path d="M461.665 191.333C461.665 191.333 479.5 235.374 491.225 256.07C502.95 276.766 506.616 282.543 506.616 282.543C506.616 282.543 513.337 279.895 513.947 278.092C513.947 278.092 509.462 238.135 501.609 228.394C497.171 222.892 491.96 206.375 491.715 200.598C491.47 194.821 490.127 183.391 490.127 183.391L461.665 191.333Z" fill="#1C468A"/>
<path d="M485.141 123.463C485.141 123.463 473.073 129.288 466.117 127.126C467.436 125.592 469.026 124.314 470.808 123.358C470.577 121.959 470.38 120.747 470.274 119.721C470.106 118.488 470.007 117.247 469.978 116.004L474.634 112.341L479.049 108.835C478.709 118.691 485.141 123.463 485.141 123.463Z" fill="#FFB27D"/>
<path d="M456.385 190.894C456.582 191.076 456.84 191.179 457.109 191.183C459.73 191.129 467.357 192.57 473.802 191.918C479.26 191.391 484.077 189.811 489.242 187.547C489.935 187.23 491.516 186.391 491.489 185.648C491.461 184.804 491.382 183.62 491.276 182.089C491.059 179.083 490.756 174.802 490.659 169.732C490.587 165.974 490.626 161.781 490.89 157.339C490.906 157.04 490.922 156.74 490.934 156.439C491.012 154.82 491.049 153.171 491.049 151.569C491.102 146.714 490.736 141.864 489.956 137.073C488.643 129.441 486.181 123.446 482.545 120.784C482.061 120.414 479.063 121.862 476.282 123.208C473.739 124.448 471.196 124.579 468.792 124.105L466.383 126.212C463.464 128.874 460.253 132.537 458.836 138.074C457.661 142.766 456.965 151.256 456.589 160.045C456.404 164.05 456.269 168.056 456.216 171.876V172.008C456.186 172.404 456.186 172.801 456.186 173.197C456.064 182.986 456.196 190.762 456.385 190.894Z" fill="#2B478B"/>
<path d="M479.13 112.604C479.13 112.604 476.079 118.155 470.274 119.72C470.106 118.488 470.007 117.247 469.978 116.004L474.634 112.341L479.13 112.604Z" fill="#ED985F"/>
<path d="M467.863 115.842C467.863 115.842 479.375 117.727 480.455 110.648C481.534 103.569 483.749 99.0427 476.446 97.5394C469.143 96.0362 467.296 98.5269 466.353 100.805C465.41 103.083 464.897 115.171 467.863 115.842Z" fill="#FFB27D"/>
<path d="M484.639 96.6931C484.743 96.5728 484.986 96.4757 485.522 96.4456C485.215 96.2719 484.871 96.1751 484.519 96.1635C484.408 95.4188 484.01 94.0982 482.727 93.7768C482.935 93.8992 483.113 94.0667 483.248 94.2667C483.382 94.4668 483.471 94.6945 483.506 94.9331C482.02 93.4044 478.834 92.292 470.011 92.9905C458.385 93.9155 462.215 101.355 463.723 102.241C465.23 103.127 469.016 100.694 471.814 100.918C474.611 101.143 475.152 105.195 476.102 105.75C477.052 106.305 476.68 105.324 477.967 104.741C479.255 104.158 479.378 106.293 479.005 107.681C478.633 109.068 480.392 110.898 480.392 110.898L482.179 108.971C483.966 107.047 485.647 98.8901 484.84 97.151C484.785 97.0053 484.713 96.848 484.639 96.6931Z" fill="#2C3A64"/>
<path d="M426.615 132.463C426.615 132.463 427.012 130.9 425.921 130.195C424.83 129.489 423.841 127.579 423.378 127.838C422.431 128.374 423.896 130.044 423.628 132.126C423.542 132.856 425.239 134.767 426.615 132.463Z" fill="#FFB27D"/>
<path d="M490.659 169.732C490.587 165.974 490.626 161.781 490.89 157.339C490.906 157.04 490.922 156.74 490.934 156.439C489.84 151.016 488.185 146.203 485.749 146.046C485.758 146.046 478.499 157.459 490.659 169.732Z" fill="#233862"/>
<path d="M500.259 189.411C500.259 189.411 499.654 195.297 498.99 196.409C498.327 197.522 495.5 201.079 494.297 201.777C493.095 202.476 495.033 197.089 494.785 196.042C494.538 194.994 493.796 197.954 493.264 198.024C492.732 198.093 492.871 195.429 492.853 194.46C492.834 193.491 495.432 191.097 496.35 189.034C497.268 186.971 500.259 189.411 500.259 189.411Z" fill="#FFB27D"/>
<path d="M482.547 120.724C482.547 120.724 489.831 124.175 493.324 129.48C498.741 137.709 505.019 167.695 505.135 170.472C505.25 173.25 500.553 192.852 500.553 192.852C500.553 192.852 495.786 192.54 494.556 190.133C494.556 190.133 495.509 169.989 494.905 168.694C494.302 167.399 475.038 141.675 477.205 136.184C479.371 130.694 482.547 120.724 482.547 120.724Z" fill="#2B478B"/>
<path d="M400.61 130.276L400.994 133.715L396.844 132.783L400.61 130.276Z" fill="#C65447"/>
<path d="M558.219 295.462H537.229C536.105 294.507 538.008 292.34 540.003 292.194C540.867 292.127 541.958 292.31 543.207 292.574C543.496 288.734 545.144 271.482 551.362 272.173C558.351 272.95 551.362 279.773 549.386 283.811C547.923 286.803 546.381 291.093 545.671 293.117C546.24 293.242 546.827 293.362 547.428 293.471C548.353 290.626 551.802 281.054 556.185 281.611C561.331 282.264 559.264 286.103 555.614 288.381C552.939 290.055 549.652 292.437 548.089 293.587C549.444 293.824 550.819 293.934 552.195 293.917C555.782 293.825 557.539 294.884 558.219 295.462Z" fill="#08C471"/>
<path d="M79.0679 294.456C77.9559 292.708 74.6086 288.17 70.1492 288.771C65.2946 289.426 75.5148 292.631 78.6448 294.47C78.0603 294.501 77.4748 294.432 76.9133 294.266C74.8212 293.522 71.2358 294.96 70.0914 295.455H90.0116C89.7857 294.689 89.2765 294.037 88.5875 293.633C88.2616 293.432 87.6028 293.402 86.7543 293.469C87.938 292.081 88.7609 287.608 85.4644 288.758C83.0556 289.597 83.0625 292.324 83.2983 293.936C82.7851 294.017 82.265 294.098 81.7518 294.167C80.7601 289.109 77.2532 274.278 70.1423 273.894C62.9344 273.494 76.2545 289.264 80.6907 294.308C80.1266 294.382 79.5741 294.433 79.0679 294.456Z" fill="#08C471"/>
<path d="M624.293 295.245H0.707388C0.316708 295.245 0 295.561 0 295.952V296.195C0 296.586 0.316708 296.903 0.707388 296.903H624.293C624.683 296.903 625 296.586 625 296.195V295.952C625 295.561 624.683 295.245 624.293 295.245Z" fill="#1C468A"/>
</svg>
