<svg width="836" height="349" viewBox="0 0 836 349" fill="none" xmlns="http://www.w3.org/2000/svg">
<g clip-path="url(#clip0_56_256)">
<path d="M574.757 166.923C574.757 166.923 614.277 106.532 631.196 114.435C648.115 122.338 574.757 166.923 574.757 166.923Z" fill="#08C471"/>
<path d="M573.268 177.101C573.268 177.101 657.986 112.437 685.647 129.6C713.309 146.763 664.288 155.364 645.777 157.065C627.266 158.767 573.268 177.101 573.268 177.101Z" fill="#08C471"/>
<path d="M566.855 167.656C566.855 167.656 566.741 165.165 566.527 161.531C566.114 154.443 565.328 143.006 564.297 137.187C562.737 128.394 568.267 120.591 577.998 127.628C587.729 134.664 569.238 164.581 569.238 164.581L566.855 167.656Z" fill="#08C471"/>
<path d="M281.2 347.464L242.592 347.358C241.385 347.176 240.157 347.176 238.95 347.358L217.796 347.301C210.255 341.701 209.093 324.69 209.093 324.69C215.432 329.195 229.364 329.446 230.645 327.172C231.927 324.898 213.111 318.995 210.425 317.308C207.74 315.621 204.547 308.097 211.539 297.447C218.53 286.796 237.044 296.908 237.044 296.908C237.044 296.908 243.731 321.754 247.465 323.518C251.198 325.282 245.893 301.16 245.893 301.16C253.676 302.904 269.872 318.46 269.872 318.46C269.872 318.46 260.841 341.926 264.894 342.716C268.946 343.505 271.831 321.529 271.831 321.529C278.415 326.117 282.436 336.873 282.436 336.873C283.473 341.185 282.787 344.671 281.2 347.464Z" fill="#08C471"/>
<path d="M97.7215 81.33C107.404 64.6633 136.219 78.4373 136.219 78.4373C136.219 78.4373 148.348 115.433 154.135 117.793C159.922 120.152 149.951 84.1344 149.951 84.1344C161.852 86.1294 187.591 108.319 187.591 108.319C187.591 108.319 175.861 144.514 182.049 145.369C188.238 146.224 190.789 112.797 190.789 112.797C201.11 119.189 208.065 135.115 208.065 135.115C215.426 159.987 183.134 168.175 183.134 168.175C183.134 168.175 179.338 180.806 183.274 197.529C183.274 197.529 184.322 200.701 184.894 205.772L181.847 204.934C181.819 204.044 181.755 203.177 181.656 202.332C181.658 202.319 181.658 202.307 181.656 202.295C181.577 201.764 181.454 201.009 181.3 200.089C180.859 198.005 180.591 196.483 180.446 195.398C179.19 188.894 177.168 180.316 174.898 178.013C175.294 177.65 175.64 177.237 175.929 176.784L174.898 178.013C166.64 187.837 139.941 182.661 126.152 175.733C112.362 168.804 119.832 166.402 129.487 161.831C139.141 157.259 155.134 163.452 160.702 162.141C166.269 160.83 159.865 156.293 149.934 154.423C140.004 152.554 132.522 160.978 116.403 158.251C100.285 155.524 96.2577 122.712 96.2577 122.712C106.205 129.004 127.274 128.249 129.028 124.707C130.782 121.164 101.848 113.763 97.6617 111.423C93.4753 109.083 88.0274 97.9967 97.7215 81.33Z" fill="#08C471"/>
<path d="M320.575 165.857C331.832 150.336 358.955 166.846 358.955 166.846C358.955 166.846 367.263 204.663 372.753 207.578C378.244 210.494 371.959 173.854 371.959 173.854C383.535 177.024 406.788 201.548 406.788 201.548C406.788 201.548 391.566 236.189 397.604 237.663C403.641 239.136 409.519 206.313 409.519 206.313C419.094 213.669 424.385 230.124 424.385 230.124C429.187 255.469 396.419 260.334 396.419 260.334C396.419 260.334 391.404 272.455 393.625 289.404C393.625 289.404 394.346 292.647 394.406 297.72L391.458 296.6C391.518 295.717 391.544 294.853 391.529 294.007V293.97C391.501 293.437 391.458 292.679 391.395 291.752C391.165 289.646 391.051 288.113 391.025 287.024C390.43 280.469 389.285 271.771 387.269 269.275C387.695 268.953 388.078 268.579 388.408 268.16L387.269 269.275C378.116 278.169 352.217 270.378 339.265 262.15C326.313 253.922 333.943 252.286 343.95 248.729C353.957 245.172 369.165 252.896 374.807 252.149C380.448 251.402 374.562 246.281 364.925 243.44C355.287 240.598 347.04 248.188 331.363 243.873C315.685 239.558 314.979 206.695 314.979 206.695C324.192 213.914 345.115 215.273 347.205 211.942C349.296 208.61 321.421 198.418 317.511 195.697C313.6 192.975 309.32 181.387 320.575 165.857Z" fill="#08C471"/>
<path d="M395.613 327.973C395.613 327.973 391.529 342.3 392.315 347.866L376.857 347.823C376.532 344.688 377.293 341.268 379.904 337.771C379.904 337.771 387.807 329.552 395.613 327.973Z" fill="#08C471"/>
<path d="M454.248 348.028L395.636 347.874C397.957 341.966 398.606 325.947 398.606 325.947C398.606 325.947 419.487 318.158 427.264 319.639C427.264 319.639 412.931 339.527 417.012 339.39C421.093 339.253 436.987 319.258 436.987 319.258C436.987 319.258 457.839 317.34 460.014 329.803C461.982 340.992 457.446 346.643 454.248 348.028Z" fill="#08C471"/>
<path d="M577.34 348.356L521.861 348.208C525.458 346.669 530.151 345.221 535.192 343.497C547.817 339.179 565.021 345.121 577.34 348.356Z" fill="#08C471"/>
<path d="M605.532 348.587L555.312 348.453C556.36 346.227 549.953 341.673 540.677 338.814C528.87 335.178 518.623 344.386 499.415 338.851C480.206 333.317 479.824 292.904 479.824 292.904C491.042 301.916 516.744 303.899 519.361 299.832C521.978 295.765 487.867 282.826 483.099 279.418C478.332 276.009 473.243 261.771 487.308 242.858C501.374 223.946 534.475 244.639 534.475 244.639C534.475 244.639 544.129 291.254 550.833 294.919C557.537 298.584 550.354 253.452 550.354 253.452C564.542 257.516 592.762 288.01 592.762 288.01C592.762 288.01 573.536 330.37 580.937 332.268C588.339 334.166 596.048 293.893 596.048 293.893C607.724 303.078 613.97 323.382 613.97 323.382C616.026 334.998 611.731 343.052 605.532 348.587Z" fill="#08C471"/>
<path d="M131.813 218.844C131.813 218.739 130.281 215.57 130.768 215.327C131.255 215.085 132.129 215.119 132.229 215.675C132.329 216.231 131.813 218.844 131.813 218.844Z" fill="#FFB27D"/>
<path d="M108.942 179.44C108.942 179.44 99.9569 168.636 95.201 175.547C95.201 175.547 91.6526 177.021 90.3596 183.066C89.0525 189.233 93.1477 193.921 95.2693 192.755C96.6278 192.014 97.6559 194.394 97.6559 194.394L108.942 179.44Z" fill="#233862"/>
<path d="M120.083 236.93C127.228 234.297 134.106 222.067 134.106 222.067L131.853 220.489C129.976 223.236 121.538 228.508 121.538 228.508C121.344 226.194 121.065 224.094 120.718 222.193C118.374 209.265 113.014 205.435 111.576 204.623C111.46 204.554 111.339 204.492 111.215 204.438C111.215 204.438 111.215 204.534 111.215 204.722C111.235 205.11 111.28 205.897 111.357 206.968C111.929 214.965 114.117 239.133 120.083 236.93Z" fill="#FFB27D"/>
<path d="M96.1836 174.453C96.1836 174.453 94.9875 169.617 87.8679 171.13C87.8679 171.13 91.2625 170.7 92.1938 172.011C92.1938 172.011 89.5025 170.777 87.8166 171.808C86.1307 172.84 85.8544 176.317 86.1079 177.374C86.3613 178.432 88.221 181.581 89.4541 181.581C90.6872 181.581 92.1482 180.498 92.1482 180.498L96.1836 174.453Z" fill="#233862"/>
<path d="M85.564 250.131C89.0925 242.211 90.7812 239.971 90.8382 237.48C90.8866 235.511 89.9155 233.385 88.0302 228.172C87.5915 226.95 87.2767 225.687 87.0904 224.402C85.5981 214.353 91.4049 203.489 95.016 202.742C96.0185 202.477 97.7215 198.846 97.7015 192.998L98.1515 193.086L105.752 194.594C105.752 194.594 105.582 196.988 105.576 199.242C105.576 201.12 105.684 202.901 106.108 203.127C106.655 203.175 106.98 203.209 106.98 203.209C106.98 203.209 113.316 212.016 113.849 220.207C114.381 228.397 108.774 231.957 113.892 248.327C119.115 265.051 83.6132 254.506 85.564 250.131Z" fill="#FFB27D"/>
<path d="M105.752 194.599C105.752 194.599 105.581 196.993 105.576 199.248C101.321 199.128 99.0741 195.244 98.1514 193.092L105.752 194.599Z" fill="#E8945B"/>
<path d="M97.3682 192.266C97.3682 192.266 95.1383 188.74 94.6029 185.728C94.2213 183.576 95.3177 175.602 103.326 176.75C104.939 176.975 106.48 177.559 107.837 178.46C109.577 179.634 112.086 182.165 109.278 189.131L108.552 191.482L97.3682 192.266Z" fill="#233862"/>
<path d="M107.173 196.734C107.173 196.734 97.1119 196.9 97.1034 190.627C97.0948 184.354 95.7934 180.15 102.23 179.78C108.666 179.409 109.919 181.8 110.417 183.895C110.915 185.99 109.796 196.529 107.173 196.734Z" fill="#FFB27D"/>
<path d="M106.8 179.626C106.8 179.626 104.046 186.984 99.8287 188.087C95.611 189.19 93.7656 188.042 93.7656 188.042C95.8478 186.206 97.2288 183.704 97.6729 180.962C97.6729 180.962 104.721 176.117 106.8 179.626Z" fill="#233862"/>
<path d="M106.117 180.224C106.117 180.224 108.176 181.866 108.68 183.465C109.184 185.064 109.406 188.35 110.366 188.238C110.366 188.238 112.442 183.237 110.107 180.407C107.632 177.406 106.117 180.224 106.117 180.224Z" fill="#233862"/>
<path d="M94.472 326.123C96.0168 332.247 98.1404 338.209 100.814 343.93L104.135 343.699C104.135 343.699 102.506 335.953 102.6 325.485C102.665 318.166 103.571 309.525 106.459 301.26C116.389 272.883 114.783 252.24 114.783 252.24L96.1267 254.415L95.2581 254.517C95.1783 263.099 94.9733 274.752 94.7625 283.872C94.5917 292.066 94.4436 298.202 94.4436 298.202C90.8382 305.928 92.1397 316.849 94.472 326.123Z" fill="#08C471"/>
<path d="M72.4893 258.545L75.5108 259.451C75.5108 259.451 85.4783 242.904 86.3811 238.598C86.6659 237.195 87.4035 234.391 88.2493 231.247C89.9979 224.741 92.2562 216.778 92.2562 216.778L92.9995 213.552L95.537 202.56C95.537 202.56 90.6785 203.055 87.8478 204.244C86.9051 204.637 86.1875 205.099 85.9368 205.669C83.8522 210.26 81.7676 221.851 80.3038 230.119C79.4864 234.727 78.8628 238.304 78.5381 239.062C77.6154 241.165 74.8416 252.802 72.4893 258.545Z" fill="#FFB27D"/>
<path d="M83.7611 324.516C84.8347 335.981 89.5764 343.411 89.5764 343.411L91.1598 344.551C91.1598 344.551 92.6606 336.474 93.7229 326.861C94.7339 317.727 96.1208 308.052 97.6899 305.11C103.915 293.408 105.792 249.251 105.792 249.251L86.8595 248.31C84.9572 251.514 84.1256 256.766 83.9291 262.74C83.4307 277.816 86.9735 297.475 87.5003 300.317C87.5315 300.537 87.4873 300.761 87.375 300.952C83.5959 308.405 83.0548 316.941 83.7611 324.516Z" fill="#1C468A"/>
<path d="M106.501 180.472C106.501 180.472 104.536 188.167 99.2021 190.647C99.2021 190.647 104.536 185.913 104.989 180.826C105.442 175.738 106.501 180.472 106.501 180.472Z" fill="#233862"/>
<path d="M83.1915 255.849C83.1432 256.356 83.1827 256.868 83.3083 257.362C83.7098 258.633 85.0939 259.209 88.4344 258.864C90.4792 258.65 91.3905 255.221 91.7978 252.309C93.0242 256.489 94.7472 258.831 96.9666 259.334C100.207 260.058 116.563 262.047 117.634 254.267C118.81 245.717 115.284 230.558 115.09 222.387C115.526 219.888 115.725 217.354 115.683 214.817C115.546 208.998 113.84 205.734 112.527 204.423C112.157 204.138 111.784 203.959 110.292 203.702C109.529 203.571 108.472 203.417 106.977 203.226C106.778 203.2 106.579 203.183 106.379 203.178C106.664 203.674 110.366 209.286 110.081 210.73C109.779 212.241 96.642 210.882 95.7363 210.049C94.8307 209.217 93.3983 202.856 93.3983 202.856C93.3983 202.856 88.7449 203.363 86.4694 205.019L86.495 205.048C86.2504 205.209 86.0458 205.425 85.897 205.677C83.4678 210.306 81.0556 221.979 79.3469 230.304C83.4792 232.584 87.0902 231.906 88.2123 231.604C86.7286 241.182 83.408 251.479 83.1915 255.849Z" fill="#1C7CEE"/>
<path d="M131.853 220.489C131.853 220.178 131.594 215.678 132.394 214.735C133.194 213.791 134.826 212.455 135.342 212.486C135.857 212.517 137.865 215.199 137.261 217.248C136.657 219.297 134.106 222.068 134.106 222.068L131.853 220.489Z" fill="#FFB27D"/>
<path d="M128.168 214.989L132.825 216.385C132.98 216.432 133.144 216.344 133.19 216.188L135.851 207.302C135.898 207.147 135.809 206.983 135.654 206.936L130.998 205.54C130.842 205.494 130.679 205.582 130.632 205.737L127.972 214.623C127.925 214.779 128.013 214.942 128.168 214.989Z" fill="#F1A34F"/>
<path d="M129.395 215.35L133.619 216.615C133.684 216.635 133.752 216.642 133.82 216.635C133.888 216.628 133.954 216.608 134.014 216.576C134.074 216.544 134.127 216.5 134.17 216.447C134.213 216.394 134.246 216.333 134.265 216.268L136.797 207.812C136.836 207.68 136.821 207.539 136.756 207.418C136.691 207.297 136.581 207.207 136.449 207.168L132.223 205.9C132.092 205.861 131.95 205.875 131.83 205.94C131.709 206.006 131.619 206.116 131.58 206.247L129.048 214.703C129.009 214.835 129.023 214.977 129.088 215.098C129.154 215.219 129.264 215.31 129.395 215.35Z" fill="#08C471"/>
<path d="M83.7612 324.516C84.8349 335.981 89.5766 343.411 89.5766 343.411L91.1884 344.882C91.1884 344.882 92.6608 336.486 93.723 326.873C92.5896 326.941 87.6571 327.121 83.7612 324.516Z" fill="#FFB27D"/>
<path d="M94.4719 326.123C96.0166 332.247 98.1403 338.209 100.814 343.93L104.135 343.699C104.135 343.699 102.506 335.953 102.6 325.485C101.475 326.052 99.151 326.628 94.4719 326.123Z" fill="#D9935C"/>
<path d="M98.9032 346.714H101.022C101.734 346.603 102.258 346.395 102.984 346.301C104.089 346.156 104.599 346.609 104.693 346.714L104.713 346.734H113.712C113.94 346.412 113.712 345.663 113.51 345.11C113.437 344.924 113.322 344.758 113.173 344.624C113.025 344.491 112.848 344.393 112.655 344.34C111.701 344.055 109.808 343.816 108.099 342.257C107.131 341.379 103.42 339.034 103.42 339.034H103.4C103.317 339.034 102.93 339.156 101.241 340.581C100.37 341.317 98.8804 339.541 98.8804 339.541C98.676 339.728 98.5105 339.954 98.3934 340.205C98.1828 340.633 98.115 341.118 98.1998 341.587C98.3336 342.397 97.9007 343.907 97.5561 344.925C97.3454 345.543 97.1688 345.982 97.1688 345.982C97.1688 345.982 97.0834 346.486 98.9032 346.714Z" fill="#233862"/>
<path d="M98.4048 340.199C98.9117 340.556 99.9797 341.257 100.683 341.339C101.64 341.465 103.428 339.022 103.428 339.022H103.408C103.326 339.022 102.939 339.145 101.25 340.57C100.378 341.305 98.8889 339.53 98.8889 339.53C98.6849 339.719 98.5204 339.946 98.4048 340.199Z" fill="#A54646"/>
<path d="M98.9031 346.714H101.022C101.734 346.603 102.258 346.395 102.984 346.301C104.089 346.156 104.599 346.609 104.693 346.714L104.713 346.734H113.712C113.94 346.412 113.712 345.663 113.51 345.11C113.225 344.868 113.16 346.167 113.009 346.372C112.858 346.578 105.667 346.449 105.251 346.147C104.835 345.845 103.591 345.315 101.854 345.731C100.341 346.093 98.1143 345.161 97.5646 344.919C97.3539 345.537 97.1773 345.976 97.1773 345.976C97.1773 345.976 97.0834 346.486 98.9031 346.714Z" fill="#A54646"/>
<path d="M87.6001 346.714H89.7189C90.428 346.603 90.952 346.395 91.6782 346.301C92.786 346.156 93.293 346.609 93.3869 346.714L93.4069 346.734H102.406C102.631 346.412 102.406 345.663 102.201 345.11C102.129 344.924 102.014 344.757 101.865 344.623C101.717 344.49 101.539 344.393 101.347 344.34C100.393 344.055 98.5131 343.816 96.7901 342.257C95.819 341.379 92.1083 339.034 92.1083 339.034H92.0883C92.0057 339.034 91.6184 339.156 89.9296 340.581C89.0582 341.317 87.5716 339.541 87.5716 339.541C87.3667 339.728 87.2003 339.954 87.0818 340.205C86.8735 340.634 86.8067 341.118 86.891 341.587C87.0248 342.397 86.5919 343.907 86.2445 344.925C86.0338 345.543 85.8572 345.982 85.8572 345.982C85.8572 345.982 85.7775 346.486 87.6001 346.714Z" fill="#233862"/>
<path d="M87.1018 340.199C87.6087 340.556 88.6767 341.257 89.3801 341.339C90.3341 341.465 92.1226 339.022 92.1226 339.022H92.1026C92.0201 339.022 91.6328 339.145 89.944 340.57C89.0725 341.305 87.5859 339.53 87.5859 339.53C87.3825 339.719 87.218 339.947 87.1018 340.199Z" fill="#A54646"/>
<path d="M87.6002 346.714H89.719C90.4281 346.603 90.9521 346.395 91.6783 346.301C92.7861 346.156 93.293 346.609 93.387 346.714L93.407 346.734H102.406C102.631 346.412 102.406 345.663 102.201 345.11C101.916 344.868 101.851 346.167 101.7 346.372C101.549 346.578 94.3581 346.449 93.9423 346.147C93.5266 345.845 92.282 345.315 90.5477 345.731C89.0355 346.093 86.8085 345.161 86.256 344.919C86.0452 345.537 85.8687 345.976 85.8687 345.976C85.8687 345.976 85.7775 346.486 87.6002 346.714Z" fill="#A54646"/>
<path d="M111.969 204.144C111.969 204.144 118.234 207.305 120.333 220.058C120.333 220.058 118.28 222.88 115.384 223.712C114.964 223.833 114.532 223.907 114.097 223.931C110.54 224.12 111.969 204.144 111.969 204.144Z" fill="#1C7CEE"/>
<path d="M135.82 212.834C135.82 212.834 133.881 209.847 133.408 210.012C132.73 210.249 135.165 214.039 135.165 214.039C135.165 214.039 133.362 211.206 133.08 211.42C132.437 211.905 133.459 213.7 134.473 215.048C134.473 215.048 132.659 213.387 132.599 213.686C132.394 214.735 134.593 217.277 134.593 217.277L135.82 214.467V212.834Z" fill="#FFB27D"/>
<path d="M137.275 215.604C137.181 215.239 136.706 208.108 136.506 208.784C136.307 209.459 135.82 213.201 135.82 213.201L137.275 215.604Z" fill="#FFB27D"/>
<path d="M105.208 193.009C105.208 193.009 105.382 193.75 107.219 193.636C107.219 193.636 108.763 193.539 108.714 192.727C108.714 192.727 107.233 192.149 105.208 193.009Z" fill="#1C468A"/>
<path d="M72.4893 258.544C72.4893 258.544 68.8469 260.967 68.2887 261.99C67.7305 263.013 66.4319 266.775 66.4319 266.775C66.4319 266.775 67.3603 266.915 68.2887 265.287C69.2171 263.66 72.2757 263.803 73.3009 262.919C74.3261 262.036 75.5108 259.451 75.5108 259.451L72.4893 258.544Z" fill="#FFB27D"/>
<path d="M75.1008 260.249C75.1008 260.249 74.4942 263.099 73.7509 263.954C73.0076 264.809 71.9881 266.182 71.5694 265.809C71.1508 265.436 72.0337 262.326 72.0337 262.326L75.1008 260.249Z" fill="#FFB27D"/>
<path d="M68.7872 262.315C68.696 262.455 65.4922 265.86 65.4922 265.86C65.4922 265.86 66.6541 266.388 66.9788 265.86C67.3034 265.333 68.7872 262.315 68.7872 262.315Z" fill="#FFB27D"/>
<path d="M332.499 94.303L362.199 98.9171L342.62 85.2087L341.563 89.5122L334.31 90.7348L332.499 94.303Z" fill="#5C6571"/>
<path d="M362.199 98.9172L337.596 85.8386L313.347 84.3196L362.199 98.9172Z" fill="#1C468A"/>
<path d="M342.62 85.2087L362.199 98.9171L347.174 77.6819L342.62 85.2087Z" fill="#1C468A"/>
<path d="M767.327 179.631L743.006 183.103L759.145 172.096L759.965 175.624L765.88 176.696L767.327 179.631Z" fill="#5C6571"/>
<path d="M743.006 183.103L763.246 172.66L783.078 171.663L743.006 183.103Z" fill="#1C468A"/>
<path d="M759.145 172.096L743.006 183.103L755.5 165.897L759.145 172.096Z" fill="#1C468A"/>
<path d="M158.227 152.665H306.031V191.507H200.928V232.852H293.54V271.706H200.928V346.905H158.227V152.665Z" fill="#1C468A"/>
<path d="M370.33 156.512H408.656L489.632 346.945H446.174L428.899 304.538H349.016L331.741 346.945H289.354L370.33 156.512ZM414.056 267.801L388.952 206.484L363.851 267.801H414.056Z" fill="#1C468A"/>
<path d="M643.847 330.364C627.921 340.624 608.758 346.572 587.704 346.572C529.403 346.572 487.565 303.081 487.565 248.789C487.565 195.035 529.944 151.006 588.245 151.006C646.546 151.006 688.384 194.494 688.384 248.789C688.384 268.508 682.446 287.415 671.647 303.081L691.084 319.56L664.63 349.003L643.847 330.364ZM613.09 303.081C613.09 303.081 631.948 293.371 639.811 275.26C643.229 267.388 644.937 258.784 644.937 248.789C644.937 216.373 621.186 189.364 587.715 189.364C554.244 189.364 531.043 215.835 531.043 248.789C531.043 281.202 554.794 308.214 588.265 308.214C597.421 308.214 605.791 306.324 613.078 303.081H613.09Z" fill="#1C468A"/>
<path d="M589.988 245.956C589.988 245.956 586.801 250.676 584.984 260.594C583.395 269.277 582 272.487 579.701 274.273C577.403 276.06 564.608 281.313 564.608 281.313L565.565 283.559C565.565 283.559 584.332 280.994 586.439 277.859C588.547 274.724 596.583 256.173 595.96 251.901C595.336 247.629 589.988 245.956 589.988 245.956Z" fill="#F4A269"/>
<path d="M537.878 345.121C537.687 346.951 535.101 346.891 532.182 346.458C529.263 346.025 530.015 346.794 525.917 346.726C521.819 346.657 520.435 345.252 520.252 344.657C520.093 344.132 522.084 343.753 524.217 343.303C524.484 343.249 524.755 343.189 525.023 343.129C527.429 342.596 529.066 340.849 531.157 339.361C533.15 337.936 535.796 332.67 535.796 332.67L541.415 332.59C541.415 332.59 538.903 337.312 537.952 339.353C537.382 340.553 537.567 342.055 537.758 343.209C537.883 343.838 537.924 344.481 537.878 345.121Z" fill="#FFB27D"/>
<path d="M532.176 346.449C529.255 346.019 530.009 346.785 525.911 346.717C521.813 346.649 520.429 345.244 520.247 344.648C520.087 344.124 522.078 343.745 524.211 343.294L524.237 343.334C526.08 344.288 528.146 344.726 530.217 344.602C532.982 344.411 535.83 343.346 537.738 343.2C537.869 343.829 537.915 344.472 537.875 345.113C537.687 346.942 535.101 346.882 532.176 346.449Z" fill="#C65447"/>
<path d="M598.773 284.34C598.773 284.34 561.939 284.519 555.062 288.863C548.184 293.206 532.535 337.936 532.535 337.936C532.535 337.936 533.754 339.541 535.266 339.749C537.695 340.085 539.074 339.136 539.074 339.136C539.074 339.136 560.048 318.257 561.165 312.557C562.281 306.857 562.019 301.767 564.551 301.63C567.083 301.494 598.779 305.487 603.566 297.036C608.354 288.586 604.398 280.221 604.398 280.221L598.773 284.34Z" fill="#08C471"/>
<path d="M557.445 344.266C557.405 346.104 554.825 346.261 551.875 346.076C548.925 345.891 549.745 346.592 545.644 346.865C541.543 347.139 540.056 345.856 539.826 345.281C539.621 344.771 541.574 344.226 543.662 343.599C543.927 343.522 544.189 343.44 544.451 343.36C546.806 342.625 548.289 340.758 550.246 339.085C552.103 337.506 554.31 332.028 554.31 332.028L559.903 331.478C559.903 331.478 557.796 336.397 557.018 338.509C556.562 339.752 556.862 341.234 557.149 342.368C557.332 342.985 557.432 343.623 557.445 344.266Z" fill="#FFB27D"/>
<path d="M551.875 346.079C548.927 345.894 549.745 346.595 545.644 346.868C541.543 347.142 540.056 345.859 539.826 345.284C539.621 344.773 541.574 344.229 543.662 343.602L543.69 343.639C545.611 344.438 547.712 344.701 549.77 344.4C552.51 343.978 555.261 342.69 557.149 342.374C557.328 342.99 557.424 343.627 557.434 344.269C557.405 346.107 554.825 346.261 551.875 346.079Z" fill="#C65447"/>
<path d="M605.916 286.605C605.916 286.605 573.47 288.142 566.769 292.75C560.068 297.358 550.645 336.158 550.645 336.158C550.645 336.158 552.054 338.025 553.492 338.541C555.321 339.196 557.787 338.455 557.787 338.455C557.787 338.455 570.813 322.749 571.707 317.006C572.602 311.263 573.986 308.314 576.534 308.077C579.083 307.841 603.968 312.708 615.348 301.967C622.425 295.298 605.916 286.605 605.916 286.605Z" fill="#1C7CEE"/>
<path d="M594.809 243.36C594.18 242.254 593.425 240.265 592.881 236.668C592.953 237.024 593.881 241.544 595.806 244.009C603.319 248.262 615.191 264.224 615.117 267.234C615.117 267.234 622.411 257.573 622.491 257.516C622.491 257.516 630.695 245.509 619.643 239.68C614.021 236.719 613.765 232.453 613.742 228.736C613.719 225.02 610.96 209.188 600.42 214.082C600.42 214.082 598.631 213.424 597.857 213.592C598.214 213.637 598.554 213.772 598.845 213.985C597.586 213.985 595.798 214.204 594.357 215.156C590.538 217.676 588.339 238.15 594.809 243.36Z" fill="#B5453C"/>
<path d="M607.28 240.527C605.269 240.361 603.248 240.361 601.237 240.527C599.436 240.72 597.671 241.164 595.994 241.846C593.146 243.041 593.431 248.116 599.434 247.17C605.437 246.224 607.701 242.026 607.28 240.527Z" fill="#FFB27D"/>
<path d="M596.248 244.232C596.21 244.249 595.393 248.59 599.32 248.416C601.883 248.302 607.46 245.181 606.97 242.969C606.736 241.918 604.788 239.193 604.407 232.975L603.937 233.1L596.042 235.218C596.042 235.218 596.393 237.726 596.555 240.097C596.683 242.077 596.689 243.976 596.248 244.232Z" fill="#FFB27D"/>
<path d="M596.031 235.203C596.031 235.203 596.381 237.711 596.544 240.082C601.012 239.658 603.094 235.414 603.925 233.086L596.031 235.203Z" fill="#F4A269"/>
<path d="M604.694 232.157C604.694 232.157 606.793 228.292 607.143 225.083C607.394 222.803 605.682 214.475 597.335 216.248C595.654 216.597 594.072 217.32 592.707 218.363C590.959 219.722 588.495 222.566 591.936 229.694L592.867 232.12L604.694 232.157Z" fill="#B5453C"/>
<path d="M594.687 237.552C594.687 237.552 605.289 237.019 604.857 230.427C604.424 223.835 605.5 219.312 598.714 219.369C591.927 219.426 590.777 222.036 590.384 224.274C589.991 226.511 591.916 237.517 594.687 237.552Z" fill="#FFB27D"/>
<path d="M593.878 219.517C593.878 219.517 597.295 227.069 601.821 227.919C606.346 228.768 608.2 227.445 608.2 227.445C605.874 225.663 604.241 223.125 603.581 220.269C603.581 220.269 595.82 215.686 593.878 219.517Z" fill="#B5453C"/>
<path d="M594.638 220.098C594.638 220.098 592.588 221.974 592.172 223.689C591.756 225.405 591.751 228.882 590.734 228.819C590.734 228.819 588.199 223.689 590.449 220.554C592.85 217.24 594.638 220.098 594.638 220.098Z" fill="#B5453C"/>
<path d="M584.078 284.893C584.933 285.919 587.616 286.235 590.478 286.705C592.73 287.079 595.097 287.56 596.78 288.535C600.602 290.781 613.09 298.37 616.752 298.025C618.176 297.891 617.891 295.175 617.037 291.584C615.684 285.902 612.85 278.016 612.85 274.584C612.85 272.712 612.23 268.283 611.398 263.219C611.33 262.808 611.261 262.398 611.193 261.982C609.547 252.135 607.271 240.524 607.271 240.524C607.271 240.524 604.731 246.067 599.784 246.067C594.838 246.067 595.985 241.841 595.985 241.841C595.985 241.841 591.469 242.371 590.404 243.522C589.338 244.674 586.63 249.641 586.095 250.998C586.095 250.998 585.984 252.708 590.253 253.543C590.253 253.543 589.213 258.225 589.091 261.346C588.997 263.652 590.663 270.868 591.141 275.357C591.309 276.947 591.332 278.207 591.073 278.76C590.742 279.483 589.674 280.207 588.461 280.914C586.058 282.319 583.059 283.673 584.078 284.893Z" fill="#08C471"/>
<path d="M588.47 280.914C585.73 285.588 595.897 286.993 597.583 287.982C601.405 290.228 613.093 298.37 616.755 298.025C618.179 297.891 617.894 295.175 617.04 291.584C615.687 285.901 612.853 278.016 612.853 274.584C612.853 272.712 612.233 268.283 611.401 263.218L606.995 258.983C606.995 258.983 602.274 271.196 597.774 273.196C595.634 274.117 593.415 274.84 591.144 275.357C591.312 276.947 591.335 278.207 591.076 278.759C590.751 279.483 589.683 280.207 588.47 280.914Z" fill="#233862"/>
<path d="M608.633 244.178C608.633 244.178 612.4 241.898 616.037 246.233C619.674 250.567 613.448 281.618 608.063 283.211C602.083 284.984 584.753 282.926 584.753 282.926L585.087 280.219C585.087 280.219 603.521 276.682 604.287 275.696C605.053 274.71 606.719 244.679 608.633 244.178Z" fill="#FFB27D"/>
<path d="M607.28 240.527C607.28 240.527 615.015 241.228 617.262 243.773C619.509 246.318 620.166 253.218 620.166 253.218C620.166 253.218 613.352 258.724 605.144 256.586L607.28 240.527Z" fill="#08C471"/>
<path d="M586.585 280.059C586.585 280.059 580.581 278.896 579.903 279.187C579.226 279.477 575.452 282.869 575.84 283.547C576.227 284.226 577.776 284.71 579.516 284.117C581.256 283.524 585.035 283.245 585.713 282.373C586.391 281.501 586.585 280.059 586.585 280.059Z" fill="#FFB27D"/>
<path d="M581.752 287.902H591.97V286.694H581.752V287.902Z" fill="#79B6FF"/>
<path d="M583.925 287.737C583.825 287.338 574.527 272.735 574.527 272.735H553.849L564.221 287.346L583.925 287.737Z" fill="#79B6FF"/>
<path d="M583.053 287.902C582.954 287.503 573.63 272.735 573.63 272.735H553.854L563.722 287.902H583.053Z" fill="#B5453C"/>
<path d="M565.619 280.367C565.73 280.666 565.925 280.926 566.181 281.116C566.437 281.306 566.742 281.418 567.06 281.438C567.649 281.438 567.965 280.96 567.76 280.367C567.65 280.071 567.457 279.813 567.205 279.623C566.952 279.433 566.651 279.319 566.336 279.295C565.738 279.287 565.417 279.777 565.619 280.367Z" fill="#79B6FF"/>
<path d="M727.73 237.107C727.73 237.107 732.663 239.914 734.044 239.914C735.425 239.914 740.847 238.865 742.357 239.629C743.866 240.393 746.603 243.511 747.118 244.525C748.041 246.352 743.402 245.546 741.209 243.99C741.052 243.878 740.874 243.8 740.686 243.762C740.498 243.723 740.303 243.724 740.115 243.764C738.976 244.012 736.621 244.44 735.482 244.018C733.95 243.448 725.882 242.821 725.882 242.821L727.73 237.107Z" fill="#EA9963"/>
<path d="M690.19 198.877C690.19 198.877 695.316 235.252 703.774 238.509C707.952 240.116 726.417 243.762 731.879 244.129C731.879 244.129 733.218 243.041 732.893 238.62C732.893 238.62 713.545 231.512 710.797 227.645C706.707 221.894 713.337 204.141 708.202 198.738C703.068 193.334 694.43 191.014 690.19 198.877Z" fill="#1C7CEE"/>
<path d="M691.921 275.513C693.42 278.009 695.089 280.398 696.916 282.664C702.413 289.609 708.396 295.335 709.447 300.747C709.683 301.924 710.005 303.081 710.412 304.21C710.848 305.45 711.386 306.755 712.007 308.103C714.34 313.173 717.828 318.853 721.311 324.017C727.332 332.946 732.987 340.396 732.987 340.396L743.368 339.951C742.952 338.911 738.424 326.585 732.367 311.52L724.768 292.628L723.763 290.128L721.485 284.479C715.789 270.335 711.267 259.072 711.267 259.072C711.267 259.072 688.532 250.454 686.171 256.037C684.229 260.642 685.815 265.151 691.921 275.513Z" fill="#233862"/>
<path d="M733.306 338.506C733.306 338.506 733.839 347.079 735.496 347.202C735.715 347.219 743.903 347.219 743.903 347.219L754.352 347.159C754.352 347.159 754.284 344.637 751.219 344.104C748.155 343.571 743.052 341.425 741.2 337.384C739.264 333.134 733.306 338.506 733.306 338.506Z" fill="#08C471"/>
<path d="M696.418 311.543C696.418 311.543 688.658 315.216 689.159 316.804C689.227 317.015 692.263 324.621 692.263 324.621L696.199 334.311C696.199 334.311 698.511 333.314 697.873 330.278C697.235 327.243 697.329 321.691 700.391 318.474C703.612 315.085 696.418 311.543 696.418 311.543Z" fill="#08C471"/>
<path d="M699.183 320.098C699.183 320.098 694.826 315.687 694.031 312.765C694.031 312.765 709.02 298.188 714.377 294.648C720.528 290.587 724.521 290.564 723.535 289.566C720.3 286.306 693.134 276.796 688.712 269.902C687.398 267.881 686.435 265.652 685.864 263.31C684.861 259.106 685.653 256.205 685.653 256.205L719.446 255.227C719.446 255.227 744.57 281.307 744.427 291.137C744.262 301.742 699.183 320.098 699.183 320.098Z" fill="#08C471"/>
<path d="M710.19 196.586C703.355 198.353 692.021 192.026 692.021 192.026C692.021 192.026 696.421 189.068 698.053 182.564C698.135 182.239 698.209 181.903 698.275 181.558L701.786 180.811L707.009 185.494C706.856 187.269 706.597 189.033 706.235 190.778C706.123 191.361 705.992 191.986 705.842 192.653C707.519 193.687 708.993 195.02 710.19 196.586Z" fill="#FFB27D"/>
<path d="M684.779 224.943C685.758 238.122 684.471 258.165 685.582 261.637C686.541 264.632 697.463 262.851 701.815 261.851C703.429 261.48 705.383 260.953 707.402 260.329C713.032 258.582 719.169 256.091 719.827 254.241C719.854 254.172 719.874 254.1 719.887 254.027C719.948 253.773 719.948 253.507 719.887 253.252C719.668 252.312 718.822 251.291 718.722 248.957C718.611 246.349 718.628 243.28 718.531 239.98C718.531 239.606 718.531 239.202 718.48 238.84V238.706C718.48 238.635 718.48 238.566 718.48 238.495C718.386 234.813 718.195 230.942 717.97 227.095C717.831 224.684 717.666 222.296 717.478 220.01C716.985 214.105 716.324 208.855 715.447 205.538C714.023 200.123 710.859 196.597 707.989 194.01L705.91 192.228C703.592 192.733 700.849 192.397 698.369 191.222C695.686 189.946 694.758 189.034 694.29 189.378C688.085 194.166 683.64 208.829 684.779 224.943Z" fill="#1C7CEE"/>
<path d="M707.414 260.329C713.044 258.582 719.181 256.091 719.839 254.241C719.865 254.172 719.885 254.1 719.899 254.027C719.899 253.771 719.899 253.511 719.899 253.252C719.679 252.312 718.833 251.291 718.734 248.957C718.623 246.349 718.64 243.28 718.543 239.98C718.543 239.606 718.543 239.202 718.492 238.84V238.706C718.492 238.635 718.492 238.566 718.492 238.495L695.709 209.462C695.709 209.462 680.407 241.351 707.414 260.329Z" fill="#1C7CEE"/>
<path d="M707.009 185.482C706.856 187.257 706.597 189.022 706.235 190.766C701.137 189.119 698.83 184.496 698.053 182.553C698.135 182.228 698.209 181.891 698.275 181.546L701.786 180.8L707.009 185.482Z" fill="#EA9963"/>
<path d="M707.693 188.429C707.693 188.429 696.586 186.571 697.836 179.66C699.086 172.749 698.514 167.852 705.668 168.747C712.822 169.642 713.713 172.529 713.853 174.938C713.992 177.346 710.62 188.734 707.693 188.429Z" fill="#FFB27D"/>
<path d="M751.424 247.613L752.404 247.932L760.747 222.237L759.767 221.918L751.424 247.613Z" fill="black"/>
<path d="M724.098 247.332L752.422 247.936L752.458 246.24L724.134 245.637L724.098 247.332Z" fill="black"/>
<path d="M724.686 248.635C724.686 248.635 733.799 251.038 737.199 250.784C740.6 250.53 743.45 248.909 743.88 248.06C744.31 247.21 745.213 245.708 742.889 245.988C740.565 246.267 737.393 246.757 737.296 246.312C737.199 245.868 739.19 245.908 739.19 245.908C739.19 245.908 739.791 245.03 739.033 244.999C738.276 244.967 736.063 244.366 735.24 244.779C734.417 245.192 733.659 246.706 733.061 246.643C732.463 246.58 725.443 243.482 725.443 243.482L724.686 248.635Z" fill="#FFB27D"/>
<path d="M692.468 200.371C692.468 200.371 693.545 237.087 701.601 241.259C705.588 243.32 723.53 248.977 728.918 249.943C728.918 249.943 730.367 249.011 730.53 244.582C730.53 244.582 712.084 235.383 709.777 231.236C706.346 225.066 714.903 208.151 710.387 202.22C705.87 196.289 697.529 193.021 692.468 200.371Z" fill="#1C7CEE"/>
<path d="M698.053 182.553C698.053 182.553 697.925 180.181 699.386 178.825C699.386 178.825 698.879 176.445 699.818 176.055C700.758 175.664 700.958 177.662 701.385 177.349C701.812 177.035 703.734 175.545 704.557 173.359C705.38 171.173 712.907 173.823 713.784 174.214C714.661 174.604 717.486 173.159 718.028 171.985C718.028 171.985 716.461 170.731 715.749 169.79C715.037 168.85 710.108 162.5 703.219 164.301C696.33 166.103 695.387 169.397 695.777 172.219C696.167 175.04 695.231 181.606 698.053 182.553Z" fill="#08C471"/>
<path d="M485.283 207.675C484.526 209.71 483.216 212.073 481.84 212.66C480.977 212.993 480.215 213.546 479.63 214.264L478.369 213.535L476.865 212.66C476.865 212.66 476.902 212.492 476.973 212.218C477.045 211.945 477.161 211.571 477.312 211.152C477.448 210.96 477.535 210.738 477.566 210.505C477.598 210.271 477.572 210.034 477.492 209.813C477.344 209.387 477.29 208.934 477.334 208.485C477.378 208.036 477.52 207.602 477.748 207.214C478.229 206.513 478.696 204.785 478.987 204.837C479.69 204.956 478.639 207.333 478.941 207.775C479.004 207.892 479.108 207.98 479.233 208.023C479.359 208.066 479.495 208.06 479.616 208.006H479.63C481.604 207.151 483.996 202.457 485.041 203.09C485.452 203.318 485.605 206.809 485.283 207.675Z" fill="#FFB27D"/>
<path d="M478.454 210.508L480.926 212.247C481.011 212.306 481.115 212.329 481.216 212.311C481.318 212.293 481.408 212.236 481.467 212.153L487.801 203.135C487.86 203.051 487.883 202.947 487.865 202.845C487.848 202.744 487.791 202.653 487.707 202.594L485.235 200.855C485.151 200.796 485.047 200.773 484.945 200.791C484.844 200.809 484.754 200.865 484.694 200.949L478.36 209.967C478.302 210.051 478.278 210.155 478.296 210.257C478.314 210.358 478.371 210.449 478.454 210.508Z" fill="#08C471"/>
<path d="M480.718 212.101L482.168 213.119C482.199 213.142 482.235 213.159 482.273 213.168C482.311 213.178 482.35 213.179 482.389 213.172C482.427 213.165 482.464 213.151 482.496 213.129C482.529 213.108 482.557 213.08 482.578 213.047L489.02 203.879C489.064 203.814 489.081 203.735 489.068 203.657C489.054 203.58 489.01 203.511 488.946 203.466L487.496 202.448C487.465 202.425 487.43 202.408 487.392 202.399C487.354 202.389 487.314 202.388 487.276 202.395C487.237 202.402 487.201 202.416 487.168 202.438C487.135 202.459 487.108 202.487 487.086 202.52L480.647 211.688C480.623 211.719 480.606 211.755 480.596 211.793C480.587 211.832 480.586 211.871 480.592 211.91C480.599 211.949 480.614 211.986 480.635 212.019C480.657 212.052 480.685 212.08 480.718 212.101Z" fill="#233862"/>
<path d="M442.996 197.569C442.996 197.569 455.575 219.514 460.14 223.567L476.871 211.081C477.635 211.353 478.338 211.774 478.937 212.321C479.537 212.868 480.021 213.528 480.362 214.265C480.362 214.265 470.201 234.984 460.197 235.862C450.192 236.739 436.149 211.03 436.149 211.03L442.996 197.569Z" fill="#233862"/>
<path d="M414.517 346.905H407.255C406.341 346.409 405.526 345.272 405.262 343.574C404.909 341.231 402.283 339.954 401.716 338.036C401.149 336.118 404.057 333.422 404.057 333.422L404.544 332.795L405.051 332.142L409.872 333.282C409.872 333.282 409.992 334.422 410.066 335.899C410.117 336.953 410.146 338.179 410.086 339.247C409.944 341.812 410.801 344.554 413.07 345.053C414.754 345.406 414.68 346.412 414.517 346.905Z" fill="#233862"/>
<path d="M456.705 346.905H440.082C439.285 345.931 439.578 342.328 439.701 341.151C439.724 340.915 439.741 340.775 439.741 340.775C439.741 340.775 445.416 336.232 446.197 339.712C446.222 339.82 446.251 339.929 446.282 340.034C447.265 343.286 451.67 344.765 454.214 345.164C455.868 345.446 456.478 346.307 456.705 346.905Z" fill="#233862"/>
<path d="M453.533 254.059C453.533 254.059 452.679 264.82 451.659 277.753C450.281 295.326 448.626 316.909 448.461 320.999C448.176 328.098 447.037 339.455 447.037 339.455C447.037 339.455 444.343 342.154 438.949 341.017C438.949 341.017 434.145 324.804 432.772 307.65C432.752 307.365 432.729 307.08 432.709 306.795C431.431 289.33 429.446 252.56 429.446 252.56L453.533 254.059Z" fill="#1C7CEE"/>
<path d="M453.533 254.059C453.533 254.059 452.679 264.82 451.659 277.753L432.778 307.65C432.758 307.365 432.735 307.08 432.715 306.795C431.436 289.33 429.451 252.56 429.451 252.56L453.533 254.059Z" fill="#1C7CEE"/>
<path d="M449.603 255.347C449.603 255.347 434.068 294.32 423.853 312.631C413.637 330.943 410.448 336.058 410.448 336.058C410.448 336.058 404.595 333.716 404.063 332.117C404.063 332.117 407.967 296.76 414.808 288.142C418.675 283.271 423.215 268.656 423.428 263.543C423.642 258.431 424.809 248.316 424.809 248.316L449.603 255.347Z" fill="#1C7CEE"/>
<path d="M445.735 198.524C439.664 200.439 429.161 195.266 429.161 195.266C429.161 195.266 434.757 191.063 434.464 182.322L439.16 186.107L442.346 188.672C442.303 190.068 442.182 191.461 441.985 192.844C441.894 193.542 441.78 194.32 441.634 195.172C443.195 196.029 444.585 197.165 445.735 198.524Z" fill="#FFB27D"/>
<path d="M442.346 188.68C442.303 190.077 442.182 191.469 441.985 192.852C438.453 192.245 434.444 186.531 434.444 186.531C435.968 186.058 437.575 185.913 439.16 186.107L442.346 188.68Z" fill="#ED975D"/>
<path d="M444.203 188.535C444.203 188.535 434.176 190.202 433.236 183.938C432.296 177.674 430.366 173.678 436.728 172.338C443.09 170.999 444.702 173.213 445.519 175.228C446.336 177.243 446.786 187.939 444.203 188.535Z" fill="#FFB27D"/>
<path d="M454.208 254.954C454.032 255.11 453.805 255.197 453.57 255.199C451.292 255.167 444.642 256.436 439.017 255.857C434.276 255.401 430.078 253.996 425.573 251.973C424.975 251.705 423.596 250.969 423.627 250.3C423.647 249.567 423.719 248.504 423.81 247.165C424.129 242.508 424.687 234.499 424.143 225.263C424.046 223.541 423.995 221.839 423.989 220.155C423.944 207.635 426.424 196.623 431.394 192.895C431.821 192.59 434.435 193.867 436.836 195.053C438.861 196.053 441.166 196.332 443.372 195.845L445.468 197.7C448.031 200.074 450.819 203.298 452.035 208.197C453.069 212.364 453.675 219.882 454.011 227.665C454.162 231.196 454.296 234.756 454.316 238.133V238.253C454.344 238.586 454.344 238.954 454.344 239.287C454.481 247.957 454.359 254.831 454.208 254.954Z" fill="#08C471"/>
<path d="M423.81 247.165C424.129 242.508 424.687 234.499 424.143 225.263C424.046 223.541 423.995 221.839 423.989 220.155C426.065 215.114 427.763 211.457 427.763 211.457H432.997C432.997 211.457 436.836 237.691 423.81 247.165Z" fill="#233862"/>
<path d="M396.997 276.893L419.321 280.076C420.722 280.272 422.143 279.906 423.274 279.057C424.406 278.208 425.155 276.945 425.359 275.545L426.737 265.855C426.932 264.453 426.565 263.031 425.716 261.899C424.867 260.768 423.605 260.018 422.206 259.813L399.882 256.629C398.482 256.435 397.061 256.802 395.931 257.652C394.8 258.501 394.051 259.764 393.847 261.164L392.469 270.854C392.273 272.255 392.639 273.677 393.488 274.808C394.336 275.94 395.598 276.689 396.997 276.893Z" fill="#233862"/>
<path d="M423.468 262.708C423.152 261.913 422.652 261.205 422.008 260.643C421.364 260.08 420.596 259.679 419.766 259.474C419.596 259.431 419.424 259.398 419.25 259.374L414.805 258.741L415.09 256.652C415.154 256.189 415.032 255.718 414.751 255.345C414.469 254.971 414.052 254.724 413.589 254.657L412.43 254.492L407.762 253.825L406.908 253.705C406.445 253.641 405.975 253.763 405.601 254.044C405.228 254.326 404.981 254.744 404.914 255.207L404.629 257.296L396.957 256.202C395.55 256.006 394.123 256.375 392.988 257.23C391.852 258.085 391.102 259.355 390.9 260.762L389.504 270.557C389.309 271.965 389.678 273.394 390.532 274.53C391.386 275.666 392.655 276.417 394.061 276.619L416.346 279.797C416.73 279.853 417.12 279.866 417.507 279.834C418.108 279.789 418.697 279.64 419.247 279.395C420.082 279.028 420.809 278.455 421.361 277.729C421.912 277.003 422.27 276.148 422.4 275.245L423.796 265.453C423.93 264.525 423.817 263.578 423.468 262.708ZM406.031 255.347C406.048 255.205 406.11 255.073 406.209 254.971C406.308 254.868 406.437 254.8 406.577 254.777C406.643 254.767 406.711 254.767 406.777 254.777L407.768 254.916L411.442 255.444L413.435 255.729C413.522 255.74 413.605 255.768 413.681 255.812C413.756 255.856 413.822 255.914 413.875 255.983C413.928 256.053 413.967 256.132 413.989 256.216C414.011 256.301 414.017 256.389 414.005 256.475L413.72 258.564L405.746 257.424L406.031 255.347Z" fill="#08C471"/>
<path d="M413.973 248.065C413.973 248.065 412.803 249.627 412.754 250.251C412.441 254.486 414.372 255.07 409.368 257.422C409.368 257.422 407.232 258.237 407.198 256.567C407.164 254.897 408.679 254.879 408.403 252.557C408.081 249.878 408.118 249.852 409.872 248.453L411.034 246.526L413.973 248.065Z" fill="#FFB27D"/>
<path d="M410.994 249.262C412.291 249.486 413.609 249.559 414.922 249.482C414.922 249.482 420.518 232.182 421.238 230.603C421.959 229.025 437.87 210.317 437.87 210.317L431.246 193.728C431.246 193.728 414.047 222.478 412.302 226.502C409.414 233.18 408.414 248.162 408.414 248.162C409.194 248.694 410.071 249.068 410.994 249.262Z" fill="#08C471"/>
<path d="M433.228 183.334C433.228 183.334 434.256 183.163 434.082 181.743C433.908 180.324 433.917 178.472 435.07 178.816C436.224 179.161 436.281 180.085 436.753 179.546C437.226 179.007 437.235 176.736 440.663 176.579C444.092 176.422 445.485 177.614 447.08 176.913C448.674 176.211 448.76 173.795 448.76 173.795C448.76 173.795 448.304 174.65 447.621 174.935C447.621 174.935 450.281 171.295 447.199 168.799C444.118 166.302 440.98 167.944 439.2 168.043C435.272 168.28 432.735 168.517 431.453 171.099C430.172 173.681 430.707 180.848 433.228 183.334Z" fill="#08C471"/>
<path d="M412.125 249.932C412.125 249.932 413.264 251.109 413.324 251.599C413.555 253.172 414.079 253.853 413.817 254.024C413.27 254.378 412.546 253.215 412.199 252.169C411.998 251.44 411.973 250.673 412.125 249.932Z" fill="#FFB27D"/>
<path d="M835.055 346.72H25.9299C25.4077 346.72 24.9844 347.144 24.9844 347.666V348.054C24.9844 348.576 25.4077 349 25.9299 349H835.055C835.577 349 836 348.576 836 348.054V347.666C836 347.144 835.577 346.72 835.055 346.72Z" fill="#2E3552"/>
<path d="M223.087 143.343C226.428 149.544 230.845 152.656 230.845 152.656H249.227C249.227 152.656 220.541 138.62 223.087 143.343Z" fill="#233862"/>
<path d="M235.891 190.983C236.103 191.231 236.239 191.535 236.284 191.858C236.329 192.181 236.28 192.51 236.144 192.807C235.674 194.004 234.191 195.315 232.476 196.62C232.257 196.788 232.061 196.939 231.907 197.082L231.773 197.193C231.739 197.221 231.707 197.253 231.673 197.278C230.067 198.681 230.648 199.028 227.755 201.881C224.457 205.136 222.247 205.136 221.626 204.814C221.102 204.529 222.23 202.799 223.48 200.824C223.543 200.73 223.602 200.636 223.662 200.539C223.83 200.279 223.995 200.014 224.161 199.752C225.627 197.395 225.3 196.261 225.063 192.687C224.85 189.797 220.979 176.402 220.979 176.402L227.156 175.51C227.156 175.51 228.717 186.146 230.713 187.831C231.781 188.728 232.992 188.774 234.031 189.447C234.105 189.492 234.176 189.541 234.245 189.589C234.854 189.978 235.407 190.446 235.891 190.983Z" fill="#FFB27D"/>
<path d="M235.891 190.983C236.103 191.231 236.239 191.535 236.284 191.858C236.329 192.181 236.28 192.51 236.144 192.807C235.575 194.001 234.131 195.306 232.471 196.606C232.254 196.777 232.063 196.934 231.901 197.082L231.767 197.193C231.733 197.221 231.702 197.253 231.668 197.278C230.061 198.681 230.642 199.028 227.749 201.881C224.451 205.136 222.241 205.136 221.62 204.814C221.096 204.529 222.224 202.799 223.474 200.824C225.743 200.01 227.755 198.61 229.307 196.765C231.3 194.352 232.681 191.217 234.046 189.418C234.12 189.464 234.191 189.512 234.259 189.561C234.865 189.959 235.414 190.437 235.891 190.983Z" fill="#233862"/>
<path d="M186.432 185.79C185.999 187.677 183.299 187.287 180.304 186.466C177.308 185.645 177.994 186.543 173.708 185.95C169.422 185.357 168.16 183.715 168.046 183.071C167.947 182.501 170.077 182.359 172.361 182.157C172.646 182.134 172.93 182.105 173.215 182.077C175.798 181.826 177.729 180.216 180.101 178.913C182.351 177.682 185.797 172.504 185.797 172.504L191.681 173.134C191.681 173.134 188.457 177.753 187.207 179.765C186.469 180.948 186.463 182.541 186.518 183.772C186.577 184.446 186.549 185.124 186.432 185.79Z" fill="#FFB27D"/>
<path d="M180.304 186.466C177.302 185.645 177.994 186.543 173.708 185.95C169.422 185.357 168.16 183.715 168.046 183.071C167.947 182.501 170.077 182.359 172.361 182.156L172.381 182.202C174.192 183.436 176.303 184.156 178.489 184.285C181.406 184.436 184.518 183.684 186.532 183.772C186.587 184.446 186.553 185.125 186.432 185.79C185.999 187.677 183.305 187.286 180.304 186.466Z" fill="#233862"/>
<path d="M210.061 148.666L215.167 163.663L221.84 183.242C223.122 183.373 224.417 183.29 225.673 182.997C227.407 182.544 229.421 181.287 229.421 181.287C229.421 181.287 227.997 160.417 224.579 148.367C223.711 145.286 222.708 142.773 221.566 141.348C215.973 134.354 210.061 148.666 210.061 148.666Z" fill="#233862"/>
<path d="M216.306 125.239C219.951 124.174 230.212 125.952 240.513 128.26L242.777 124.744L265.178 123.604C265.178 123.604 272.107 140.173 267.787 150.493C267.152 152.009 266.03 152.685 264.016 152.662H263.618C263.618 152.662 250.309 152.779 245.992 152.662C234.885 152.357 222.665 144.152 221.071 143.787C218.456 143.189 217.263 148.421 214.483 153.87C211.704 159.319 189.12 177.651 189.12 177.651C189.12 177.651 185.726 177.594 184.339 177.029C182.847 176.422 182.317 175.673 182.317 175.673C182.317 175.673 208.09 127.648 216.306 125.239Z" fill="#08C471"/>
<path d="M243.74 93.9411C251.58 98.5438 267.479 108.077 267.565 108.02C267.565 108.02 273.44 110.42 276.866 108.274C282.582 104.697 285.862 94.7419 275.835 85.8243C270.834 81.3755 267.226 80.227 266.861 73.3329C266.662 69.5937 261.9 57.1364 253.4 58.0456C252.69 58.1328 251.975 58.1605 251.261 58.1282C249.753 58.0394 248.251 58.3835 246.932 59.12C242.059 61.8474 231.853 91.9176 243.74 93.9411Z" fill="#233862"/>
<path d="M250.512 90.3899C250.477 90.4127 254.39 91.869 257.062 90.7718C259.576 89.7401 261.573 85.6988 261.536 85.696C260.397 85.6105 259.192 84.5873 258.403 78.0723L257.919 78.2319L249.754 80.928C249.754 80.928 250.27 83.5442 250.583 86.0294C250.845 88.1128 250.962 90.1077 250.512 90.3899Z" fill="#FFB27D"/>
<path d="M249.754 80.9281C249.754 80.9281 250.27 83.5444 250.583 86.0296C255.253 85.3171 257.207 80.7314 257.93 78.2349L249.754 80.9281Z" fill="#ED975D"/>
<path d="M248.487 83.473C248.487 83.473 259.594 82.2874 258.759 75.3705C257.925 68.4536 258.782 63.6428 251.64 64.1074C244.497 64.5719 243.452 67.3792 243.173 69.756C242.894 72.1329 245.565 83.6041 248.487 83.473Z" fill="#FFB27D"/>
<path d="M243.68 65.9913C243.68 65.9913 250.603 72.3012 255.413 72.9253C260.223 73.5495 262.088 72.0504 262.088 72.0504C260.211 70.2735 258.718 68.1297 257.703 65.7519C257.472 65.1928 257.097 64.7053 256.615 64.3401C256.134 63.9748 255.563 63.745 254.963 63.6743C251.528 63.2839 245.004 62.9732 243.68 65.9913Z" fill="#233862"/>
<path d="M248.125 65.5638C248.125 65.5638 245.69 67.7953 244.899 69.4768C244.133 71.1013 243.808 75.0229 244.329 76.6018C244.329 76.6018 240.829 69.3115 243.016 65.8744C245.354 62.2265 248.125 65.5638 248.125 65.5638Z" fill="#233862"/>
<path d="M240.741 106.464C240.456 128.91 240.351 124.213 242.734 126.414C243.304 126.941 244.964 127.291 247.146 127.497C254.009 128.141 266.124 127.337 266.619 126.072C268.328 121.717 267.243 120.318 268.747 113.62C268.906 112.908 269.097 112.135 269.316 111.297C270.546 106.7 271.663 105.156 267.952 97.6174C264.586 90.7775 261.049 85.2257 260.71 85.4138C251.195 90.7205 250.569 86.0237 250.569 86.0237C250.569 86.0237 240.875 95.5141 240.741 106.464Z" fill="#1C468A"/>
<path d="M215.167 163.663L221.84 183.242C223.122 183.373 224.417 183.291 225.673 182.997C227.407 182.544 229.421 181.287 229.421 181.287C229.421 181.287 227.997 160.417 224.579 148.367L215.167 163.663Z" fill="#08C471"/>
<path d="M250.583 86.0266C250.583 86.0266 240.9 87.3974 239.659 91.5185C238.417 95.6396 231.092 119.862 231.092 119.862C231.092 119.862 235.965 120.876 238.292 118.673C240.618 116.47 246.736 97.8683 246.736 97.8683L250.583 86.0266Z" fill="#1C468A"/>
<path d="M247.157 127.494C254.02 128.138 266.135 127.334 266.631 126.069C268.339 121.714 267.254 120.315 268.758 113.617L265.697 104.181C265.697 104.181 265.961 114.604 262.823 117.257C259.685 119.91 250.124 122.196 248.584 124.442C247.907 125.352 247.421 126.39 247.157 127.494Z" fill="#08C471"/>
<path d="M255.154 123.333C255.154 123.333 248.413 121.637 247.302 122.21C246.192 122.783 243.455 124.903 243.102 125.656C242.748 126.408 245.554 125.143 246.459 124.926C247.049 124.786 248.569 125.362 249.324 125.636C252.497 126.776 254.473 126.294 254.473 126.294L255.154 123.333Z" fill="#FFB27D"/>
<path d="M260.733 85.4111C260.733 85.4111 269.826 86.2205 272.859 90.7064C277.131 97.022 285.213 123.661 280.073 127.044C274.277 130.854 254.183 127.383 254.183 127.383C254.183 127.383 253.596 124.222 254.573 122.729C255.55 121.235 270.806 119.195 271.518 118.514C272.23 117.833 263.131 104.6 263.188 102.497C263.245 100.393 260.733 85.4111 260.733 85.4111Z" fill="#1C468A"/>
<path d="M246.921 124.088C246.921 124.088 245.451 125.884 244.978 126.083C244.74 126.203 244.472 126.253 244.207 126.226L245.212 124.516L246.921 124.088Z" fill="#FFB27D"/>
<path d="M247.302 122.21L243.116 124.105C243.194 124.207 243.297 124.287 243.416 124.337C243.534 124.387 243.663 124.406 243.791 124.39C244.301 124.39 245.596 123.946 245.596 123.946L247.302 122.21Z" fill="#FFB27D"/>
<path d="M244.902 128.902L212.22 128.01L203.052 103.275L235.686 104.164L244.902 128.902Z" fill="#1C7CEE"/>
<path d="M211.861 127.046L255.02 128.223L254.994 129.175L212.219 128.01L211.861 127.046Z" fill="#1C7CEE"/>
<path d="M220.803 116.003C220.578 115.134 221.088 114.452 221.942 114.475C222.394 114.512 222.823 114.686 223.173 114.974C223.523 115.262 223.777 115.649 223.901 116.085C224.126 116.94 223.617 117.636 222.762 117.613C222.311 117.576 221.881 117.402 221.531 117.114C221.181 116.826 220.927 116.439 220.803 116.003Z" fill="#1C468A"/>
</g>
<defs>
<clipPath id="clip0_56_256">
<rect width="836" height="349" fill="white"/>
</clipPath>
</defs>
</svg>
