<svg width="392" height="324" viewBox="0 0 392 324" fill="none" xmlns="http://www.w3.org/2000/svg">
<path d="M18.42 226.45H62.42C62.42 226.45 64.24 217.34 56.05 220.98C56.05 220.98 54.53 208.85 43.91 216.43C43.91 216.43 33.29 208.48 31.47 220.19C31.47 220.15 18.42 214.91 18.42 226.45Z" fill="#F9FBFC"/>
<path d="M337.13 117.42H391.61C391.61 117.42 389.36 106.68 379.49 110.42C379.49 110.42 376.2 95.42 364.27 105.01C364.27 105.01 350.7 94.73 347.82 110.42C347.82 110.45 335.49 108.71 337.13 117.42Z" fill="#F9FBFC"/>
<path d="M195.97 323.92C281.828 323.92 351.43 254.318 351.43 168.46C351.43 82.6018 281.828 13 195.97 13C110.112 13 40.51 82.6018 40.51 168.46C40.51 254.318 110.112 323.92 195.97 323.92Z" fill="#97E4DB"/>
<mask id="mask0_28_4" style="mask-type:luminance" maskUnits="userSpaceOnUse" x="40" y="13" width="312" height="311">
<path d="M195.97 323.92C281.828 323.92 351.43 254.318 351.43 168.46C351.43 82.6018 281.828 13 195.97 13C110.112 13 40.51 82.6018 40.51 168.46C40.51 254.318 110.112 323.92 195.97 323.92Z" fill="white"/>
</mask>
<g mask="url(#mask0_28_4)">
<path d="M3.12 53.15C20.69 46.82 50.93 55.7299 58.65 59.5099C66.37 63.2899 75.29 61.3199 82.98 54.3499C90.67 47.3799 90.76 57.5999 99.16 56.7799C107.56 55.9599 102.97 41.94 110.88 40.91C118.79 39.88 137.32 54 144.26 60.91C151.2 67.82 144.9 81.91 137.41 79.09C129.92 76.27 123.57 74.39 126.85 70.77C130.13 67.15 132.29 64.1999 126.13 59.1699C119.97 54.1399 108.57 48.65 110.97 56.51C113.37 64.37 102.03 62.6299 107.8 67.9199C113.57 73.2099 109.72 76.0599 101.8 73.5699C93.88 71.0799 87.8 73.7699 85.69 85.4799C83.58 97.1899 101.24 94.5799 106.2 99.7099C111.16 104.84 111.79 111.71 116.87 108.55C121.95 105.39 115.7 100.7 121.74 95.5499C127.78 90.3999 114.6 82.89 119.08 78.7C123.56 74.51 136.16 93.9099 139.93 87.5799C143.7 81.2499 150.39 92.9299 159.15 101.69C167.91 110.45 161.97 111.45 151.97 112.37C141.97 113.29 145.56 116.23 151.97 119.54C158.38 122.85 151.27 127.39 142.78 126.98C134.29 126.57 132.78 131.54 128.3 138.92C123.82 146.3 116.11 151.06 112.59 156.74C109.07 162.42 115.41 172.38 112.08 173.74C108.75 175.1 108.15 167.41 99.2 163.66C90.25 159.91 83.77 164.36 83.54 174.95C83.31 185.54 90.87 184.05 94.79 187.56C98.71 191.07 107.44 186.86 107.87 195.56C108.3 204.26 115.41 201.19 119.1 203.77C122.79 206.35 127.91 198.95 141.7 197.41C155.49 195.87 169.27 208 174.27 219.15C179.27 230.3 191.27 224.92 200.2 229.85C209.13 234.78 197.51 246.85 194.43 257.92C191.35 268.99 132.24 347.02 127.6 333.98C122.96 320.94 132.71 293.59 134.6 278.59C136.49 263.59 128.42 254.2 120.76 246.34C113.1 238.48 113.76 222.14 118.03 216.5C122.3 210.86 120.72 205.27 111.4 206.05C102.08 206.83 104.13 194.69 91 191.52C77.87 188.35 66.64 187.66 65.25 179.94C63.86 172.22 48.36 148.76 50.12 157.74C51.88 166.72 59.61 180.63 51.68 170.97C43.75 161.31 25.39 137.97 28.52 124.87C31.65 111.77 10.39 115.02 8.05 101.35C5.71 87.6799 -7.43 81.22 -31.38 88.78C-55.33 96.34 -62.72 68.3999 -55.14 59.4599C-38.89 40.2799 -14.46 59.43 3.12 53.15ZM170.12 2.29995C144.02 8.81995 117.97 27.66 135.47 29.36C152.97 31.06 162.57 26.99 163.22 45.9C163.87 64.81 171.14 100.41 185.67 81.3299C200.2 62.2499 203.48 57.54 217.78 56.73C232.08 55.92 237.97 36.37 233.71 25.98C229.45 15.59 240.71 9.37995 248.92 7.09995C257.13 4.81995 241.17 -15.5901 170.17 2.24995L170.12 2.29995ZM306.67 50.82C293.03 55.0599 296.49 64.6099 286.23 70.0999C275.97 75.5899 269.48 84.3099 272.97 89.3299C276.46 94.3499 283.8 82.42 285.4 89.47C287 96.52 295.47 97.6299 296.74 84.1499C298.01 70.6699 309.82 63.5999 310.01 68.4199C310.2 73.2399 301.91 75.4199 303.59 80.9999C305.27 86.5799 319.81 79.6799 319.22 83.9999C318.63 88.3199 306.86 87.7199 302.75 94.7999C298.64 101.88 288.81 104.86 283.75 102.35C278.69 99.8399 283.95 90.3499 278.91 92.4599C273.87 94.5699 277.1 101.31 273.58 104.78C270.06 108.25 268.08 112.58 263.23 113.88C258.38 115.18 249.23 116.35 255.45 119.78C261.67 123.21 260.25 127.33 254.64 129.6C249.03 131.87 245.35 126.18 244.26 131.6C243.17 137.02 244.34 149.07 254.18 143.87C264.02 138.67 266.27 128.87 274.1 128.87C281.93 128.87 278.66 133.99 285.29 134.56C291.92 135.13 292.01 141.8 291.66 143C291.31 144.2 294.49 142.84 294.84 140.62C295.19 138.4 292.52 135.77 294.96 136.62C297.4 137.47 298.55 137.44 294.02 134.53C289.49 131.62 284.18 122.26 288.81 125.22C292.405 127.489 295.756 130.123 298.81 133.08C301.28 135.45 298.47 136.36 302.68 140.59C306.89 144.82 305.52 141.67 306.62 137.45C307.72 133.23 315.01 132.02 314.28 136.97C313.55 141.92 318.5 147.14 326.35 145.51C334.2 143.88 332.1 145.8 329.81 152.4C327.52 159 326.15 158.73 314.65 157.23C303.15 155.73 298.58 154.9 294.36 159.23C290.14 163.56 277.86 156.44 280.69 151.14C283.52 145.84 278.06 143.14 267.18 146.08C256.3 149.02 252.71 144.54 247.73 150.56C242.75 156.58 228.97 169.75 230.31 184.89C231.65 200.03 233.31 214.96 253.83 211.13C274.35 207.3 272.69 206.83 271.98 214.33C271.27 221.83 285.4 217.06 280.33 224.83C275.26 232.6 291.88 239.83 286.5 246.9C281.12 253.97 287.84 296.95 301.28 292.9C314.72 288.85 346.79 268.12 341.71 252.9C336.63 237.68 337.71 230.78 347.71 221C357.71 211.22 365.71 195.67 358.07 198.69C350.43 201.71 343.42 205.02 338.5 197.27C333.58 189.52 323.57 169.13 328.57 167.96C333.57 166.79 340.87 185.29 344.25 191.5C347.63 197.71 358.01 195 367.35 188.16C376.69 181.32 378.57 177.8 372.01 174.75C365.45 171.7 363.01 176.58 358.93 168.86C354.85 161.14 361.18 161.99 364.13 166.03C367.08 170.07 375.66 170.3 381.8 168.43C387.94 166.56 401 171.91 402.21 179.43C403.42 186.95 411.75 212.95 418.48 196.43C425.21 179.91 436.48 169.76 439.97 181.75C443.46 193.74 483.97 214.9 474.28 198.23C464.59 181.56 462.52 179.91 480.28 178.97C498.04 178.03 504.99 163.77 498.28 154.85C491.57 145.93 509.71 133.93 521.95 131.49C534.19 129.05 546.95 108.85 534.81 104.07C522.67 99.2899 532.56 88.23 546.49 88.78C560.42 89.33 563.49 90.39 569.34 84.06C575.19 77.73 581.07 78.0599 585.87 86.8999C590.67 95.7399 626.16 77.0599 630.87 69.8999C635.58 62.7399 568.45 43.01 548.44 46.04C528.43 49.07 520.79 54.49 509.31 45.72C497.83 36.95 475.31 14.72 436.42 32.04C397.53 49.36 379.22 56.0399 364.54 59.6399C349.86 63.2399 332.61 78.9099 329.54 73.7499C326.47 68.5899 324.79 64.4099 333.06 65.7499C341.33 67.0899 345.01 62.34 334 55.75C322.99 49.16 314.48 48.39 306.67 50.82ZM253.67 90.34C248.08 92.42 251.73 96.09 254.58 100.34C257.43 104.59 255.77 105.43 252.58 109.13C249.39 112.83 259.84 114.7 265.41 108.13C270.98 101.56 259.29 88.26 253.69 90.34H253.67ZM245.25 99.34C239.78 101.04 237.33 108.94 245.25 107C253.17 105.06 251.83 97.31 245.27 99.34H245.25Z" fill="#077265"/>
<g style="mix-blend-mode:multiply">
<path d="M184.33 138.44C183.271 138.038 182.384 137.282 181.82 136.3C181.44 136.815 180.95 137.24 180.387 137.544C179.823 137.849 179.199 138.025 178.56 138.06C177.884 138.114 177.207 137.982 176.6 137.679C175.994 137.376 175.482 136.913 175.12 136.34C176.275 136.297 177.399 135.953 178.38 135.34C177.134 135.626 175.846 135.681 174.58 135.5C173.542 135.015 172.669 134.236 172.07 133.26C172.07 133.26 169.78 135.4 167.69 135.56C166.633 135.691 165.56 135.599 164.54 135.29C165.011 135.734 165.583 136.057 166.207 136.231C166.83 136.405 167.487 136.425 168.12 136.29C169.385 136.147 170.578 135.624 171.54 134.79C172.364 135.676 173.485 136.227 174.69 136.34H175.04C174.68 136.62 172.55 138.21 170.61 138.12C170.015 138.107 169.433 137.937 168.925 137.626C168.418 137.315 168.002 136.875 167.72 136.35C167.72 136.35 165.85 138.7 164.04 138.76C162.973 138.798 161.935 138.413 161.15 137.69C161.414 138.168 161.801 138.568 162.27 138.849C162.738 139.13 163.273 139.282 163.82 139.29H163.97C163.14 140.254 161.975 140.865 160.71 141C159.724 141.017 158.745 140.836 157.83 140.47C157.83 140.47 158.42 141.69 160.93 141.75C161.608 141.8 162.287 141.667 162.897 141.367C163.507 141.066 164.026 140.608 164.4 140.04C164.696 140.602 165.155 141.061 165.718 141.356C166.281 141.65 166.92 141.767 167.55 141.69C168.186 141.73 168.823 141.61 169.401 141.341C169.979 141.072 170.481 140.662 170.86 140.15C171.181 140.652 171.625 141.062 172.151 141.342C172.676 141.623 173.265 141.763 173.86 141.75C175.061 141.676 176.212 141.248 177.17 140.52C177.17 140.52 174.71 141.43 173.49 141C172.706 140.622 172.052 140.02 171.61 139.27C172.832 139.164 173.982 138.646 174.87 137.8C175.371 138.348 175.995 138.768 176.69 139.027C177.386 139.287 178.133 139.376 178.87 139.29C180.069 139.142 181.17 138.554 181.96 137.64C182.245 138.083 182.622 138.46 183.065 138.745C183.509 139.03 184.008 139.216 184.53 139.29C185.038 139.268 185.537 139.144 185.996 138.924C186.455 138.704 186.865 138.393 187.2 138.01C186.307 138.434 185.308 138.583 184.33 138.44ZM167.13 140.57C166.62 140.573 166.117 140.451 165.665 140.213C165.213 139.976 164.827 139.632 164.54 139.21C165.558 138.923 166.475 138.359 167.19 137.58C168.15 138.511 169.384 139.107 170.71 139.28C169.733 140.165 168.447 140.629 167.13 140.57Z" fill="#39EAFF"/>
<path d="M217.33 191.89C216.271 191.488 215.384 190.732 214.82 189.75C214.442 190.267 213.953 190.694 213.389 190.998C212.825 191.303 212.2 191.477 211.56 191.51C210.884 191.564 210.207 191.432 209.6 191.129C208.994 190.826 208.482 190.363 208.12 189.79C209.276 189.753 210.402 189.408 211.38 188.79C210.133 189.071 208.846 189.125 207.58 188.95C206.543 188.46 205.67 187.678 205.07 186.7C205.07 186.7 202.78 188.84 200.7 189C199.643 189.132 198.569 189.04 197.55 188.73C198.02 189.172 198.59 189.494 199.212 189.669C199.834 189.843 200.488 189.864 201.12 189.73C202.385 189.587 203.578 189.064 204.54 188.23C205.368 189.11 206.487 189.661 207.69 189.78H208.04C207.68 190.05 205.56 191.65 203.61 191.55C203.016 191.538 202.435 191.37 201.927 191.06C201.42 190.751 201.003 190.313 200.72 189.79C200.72 189.79 198.85 192.14 197.04 192.19C195.973 192.228 194.935 191.844 194.15 191.12C194.414 191.598 194.801 191.998 195.27 192.279C195.738 192.56 196.273 192.712 196.82 192.72H196.97C196.146 193.69 194.977 194.303 193.71 194.43C192.724 194.447 191.745 194.266 190.83 193.9C190.83 193.9 191.42 195.13 193.93 195.18C194.608 195.23 195.287 195.097 195.897 194.797C196.507 194.496 197.026 194.038 197.4 193.47C197.696 194.032 198.156 194.491 198.718 194.788C199.28 195.084 199.919 195.203 200.55 195.13C201.187 195.169 201.824 195.047 202.402 194.777C202.981 194.506 203.482 194.094 203.86 193.58C204.179 194.083 204.623 194.495 205.149 194.775C205.675 195.056 206.264 195.195 206.86 195.18C208.061 195.106 209.212 194.678 210.17 193.95C210.17 193.95 207.71 194.86 206.49 194.43C205.706 194.052 205.052 193.45 204.61 192.7C205.833 192.599 206.985 192.08 207.87 191.23C208.371 191.778 208.995 192.198 209.69 192.458C210.386 192.717 211.133 192.807 211.87 192.72C213.071 192.57 214.175 191.983 214.97 191.07C215.252 191.514 215.627 191.891 216.069 192.176C216.511 192.46 217.009 192.646 217.53 192.72C218.039 192.701 218.539 192.577 218.998 192.357C219.457 192.137 219.866 191.825 220.2 191.44C219.309 191.871 218.31 192.027 217.33 191.89ZM200.13 194.03C199.619 194.032 199.115 193.908 198.664 193.669C198.212 193.43 197.826 193.084 197.54 192.66C198.558 192.373 199.475 191.809 200.19 191.03C201.147 191.965 202.383 192.562 203.71 192.73C202.735 193.619 201.448 194.086 200.13 194.03Z" fill="#39EAFF"/>
<path d="M272.43 55.3999C271.39 54.9883 270.522 54.2331 269.97 53.2599C269.593 53.779 269.104 54.2073 268.54 54.5136C267.976 54.8198 267.351 54.9962 266.71 55.0299C266.034 55.0806 265.356 54.9464 264.75 54.6416C264.144 54.3369 263.633 53.8731 263.27 53.2999C264.426 53.2631 265.552 52.9179 266.53 52.2999C265.287 52.5807 264.003 52.6349 262.74 52.4599C261.674 51.9646 260.782 51.1596 260.18 50.1499C260.18 50.1499 257.88 52.2899 255.8 52.4499C254.743 52.5808 253.67 52.4888 252.65 52.1799C253.12 52.6223 253.69 52.9443 254.312 53.1185C254.934 53.2926 255.588 53.3137 256.22 53.1799C257.485 53.037 258.678 52.5141 259.64 51.6799C260.468 52.5603 261.587 53.111 262.79 53.2299H263.14C262.79 53.4999 260.66 55.0999 258.71 54.9999C258.116 54.9884 257.535 54.8195 257.027 54.5103C256.52 54.2011 256.103 53.7627 255.82 53.2399C255.82 53.2399 253.96 55.5899 252.14 55.6399C251.613 55.6602 251.087 55.5761 250.593 55.3924C250.099 55.2088 249.646 54.9293 249.26 54.5699C249.517 55.0691 249.905 55.4891 250.382 55.785C250.86 56.0809 251.408 56.2416 251.97 56.2499H252.07C251.251 57.2222 250.085 57.8359 248.82 57.9599C247.831 57.9774 246.848 57.7972 245.93 57.4299C245.93 57.4299 246.52 58.6599 249.03 58.7099C249.708 58.7595 250.387 58.6272 250.997 58.3266C251.607 58.026 252.126 57.568 252.5 56.9999C252.796 57.562 253.256 58.0214 253.818 58.3177C254.38 58.6139 255.019 58.7332 255.65 58.6599C256.285 58.705 256.922 58.5904 257.502 58.3267C258.082 58.063 258.586 57.6585 258.97 57.1499C259.291 57.6516 259.735 58.0623 260.261 58.3425C260.786 58.6227 261.375 58.763 261.97 58.7499C263.171 58.6758 264.322 58.2478 265.28 57.5199C265.28 57.5199 262.83 58.4299 261.6 57.9999C260.816 57.6219 260.162 57.0198 259.72 56.2699C260.944 56.1528 262.091 55.6199 262.97 54.7599C263.469 55.3096 264.093 55.7318 264.789 55.991C265.485 56.2502 266.233 56.339 266.97 56.2499C268.171 56.1 269.275 55.5125 270.07 54.5999C270.352 55.0435 270.727 55.4207 271.169 55.7055C271.611 55.9904 272.109 56.1761 272.63 56.2499C273.139 56.2307 273.639 56.1072 274.098 55.887C274.557 55.6668 274.966 55.3547 275.3 54.9699C274.408 55.3979 273.408 55.5478 272.43 55.3999ZM255.24 57.5399C254.727 57.5427 254.222 57.4191 253.769 57.1802C253.315 56.9413 252.927 56.5943 252.64 56.1699C253.656 55.8851 254.573 55.3244 255.29 54.5499C256.254 55.479 257.492 56.0718 258.82 56.2399C257.845 57.1286 256.558 57.5958 255.24 57.5399Z" fill="#39EAFF"/>
<path d="M257.75 280.75C256.693 280.351 255.806 279.598 255.24 278.62C254.86 279.135 254.37 279.56 253.807 279.864C253.243 280.168 252.619 280.345 251.98 280.38C251.305 280.429 250.629 280.296 250.023 279.993C249.418 279.69 248.905 279.23 248.54 278.66C249.695 278.617 250.819 278.273 251.8 277.66C250.553 277.941 249.266 277.995 248 277.82C246.962 277.335 246.089 276.556 245.49 275.58C245.49 275.58 243.2 277.71 241.11 277.87C240.053 278 238.981 277.911 237.96 277.61C238.431 278.054 239.003 278.377 239.627 278.551C240.25 278.725 240.907 278.745 241.54 278.61C242.807 278.472 244.001 277.948 244.96 277.11C245.787 277.994 246.906 278.548 248.11 278.67H248.46C248.1 278.95 245.97 280.54 244.02 280.44C243.427 280.43 242.847 280.261 242.34 279.952C241.834 279.642 241.42 279.203 241.14 278.68C241.14 278.68 239.27 281.03 237.46 281.08C236.932 281.103 236.405 281.021 235.909 280.839C235.413 280.657 234.958 280.379 234.57 280.02C234.834 280.498 235.221 280.898 235.69 281.179C236.159 281.46 236.693 281.612 237.24 281.62H237.35C236.522 282.587 235.356 283.203 234.09 283.34C233.104 283.351 232.125 283.167 231.21 282.8C231.21 282.8 231.8 284.03 234.31 284.08C234.988 284.133 235.667 284.003 236.277 283.704C236.888 283.405 237.406 282.948 237.78 282.38C238.078 282.94 238.538 283.397 239.1 283.692C239.662 283.986 240.3 284.104 240.93 284.03C241.567 284.07 242.205 283.949 242.783 283.678C243.361 283.407 243.862 282.995 244.24 282.48C244.559 282.983 245.003 283.395 245.529 283.675C246.055 283.955 246.644 284.095 247.24 284.08C248.44 284.009 249.591 283.585 250.55 282.86C250.55 282.86 248.09 283.76 246.87 283.34C246.081 282.964 245.426 282.357 244.99 281.6C246.213 281.499 247.365 280.98 248.25 280.13C248.749 280.68 249.373 281.103 250.068 281.364C250.764 281.625 251.512 281.716 252.25 281.63C253.449 281.476 254.549 280.885 255.34 279.97C255.626 280.413 256.003 280.791 256.446 281.077C256.889 281.363 257.388 281.552 257.91 281.63C258.418 281.608 258.917 281.484 259.376 281.264C259.835 281.044 260.245 280.733 260.58 280.35C259.696 280.756 258.712 280.895 257.75 280.75ZM240.55 282.89C240.04 282.893 239.537 282.771 239.085 282.533C238.633 282.296 238.247 281.952 237.96 281.53C238.978 281.243 239.895 280.679 240.61 279.9C241.569 280.83 242.804 281.423 244.13 281.59C243.649 282.033 243.085 282.376 242.47 282.599C241.856 282.822 241.203 282.921 240.55 282.89Z" fill="#39EAFF"/>
<path d="M93.52 231.51C92.4612 231.108 91.5742 230.352 91.01 229.37C90.6327 229.886 90.1453 230.311 89.5832 230.616C89.0211 230.92 88.3983 231.096 87.76 231.13C87.0829 231.183 86.4041 231.052 85.7963 230.749C85.1885 230.446 84.6747 229.983 84.31 229.41C85.4658 229.37 86.5905 229.025 87.57 228.41C86.3274 228.696 85.0432 228.753 83.78 228.58C82.7407 228.092 81.8678 227.31 81.27 226.33C81.27 226.33 78.97 228.47 76.89 228.63C75.8326 228.761 74.7596 228.669 73.74 228.36C74.2112 228.804 74.7832 229.127 75.4068 229.301C76.0303 229.475 76.6869 229.495 77.32 229.36C78.582 229.216 79.7708 228.693 80.73 227.86C81.5581 228.74 82.6771 229.291 83.88 229.41H84.23C83.88 229.69 81.75 231.29 79.8 231.19C79.2056 231.178 78.625 231.009 78.1173 230.7C77.6095 230.391 77.1929 229.953 76.91 229.43C76.91 229.43 75.05 231.78 73.23 231.83C72.7031 231.85 72.1774 231.766 71.6832 231.582C71.1889 231.399 70.7358 231.119 70.35 230.76C70.6144 231.238 71.0007 231.638 71.4696 231.919C71.9385 232.2 72.4734 232.352 73.02 232.36H73.12C72.3013 233.332 71.135 233.946 69.87 234.07C68.881 234.087 67.8984 233.907 66.98 233.54C66.98 233.54 67.57 234.76 70.08 234.82C70.7582 234.87 71.4374 234.737 72.0474 234.437C72.6575 234.136 73.1762 233.678 73.55 233.11C73.8456 233.672 74.3053 234.131 74.8679 234.426C75.4305 234.72 76.0695 234.837 76.7 234.76C77.3366 234.802 77.9736 234.682 78.552 234.413C79.1305 234.144 79.6319 233.734 80.01 233.22C80.3307 233.722 80.7752 234.132 81.3006 234.412C81.826 234.693 82.4147 234.833 83.01 234.82C84.2106 234.746 85.3623 234.318 86.32 233.59C86.32 233.59 83.87 234.5 82.64 234.07C81.856 233.692 81.2017 233.09 80.76 232.34C81.9846 232.233 83.137 231.715 84.03 230.87C84.5293 231.42 85.153 231.842 85.8489 232.101C86.5448 232.36 87.2927 232.449 88.03 232.36C89.2311 232.21 90.3348 231.622 91.13 230.71C91.4122 231.153 91.7872 231.531 92.2291 231.815C92.671 232.1 93.1694 232.286 93.69 232.36C94.1989 232.341 94.6985 232.217 95.1578 231.997C95.6171 231.777 96.0263 231.465 96.36 231.08C95.477 231.502 94.4883 231.652 93.52 231.51ZM76.33 233.64C75.8182 233.645 75.3131 233.523 74.8595 233.286C74.406 233.048 74.018 232.703 73.73 232.28C74.7476 231.993 75.6652 231.429 76.38 230.65C77.3444 231.58 78.5817 232.175 79.91 232.35C78.9333 233.235 77.6467 233.698 76.33 233.64Z" fill="#39EAFF"/>
</g>
</g>
<g style="mix-blend-mode:multiply">
<path d="M214.16 211.36L259.35 139.66L220.21 114.99L210.34 130.67L211.41 110.82L165.22 108.31L163.32 143.31L139.64 148.37C139.268 148.447 138.915 148.597 138.602 148.811C138.288 149.025 138.019 149.298 137.811 149.616C137.603 149.934 137.46 150.289 137.389 150.662C137.319 151.035 137.322 151.418 137.4 151.79L155.04 234.3C155.205 235.048 155.66 235.7 156.304 236.114C156.949 236.529 157.731 236.671 158.48 236.51L214.05 224.63C214.797 224.469 215.451 224.019 215.869 223.379C216.286 222.738 216.434 221.959 216.28 221.21L214.16 211.36Z" fill="#97E4DB"/>
</g>
<path d="M217.837 110.999L165.069 194.729L204.205 219.393L256.973 135.664L217.837 110.999Z" fill="#DDF1F2"/>
<path d="M181.011 176.117L170.118 193.401L189.983 205.92L200.875 188.636L181.011 176.117Z" fill="#77C9C9"/>
<path d="M219.34 115.947L199.298 147.748L204.967 151.32L225.009 119.519L219.34 115.947Z" fill="#77C9C9"/>
<path d="M227.027 119.136L195.232 170.128L198.964 172.455L230.759 121.463L227.027 119.136Z" fill="#77C9C9"/>
<path d="M233.973 125.16L220.729 146.175L224.282 148.414L237.526 127.399L233.973 125.16Z" fill="#77C9C9"/>
<path d="M218.43 149.825L205.186 170.84L208.739 173.079L221.983 152.064L218.43 149.825Z" fill="#77C9C9"/>
<path d="M240.848 129.503L191.695 207.496L203.649 215.03L252.802 137.036L240.848 129.503Z" fill="#77C9C9"/>
<path d="M162.854 104.321L157.485 203.146L203.677 205.655L209.046 106.831L162.854 104.321Z" fill="white"/>
<path d="M162.367 179.145L161.259 199.545L184.704 200.819L185.813 180.419L162.367 179.145Z" fill="#ACE8EF"/>
<path d="M166.571 107.922L164.532 145.457L171.222 145.821L173.262 108.286L166.571 107.922Z" fill="#ACE8EF"/>
<path d="M175.88 108.423L172.626 168.325L177.009 168.563L180.264 108.662L175.88 108.423Z" fill="#ACE8EF"/>
<path d="M183.84 108.847L182.493 133.65L186.686 133.878L188.034 109.074L183.84 108.847Z" fill="#ACE8EF"/>
<path d="M182.262 137.954L180.914 162.757L185.108 162.985L186.456 138.182L182.262 137.954Z" fill="#ACE8EF"/>
<path d="M191.964 109.297L186.962 201.351L201.072 202.118L206.073 110.063L191.964 109.297Z" fill="#ACE8EF"/>
<path d="M213.9 217.25C214.054 217.999 213.906 218.778 213.489 219.419C213.071 220.059 212.417 220.509 211.67 220.67L156.1 232.55C155.352 232.71 154.571 232.568 153.928 232.154C153.285 231.739 152.833 231.087 152.67 230.34L135.03 147.83C134.951 147.459 134.946 147.076 135.015 146.703C135.085 146.33 135.227 145.974 135.434 145.657C135.641 145.339 135.909 145.065 136.223 144.851C136.536 144.637 136.889 144.487 137.26 144.41L192.83 132.53C193.2 132.449 193.583 132.442 193.956 132.51C194.329 132.577 194.685 132.717 195.004 132.923C195.322 133.128 195.597 133.394 195.813 133.706C196.029 134.018 196.18 134.369 196.26 134.74L213.9 217.25Z" fill="#A68CF7"/>
<path d="M173.39 170.66C169.441 171.501 165.83 173.494 163.013 176.387C160.196 179.28 158.3 182.943 157.565 186.913C156.83 190.884 157.288 194.983 158.882 198.693C160.475 202.402 163.133 205.557 166.519 207.756C169.906 209.956 173.868 211.102 177.905 211.05C181.943 210.999 185.874 209.751 189.203 207.465C192.531 205.18 195.107 201.959 196.606 198.209C198.104 194.46 198.457 190.35 197.62 186.4C196.492 181.101 193.306 176.466 188.763 173.515C184.219 170.564 178.69 169.537 173.39 170.66ZM169.8 173.99C169.14 175.39 168.39 176.79 167.8 178.25C167.21 179.71 166.8 181.25 166.32 182.91L161.59 181.59C163.447 178.246 166.323 175.583 169.8 173.99ZM160.72 183.31C161.22 183.49 161.67 183.68 162.15 183.81C163.35 184.14 164.55 184.44 165.75 184.74C165.97 184.8 166.18 184.8 166.14 185.13C165.91 187.376 165.98 189.643 166.35 191.87C166.35 191.87 166.35 191.93 166.35 192L159.44 193.48C158.894 190.037 159.338 186.51 160.72 183.31ZM165.14 204.15C162.587 201.815 160.752 198.8 159.85 195.46L166.78 193.97C167.373 196.271 168.268 198.483 169.44 200.55L165.14 204.15ZM166.73 205.41L170.51 202.24C172.302 204.867 174.559 207.144 177.17 208.96C174.79 209.42 168.97 207.46 166.73 205.44V205.41ZM180.44 208.63C177.171 206.853 174.365 204.331 172.25 201.27C174.157 200.171 176.206 199.34 178.34 198.8L180.44 208.63ZM177.89 196.69L171.1 199.42C170.04 197.593 169.248 195.623 168.75 193.57L176.85 191.84L177.89 196.69ZM176.42 189.81L168.42 191.53C167.997 189.457 167.919 187.328 168.19 185.23L175.42 184.95C175.71 186.51 176.06 188.15 176.42 189.84V189.81ZM174.93 182.81C172.789 183.192 170.605 183.279 168.44 183.07C169.139 179.477 170.654 176.093 172.87 173.18C173.57 176.5 174.25 179.66 174.97 182.86L174.93 182.81ZM189.97 177.15C189.97 177.15 190.03 177.15 190.1 177.1C192.664 179.442 194.506 182.467 195.41 185.82L188.5 187.29C188.26 186.57 188.06 185.81 187.76 185.1C187.18 183.73 186.55 182.38 185.92 181.03C185.83 180.83 185.72 180.7 185.92 180.49C187.32 179.36 188.65 178.24 189.97 177.15ZM188.57 175.83L184.79 179C183.67 177.74 182.68 176.49 181.56 175.38C180.44 174.27 179.17 173.3 177.92 172.23C181.758 172.285 185.483 173.532 188.58 175.8L188.57 175.83ZM174.87 172.83C178.073 174.585 180.833 177.047 182.94 180.03C181.061 181.112 179.042 181.929 176.94 182.46C176.26 179.24 175.58 176.07 174.88 172.81L174.87 172.83ZM177.38 184.57L184.1 181.86C185.178 183.684 185.986 185.655 186.5 187.71L178.42 189.44C178.07 187.76 177.72 186.15 177.39 184.55L177.38 184.57ZM178.85 191.46L186.94 189.73C187.324 191.807 187.412 193.928 187.2 196.03L179.89 196.32C179.57 194.77 179.22 193.15 178.86 191.44L178.85 191.46ZM182.43 208.27C181.72 204.93 181.03 201.71 180.33 198.43C182.498 198.047 184.709 197.963 186.9 198.18C186.218 201.838 184.69 205.286 182.44 208.25L182.43 208.27ZM185.5 207.33C187.166 204.561 188.311 201.511 188.88 198.33L193.68 199.69C191.8 203.006 188.948 205.665 185.51 207.31L185.5 207.33ZM194.57 197.91L189.17 196.38C189.398 194.012 189.307 191.624 188.9 189.28L195.83 187.8C196.383 191.214 195.949 194.714 194.58 197.89L194.57 197.91Z" fill="white"/>
<path d="M144.25 153.36L144.95 153.12C145.348 152.996 145.752 152.893 146.16 152.81C146.525 152.731 146.897 152.687 147.27 152.68C147.638 152.665 148.005 152.722 148.35 152.85C148.694 152.978 148.998 153.195 149.23 153.48C149.517 153.851 149.71 154.287 149.79 154.75C149.878 155.162 149.878 155.588 149.79 156C149.72 156.325 149.577 156.63 149.37 156.89C149.165 157.131 148.913 157.328 148.63 157.47C148.339 157.616 148.029 157.724 147.71 157.79L147.31 157.86H147.02L147.53 160.23L147.07 160.41C146.939 160.451 146.805 160.485 146.67 160.51C146.373 160.565 146.072 160.599 145.77 160.61L144.25 153.36ZM146.75 156.43C146.809 156.444 146.871 156.444 146.93 156.43H147.19C147.322 156.409 147.448 156.362 147.561 156.292C147.675 156.221 147.773 156.129 147.85 156.02C147.931 155.892 147.984 155.748 148.004 155.598C148.025 155.448 148.013 155.295 147.97 155.15C147.933 154.973 147.866 154.804 147.77 154.65C147.69 154.534 147.584 154.438 147.46 154.37C147.336 154.305 147.199 154.271 147.06 154.27C146.917 154.251 146.773 154.251 146.63 154.27H146.48H146.32L146.75 156.43Z" fill="white"/>
<path d="M152.26 159.27L151.84 159.42C151.719 159.463 151.596 159.496 151.47 159.52C151.328 159.552 151.185 159.576 151.04 159.59H150.49L151.22 151.82L151.7 151.67C151.851 151.621 152.004 151.581 152.16 151.55L152.59 151.48L153.12 151.42L156.93 158.22C156.605 158.35 156.271 158.453 155.93 158.53L155.52 158.6H155.07L154.38 157.27C154.212 157.357 154.038 157.434 153.86 157.5C153.699 157.568 153.532 157.618 153.36 157.65C153.199 157.689 153.035 157.712 152.87 157.72C152.693 157.73 152.517 157.73 152.34 157.72L152.26 159.27ZM152.54 153.59L152.41 156.35H152.76H153.08L153.41 156.25L153.75 156.1L152.54 153.59Z" fill="white"/>
<path d="M159.5 153.07C159.783 153.114 160.064 153.174 160.34 153.25C160.582 153.316 160.811 153.421 161.02 153.56C161.226 153.694 161.4 153.872 161.53 154.08C161.679 154.334 161.784 154.611 161.84 154.9C161.908 155.23 161.908 155.57 161.84 155.9C161.775 156.214 161.638 156.508 161.44 156.76C161.223 157.039 160.951 157.271 160.64 157.44C160.268 157.643 159.866 157.788 159.45 157.87C159.076 157.953 158.693 157.997 158.31 158C157.938 158.007 157.566 157.976 157.2 157.91C157.184 157.647 157.184 157.383 157.2 157.12C157.2 156.84 157.2 156.55 157.27 156.25C157.833 156.387 158.419 156.407 158.99 156.31C159.271 156.257 159.537 156.144 159.77 155.98C159.852 155.904 159.912 155.807 159.942 155.699C159.972 155.591 159.971 155.477 159.94 155.37C159.925 155.271 159.883 155.178 159.82 155.1C159.762 155.033 159.69 154.978 159.61 154.94C159.528 154.898 159.44 154.868 159.35 154.85L159.07 154.8L158.46 154.71C158.208 154.674 157.96 154.613 157.72 154.53C157.499 154.462 157.292 154.353 157.11 154.21C156.93 154.073 156.777 153.903 156.66 153.71C156.526 153.481 156.431 153.231 156.38 152.97C156.305 152.641 156.305 152.299 156.38 151.97C156.436 151.673 156.56 151.393 156.74 151.15C156.934 150.901 157.175 150.694 157.45 150.54C157.763 150.368 158.1 150.244 158.45 150.17C158.779 150.101 159.114 150.064 159.45 150.06C159.818 150.06 160.185 150.084 160.55 150.13C160.57 150.38 160.57 150.63 160.55 150.88C160.54 151.15 160.503 151.418 160.44 151.68C160.25 151.68 160.02 151.61 159.77 151.58C159.465 151.551 159.157 151.575 158.86 151.65C158.754 151.669 158.65 151.699 158.55 151.74C158.461 151.778 158.379 151.832 158.31 151.9C158.24 151.958 158.188 152.034 158.16 152.12C158.135 152.222 158.135 152.328 158.16 152.43C158.173 152.514 158.206 152.593 158.257 152.661C158.307 152.729 158.374 152.783 158.45 152.82C158.612 152.894 158.784 152.944 158.96 152.97L159.5 153.07Z" fill="white"/>
<path d="M165.04 151.88C165.35 151.94 165.63 152 165.89 152.07C166.127 152.135 166.353 152.236 166.56 152.37C166.763 152.507 166.937 152.684 167.07 152.89C167.222 153.143 167.327 153.42 167.38 153.71C167.447 154.04 167.447 154.38 167.38 154.71C167.315 155.022 167.182 155.316 166.99 155.57C166.77 155.844 166.498 156.071 166.19 156.24C165.814 156.443 165.409 156.588 164.99 156.67C164.619 156.756 164.241 156.802 163.86 156.81C163.488 156.807 163.117 156.777 162.75 156.72C162.725 156.457 162.725 156.193 162.75 155.93C162.758 155.639 162.782 155.349 162.82 155.06C163.384 155.173 163.966 155.173 164.53 155.06C164.814 155.019 165.083 154.905 165.31 154.73C165.412 154.608 165.467 154.454 165.467 154.295C165.467 154.136 165.412 153.982 165.31 153.86C165.253 153.793 165.186 153.735 165.11 153.69C165.027 153.653 164.94 153.626 164.85 153.61L164.56 153.55L163.95 153.46C163.698 153.432 163.449 153.375 163.21 153.29C162.995 153.214 162.793 153.106 162.61 152.97C162.428 152.828 162.273 152.655 162.15 152.46C161.854 151.935 161.748 151.324 161.85 150.73C161.906 150.433 162.03 150.153 162.21 149.91C162.401 149.659 162.643 149.451 162.92 149.3C163.231 149.124 163.569 148.999 163.92 148.93C164.248 148.852 164.583 148.812 164.92 148.81C165.288 148.814 165.655 148.841 166.02 148.89C166.035 149.14 166.035 149.39 166.02 149.64C166.002 149.906 165.962 150.17 165.9 150.43L165.23 150.33C164.925 150.307 164.618 150.33 164.32 150.4C164.216 150.421 164.116 150.455 164.02 150.5C163.929 150.536 163.844 150.586 163.77 150.65C163.702 150.71 163.651 150.785 163.62 150.87C163.595 150.972 163.595 151.078 163.62 151.18C163.631 151.265 163.664 151.347 163.714 151.417C163.765 151.486 163.832 151.543 163.91 151.58C164.074 151.646 164.245 151.693 164.42 151.72L165.04 151.88Z" fill="white"/>
<path d="M167.33 148.43L168.03 148.19C168.424 148.065 168.825 147.961 169.23 147.88C169.598 147.797 169.973 147.75 170.35 147.74C170.714 147.73 171.077 147.787 171.42 147.91C171.766 148.045 172.072 148.265 172.31 148.55C172.596 148.921 172.785 149.358 172.86 149.82C172.953 150.228 172.953 150.652 172.86 151.06C172.803 151.389 172.658 151.697 172.44 151.95C172.241 152.196 171.992 152.397 171.71 152.54C171.414 152.684 171.102 152.791 170.78 152.86L170.39 152.93H170.1L170.61 155.3C170.456 155.365 170.3 155.422 170.14 155.47C170.012 155.513 169.882 155.55 169.75 155.58C169.449 155.635 169.145 155.669 168.84 155.68L167.33 148.43ZM169.83 151.5H169.97H170.22C170.352 151.479 170.478 151.432 170.591 151.362C170.705 151.291 170.803 151.199 170.88 151.09C170.957 150.968 171.007 150.83 171.026 150.687C171.045 150.544 171.033 150.398 170.99 150.26C170.958 150.083 170.894 149.913 170.8 149.76C170.719 149.641 170.609 149.544 170.48 149.48C170.36 149.413 170.227 149.376 170.09 149.37C169.942 149.367 169.794 149.384 169.65 149.42H169.51H169.35L169.83 151.5Z" fill="white"/>
<path d="M173.88 150.87C173.767 150.358 173.72 149.834 173.74 149.31C173.765 148.851 173.873 148.4 174.06 147.98C174.257 147.588 174.54 147.245 174.89 146.98C175.305 146.691 175.773 146.487 176.268 146.38C176.762 146.274 177.273 146.267 177.77 146.36C178.199 146.466 178.599 146.668 178.94 146.95C179.285 147.252 179.567 147.619 179.77 148.03C180.237 148.959 180.46 149.991 180.42 151.03C180.397 151.487 180.285 151.936 180.09 152.35C179.902 152.745 179.621 153.088 179.27 153.35C178.86 153.648 178.389 153.85 177.89 153.94C177.396 154.049 176.884 154.049 176.39 153.94C175.96 153.847 175.558 153.652 175.22 153.37C174.875 153.072 174.593 152.708 174.39 152.3C174.153 151.85 173.981 151.368 173.88 150.87ZM178.39 149.87C178.07 148.39 177.48 147.74 176.62 147.93C175.76 148.12 175.46 148.93 175.77 150.43C175.859 151.009 176.093 151.556 176.45 152.02C176.585 152.175 176.76 152.288 176.957 152.346C177.154 152.405 177.363 152.406 177.56 152.35C178.43 152.2 178.7 151.37 178.39 149.9V149.87Z" fill="white"/>
<path d="M180.53 145.61L181.43 145.32C181.71 145.23 182 145.15 182.31 145.08C182.688 144.997 183.073 144.953 183.46 144.95C183.826 144.937 184.192 144.987 184.54 145.1C184.87 145.22 185.165 145.419 185.4 145.68C185.676 145.99 185.859 146.371 185.93 146.78C185.978 147.007 185.998 147.238 185.99 147.47C185.972 147.67 185.935 147.867 185.88 148.06C185.821 148.223 185.747 148.38 185.66 148.53C185.577 148.658 185.487 148.782 185.39 148.9L187.65 151.69C187.48 151.759 187.306 151.819 187.13 151.87L186.61 152L186.13 152.08C185.967 152.093 185.803 152.093 185.64 152.08L183.48 149.08L183.56 149.01C183.651 148.937 183.729 148.849 183.79 148.75C183.874 148.626 183.942 148.492 183.99 148.35C184.052 148.193 184.093 148.028 184.11 147.86C184.14 147.685 184.14 147.505 184.11 147.33C184.093 147.191 184.044 147.057 183.968 146.94C183.892 146.822 183.79 146.723 183.67 146.65C183.435 146.532 183.165 146.504 182.91 146.57H182.74H182.65L183.9 152.4C183.618 152.517 183.327 152.61 183.03 152.68C182.727 152.744 182.419 152.778 182.11 152.78L180.53 145.61Z" fill="white"/>
<path d="M188.22 145.61L186.52 145.97C186.406 145.716 186.319 145.452 186.26 145.18C186.204 144.917 186.177 144.649 186.18 144.38L191.39 143.27C191.45 143.41 191.5 143.55 191.54 143.67C191.58 143.79 191.61 143.92 191.64 144.03C191.69 144.304 191.72 144.582 191.73 144.86L190.03 145.22L191.24 150.93C190.957 151.045 190.667 151.139 190.37 151.21C190.063 151.27 189.752 151.303 189.44 151.31L188.22 145.61Z" fill="white"/>
<path d="M137.03 274.54C137.03 274.54 178.91 214.33 103.13 191.98C103.13 191.98 150.37 125.37 87.4399 109.23C87.4399 109.23 171.66 -9.76995 258.85 105.06C258.85 105.06 369.62 87.99 315.45 160.91C315.45 160.91 217.71 386.75 137.03 274.54Z" stroke="white" stroke-width="2" stroke-linecap="round" stroke-linejoin="round" stroke-dasharray="3 6"/>
<path d="M144.3 265.74C144.3 269.74 139.3 279.47 137.03 279.47C134.76 279.47 129.77 269.75 129.77 265.74C129.734 264.763 129.895 263.789 130.244 262.876C130.592 261.963 131.122 261.13 131.8 260.426C132.478 259.722 133.291 259.162 134.191 258.78C135.09 258.398 136.058 258.2 137.035 258.2C138.012 258.2 138.98 258.398 139.879 258.78C140.779 259.162 141.592 259.722 142.27 260.426C142.948 261.13 143.478 261.963 143.826 262.876C144.175 263.789 144.336 264.763 144.3 265.74Z" fill="#A68CF7"/>
<path d="M141.78 265.67C141.78 266.609 141.501 267.528 140.98 268.309C140.458 269.09 139.716 269.699 138.848 270.058C137.98 270.418 137.025 270.512 136.103 270.329C135.182 270.145 134.336 269.693 133.671 269.029C133.007 268.364 132.555 267.518 132.371 266.597C132.188 265.675 132.282 264.72 132.642 263.852C133.001 262.984 133.61 262.242 134.391 261.72C135.172 261.199 136.091 260.92 137.03 260.92C138.29 260.92 139.498 261.42 140.389 262.311C141.28 263.202 141.78 264.41 141.78 265.67Z" fill="white"/>
<path d="M94.7 100.98C94.7 104.98 89.7 114.71 87.44 114.71C85.18 114.71 80.17 104.99 80.17 100.98C80.1338 100.003 80.2949 99.0293 80.6437 98.1162C80.9924 97.2032 81.5217 96.3698 82.1999 95.666C82.8781 94.9621 83.6913 94.4023 84.5908 94.0199C85.4903 93.6375 86.4576 93.4404 87.435 93.4404C88.4124 93.4404 89.3798 93.6375 90.2793 94.0199C91.1788 94.4023 91.992 94.9621 92.6701 95.666C93.3483 96.3698 93.8777 97.2032 94.2264 98.1162C94.5752 99.0293 94.7363 100.003 94.7 100.98Z" fill="#A68CF7"/>
<path d="M92.1899 100.91C92.1899 101.849 91.9114 102.768 91.3894 103.549C90.8675 104.33 90.1256 104.939 89.2577 105.298C88.3897 105.658 87.4347 105.752 86.5133 105.569C85.5919 105.385 84.7455 104.933 84.0812 104.269C83.4169 103.604 82.9645 102.758 82.7812 101.837C82.5979 100.915 82.692 99.9602 83.0515 99.0923C83.411 98.2244 84.0199 97.4825 84.801 96.9606C85.5821 96.4386 86.5005 96.16 87.4399 96.16C88.6997 96.16 89.9079 96.6605 90.7987 97.5513C91.6895 98.4421 92.1899 99.6503 92.1899 100.91Z" fill="white"/>
<path d="M110.4 182.55C110.4 186.55 105.4 196.28 103.13 196.28C100.86 196.28 95.87 186.56 95.87 182.55C95.8337 181.573 95.9948 180.599 96.3436 179.686C96.6924 178.773 97.2217 177.94 97.8999 177.236C98.5781 176.532 99.3912 175.972 100.291 175.59C101.19 175.207 102.158 175.01 103.135 175.01C104.112 175.01 105.08 175.207 105.979 175.59C106.879 175.972 107.692 176.532 108.37 177.236C109.048 177.94 109.578 178.773 109.926 179.686C110.275 180.599 110.436 181.573 110.4 182.55Z" fill="#A68CF7"/>
<path d="M103.13 187.23C105.753 187.23 107.88 185.103 107.88 182.48C107.88 179.857 105.753 177.73 103.13 177.73C100.507 177.73 98.38 179.857 98.38 182.48C98.38 185.103 100.507 187.23 103.13 187.23Z" fill="white"/>
<path d="M266.27 94.76C266.27 98.76 261.27 108.49 259 108.49C256.73 108.49 251.73 98.77 251.73 94.76C251.73 92.8319 252.496 90.9827 253.859 89.6193C255.223 88.2559 257.072 87.49 259 87.49C260.928 87.49 262.777 88.2559 264.141 89.6193C265.504 90.9827 266.27 92.8319 266.27 94.76Z" fill="#A68CF7"/>
<path d="M263.75 94.6899C263.75 95.6294 263.471 96.5478 262.949 97.3289C262.428 98.11 261.686 98.7189 260.818 99.0784C259.95 99.4379 258.995 99.532 258.073 99.3487C257.152 99.1654 256.306 98.713 255.641 98.0487C254.977 97.3844 254.525 96.538 254.341 95.6166C254.158 94.6952 254.252 93.7402 254.612 92.8722C254.971 92.0043 255.58 91.2624 256.361 90.7405C257.142 90.2185 258.061 89.9399 259 89.9399C260.26 89.9399 261.468 90.4404 262.359 91.3312C263.25 92.222 263.75 93.4302 263.75 94.6899Z" fill="white"/>
<path d="M322.72 150.27C322.72 154.27 317.72 164 315.45 164C313.18 164 308.18 154.29 308.18 150.27C308.18 148.342 308.946 146.493 310.309 145.129C311.673 143.766 313.522 143 315.45 143C317.378 143 319.227 143.766 320.591 145.129C321.954 146.493 322.72 148.342 322.72 150.27Z" fill="#A68CF7"/>
<path d="M315.45 154.95C318.073 154.95 320.2 152.823 320.2 150.2C320.2 147.577 318.073 145.45 315.45 145.45C312.827 145.45 310.7 147.577 310.7 150.2C310.7 152.823 312.827 154.95 315.45 154.95Z" fill="white"/>
<path d="M304.55 166.61H308.07C308.168 166.61 308.262 166.649 308.332 166.718C308.401 166.788 308.44 166.882 308.44 166.98C308.44 167.078 308.401 167.172 308.332 167.242C308.262 167.311 308.168 167.35 308.07 167.35H303.88L303.13 168.17H306.97C307.068 168.17 307.162 168.209 307.232 168.278C307.301 168.348 307.34 168.442 307.34 168.54C307.34 168.638 307.301 168.732 307.232 168.802C307.162 168.871 307.068 168.91 306.97 168.91H302.62H302.51L301.74 169.76H305.41C305.496 169.774 305.575 169.819 305.632 169.886C305.688 169.953 305.719 170.037 305.719 170.125C305.719 170.213 305.688 170.297 305.632 170.364C305.575 170.431 305.496 170.476 305.41 170.49H301.07L300.32 171.32H304.32C304.373 171.311 304.427 171.314 304.479 171.328C304.531 171.343 304.579 171.368 304.62 171.403C304.661 171.437 304.694 171.481 304.716 171.529C304.739 171.578 304.751 171.631 304.751 171.685C304.751 171.739 304.739 171.792 304.716 171.84C304.694 171.889 304.661 171.932 304.62 171.967C304.579 172.002 304.531 172.027 304.479 172.042C304.427 172.056 304.373 172.059 304.32 172.05H299.97C299.891 172.053 299.813 172.028 299.75 171.98L298.93 172.88H302.76C302.858 172.88 302.952 172.919 303.022 172.988C303.091 173.058 303.13 173.152 303.13 173.25C303.13 173.348 303.091 173.442 303.022 173.512C302.952 173.581 302.858 173.62 302.76 173.62H298.41H298.28L297.51 174.47H301.19C301.243 174.461 301.297 174.464 301.349 174.478C301.401 174.493 301.449 174.518 301.49 174.553C301.531 174.587 301.564 174.631 301.586 174.679C301.609 174.728 301.621 174.781 301.621 174.835C301.621 174.889 301.609 174.942 301.586 174.99C301.564 175.039 301.531 175.082 301.49 175.117C301.449 175.152 301.401 175.177 301.349 175.192C301.297 175.206 301.243 175.209 301.19 175.2H296.84L296.09 176.03H299.63C299.683 176.021 299.737 176.024 299.789 176.038C299.841 176.053 299.889 176.078 299.93 176.113C299.971 176.147 300.004 176.191 300.026 176.239C300.049 176.288 300.061 176.341 300.061 176.395C300.061 176.449 300.049 176.502 300.026 176.55C300.004 176.599 299.971 176.642 299.93 176.677C299.889 176.712 299.841 176.737 299.789 176.752C299.737 176.766 299.683 176.769 299.63 176.76H295.42L294.67 177.59H298.4C298.498 177.59 298.592 177.629 298.662 177.698C298.731 177.768 298.77 177.862 298.77 177.96C298.77 178.058 298.731 178.152 298.662 178.222C298.592 178.291 298.498 178.33 298.4 178.33H293.97L293.21 179.16H296.8C296.897 179.162 296.99 179.202 297.059 179.271C297.128 179.34 297.167 179.433 297.17 179.53C297.17 179.628 297.131 179.722 297.062 179.792C296.992 179.861 296.898 179.9 296.8 179.9H292.54L291.79 180.73H295.31C295.363 180.721 295.417 180.724 295.469 180.738C295.521 180.753 295.569 180.778 295.61 180.813C295.651 180.847 295.684 180.891 295.706 180.939C295.729 180.988 295.741 181.041 295.741 181.095C295.741 181.149 295.729 181.202 295.706 181.25C295.684 181.299 295.651 181.342 295.61 181.377C295.569 181.412 295.521 181.437 295.469 181.452C295.417 181.466 295.363 181.469 295.31 181.46H291.12L289.97 182.68H323.71L306.82 164.15L304.55 166.61Z" fill="#D0F999" stroke="#D0F999" stroke-miterlimit="10"/>
<path d="M323.72 163.41H327.24C327.338 163.41 327.432 163.449 327.502 163.518C327.571 163.588 327.61 163.682 327.61 163.78C327.61 163.878 327.571 163.972 327.502 164.042C327.432 164.111 327.338 164.15 327.24 164.15H323.05L322.3 164.98H326.11C326.158 164.979 326.206 164.987 326.251 165.004C326.296 165.022 326.337 165.048 326.371 165.082C326.406 165.115 326.433 165.155 326.452 165.2C326.47 165.244 326.48 165.292 326.48 165.34C326.48 165.438 326.441 165.532 326.372 165.602C326.302 165.671 326.208 165.71 326.11 165.71H321.76H321.65L320.88 166.56H324.55C324.603 166.551 324.657 166.554 324.709 166.568C324.761 166.583 324.809 166.608 324.85 166.643C324.891 166.677 324.924 166.721 324.946 166.769C324.969 166.818 324.981 166.871 324.981 166.925C324.981 166.979 324.969 167.032 324.946 167.08C324.924 167.129 324.891 167.172 324.85 167.207C324.809 167.242 324.761 167.267 324.709 167.282C324.657 167.296 324.603 167.299 324.55 167.29H320.21L319.46 168.12H323.46C323.558 168.12 323.652 168.159 323.722 168.228C323.791 168.298 323.83 168.392 323.83 168.49C323.83 168.588 323.791 168.682 323.722 168.752C323.652 168.821 323.558 168.86 323.46 168.86H319.11C319.03 168.859 318.952 168.831 318.89 168.78L318.07 169.68H321.9C321.998 169.68 322.092 169.719 322.162 169.788C322.231 169.858 322.27 169.952 322.27 170.05C322.27 170.148 322.231 170.242 322.162 170.312C322.092 170.381 321.998 170.42 321.9 170.42H317.55H317.42L316.65 171.27H320.34C320.426 171.284 320.505 171.329 320.562 171.396C320.618 171.463 320.649 171.547 320.649 171.635C320.649 171.723 320.618 171.807 320.562 171.874C320.505 171.941 320.426 171.986 320.34 172H315.97L315.47 172.56L315.72 172.83H318.72C318.773 172.821 318.827 172.824 318.879 172.838C318.931 172.853 318.979 172.878 319.02 172.913C319.061 172.947 319.094 172.991 319.116 173.039C319.139 173.088 319.151 173.141 319.151 173.195C319.151 173.249 319.139 173.302 319.116 173.35C319.094 173.399 319.061 173.442 319.02 173.477C318.979 173.512 318.931 173.537 318.879 173.552C318.827 173.566 318.773 173.569 318.72 173.56H316.37L321.78 179.56H342.86L325.97 160.91L323.72 163.41Z" fill="#D0F999" stroke="#D0F999" stroke-miterlimit="10"/>
<path d="M98.6699 75.29H99.8499L99.7199 69.67H98.8099L98.6699 75.29Z" fill="#7732A0"/>
<path d="M99.9899 81.16H98.5299L97.9199 107.2H100.6L99.9899 81.16Z" fill="#7732A0"/>
<path d="M98.58 69.15H100.06C100.194 69.132 100.318 69.0657 100.407 68.9637C100.496 68.8616 100.545 68.7306 100.545 68.595C100.545 68.4595 100.496 68.3285 100.407 68.2264C100.318 68.1243 100.194 68.0581 100.06 68.04H98.47C98.3356 68.0581 98.2123 68.1243 98.1231 68.2264C98.0338 68.3285 97.9846 68.4595 97.9846 68.595C97.9846 68.7306 98.0338 68.8616 98.1231 68.9637C98.2123 69.0657 98.3356 69.132 98.47 69.15H98.58Z" fill="#7732A0"/>
<path d="M99.28 66.38L99.1 67.6H99.45L99.28 66.38Z" fill="#7732A0"/>
<path d="M96.39 80.68H102.14C102.749 80.6779 103.336 80.4497 103.787 80.0396C104.238 79.6294 104.521 79.0665 104.58 78.46H93.97C94.0291 79.0631 94.3087 79.6232 94.7553 80.0329C95.2019 80.4426 95.784 80.673 96.39 80.68Z" fill="#7732A0"/>
<path d="M102.14 75.77H96.39C95.7798 75.7698 95.1916 75.9973 94.7403 76.4078C94.2891 76.8184 94.0072 77.3826 93.95 77.99H104.58C104.523 77.3826 104.241 76.8184 103.79 76.4078C103.338 75.9973 102.75 75.7698 102.14 75.77Z" fill="#7732A0"/>
<path d="M75.52 165.89H74.72V168.69H75.52V165.89Z" fill="#D0F999" stroke="#D0F999" stroke-miterlimit="10"/>
<path d="M78.32 165.89H77.52V168.69H78.32V165.89Z" fill="#D0F999" stroke="#D0F999" stroke-miterlimit="10"/>
<path d="M78.78 166.49V165.69H74.27V166.49H78.78Z" fill="#D0F999" stroke="#D0F999" stroke-miterlimit="10"/>
<path d="M82.34 184.24H70.65L75.28 169.32H77.76L82.34 184.24Z" fill="#D0F999" stroke="#D0F999" stroke-miterlimit="10"/>
<path d="M81.38 179.01H88.32L86.47 174.58H80L81.38 179.01Z" fill="#D0F999" stroke="#D0F999" stroke-miterlimit="10"/>
<path d="M79.76 173.79H83.4L81.56 169.35H78.38L79.76 173.79Z" fill="#D0F999" stroke="#D0F999" stroke-miterlimit="10"/>
<path d="M83.01 184.24H93.23L91.39 179.8H81.63L83.01 184.24Z" fill="#D0F999" stroke="#D0F999" stroke-miterlimit="10"/>
<path d="M73.04 174.58H66.57L64.73 179.01H71.66L73.04 174.58Z" fill="#D0F999" stroke="#D0F999" stroke-miterlimit="10"/>
<path d="M74.67 169.35H71.48L69.64 173.79H73.29L74.67 169.35Z" fill="#D0F999" stroke="#D0F999" stroke-miterlimit="10"/>
<path d="M71.4199 179.8H61.6599L59.8099 184.24H70.0399L71.4199 179.8Z" fill="#D0F999" stroke="#D0F999" stroke-miterlimit="10"/>
<path d="M291.66 104.02C291.933 104.02 292.195 103.911 292.388 103.718C292.581 103.525 292.69 103.263 292.69 102.99C292.69 102.717 292.581 102.455 292.388 102.262C292.195 102.068 291.933 101.96 291.66 101.96H291.49C291.419 101.132 291.258 100.313 291.01 99.52H291.15C291.277 99.4699 291.392 99.3946 291.488 99.2985C291.584 99.2025 291.66 99.0877 291.711 98.9613C291.761 98.835 291.786 98.6996 291.782 98.5635C291.778 98.4274 291.747 98.2935 291.69 98.17C291.64 98.0434 291.565 97.9283 291.469 97.8319C291.372 97.7354 291.258 97.6596 291.131 97.609C291.005 97.5585 290.87 97.5342 290.733 97.5378C290.597 97.5414 290.463 97.5728 290.34 97.63L290.21 97.7C289.866 97.0397 289.45 96.4193 288.97 95.85L289.08 95.76C289.178 95.6665 289.257 95.5541 289.31 95.4295C289.364 95.3048 289.391 95.1706 289.391 95.035C289.391 94.8993 289.364 94.7651 289.31 94.6405C289.257 94.5158 289.178 94.4034 289.08 94.31C288.986 94.2101 288.873 94.1304 288.748 94.076C288.622 94.0215 288.487 93.9934 288.35 93.9934C288.213 93.9934 288.078 94.0215 287.952 94.076C287.827 94.1304 287.713 94.2101 287.62 94.31L287.54 94.4C286.901 93.8675 286.207 93.4048 285.47 93.02C285.489 92.9877 285.505 92.9543 285.52 92.92C285.621 92.6667 285.617 92.3837 285.509 92.1334C285.401 91.883 285.198 91.6857 284.945 91.585C284.692 91.4842 284.409 91.4881 284.158 91.596C283.908 91.7038 283.711 91.9067 283.61 92.16C283.606 92.1932 283.606 92.2267 283.61 92.26C282.909 92.0482 282.189 91.9075 281.46 91.84V91.74C281.46 91.4681 281.352 91.2074 281.16 91.0152C280.968 90.823 280.707 90.715 280.435 90.715C280.163 90.715 279.902 90.823 279.71 91.0152C279.518 91.2074 279.41 91.4681 279.41 91.74V91.84C278.58 91.917 277.761 92.0881 276.97 92.35V92.25C276.917 92.1259 276.84 92.0135 276.743 91.9192C276.646 91.8249 276.532 91.7505 276.407 91.7004C276.281 91.6502 276.147 91.6253 276.012 91.6269C275.877 91.6286 275.744 91.6568 275.62 91.71C275.496 91.7631 275.383 91.8403 275.289 91.9369C275.195 92.0335 275.12 92.1478 275.07 92.2731C275.02 92.3985 274.995 92.5325 274.997 92.6675C274.999 92.8025 275.027 92.9359 275.08 93.06C275.095 93.0943 275.111 93.1277 275.13 93.16C274.49 93.5163 273.884 93.9315 273.32 94.4L273.24 94.31C273.048 94.1177 272.787 94.0097 272.515 94.0097C272.243 94.0097 271.982 94.1177 271.79 94.31C271.598 94.5022 271.49 94.763 271.49 95.035C271.49 95.3069 271.598 95.5677 271.79 95.76L271.89 95.85C271.36 96.4938 270.904 97.1948 270.53 97.94L270.4 97.87C270.147 97.7692 269.864 97.7731 269.613 97.881C269.363 97.9888 269.166 98.1917 269.065 98.445C268.964 98.6982 268.968 98.9812 269.076 99.2316C269.184 99.4819 269.387 99.6792 269.64 99.78H269.79C269.589 100.485 269.458 101.209 269.4 101.94H269.22C268.947 101.94 268.685 102.048 268.492 102.242C268.298 102.435 268.19 102.697 268.19 102.97C268.19 103.243 268.298 103.505 268.492 103.698C268.685 103.891 268.947 104 269.22 104H269.41C269.489 104.824 269.664 105.636 269.93 106.42L269.73 106.49C269.607 106.543 269.495 106.62 269.401 106.717C269.307 106.813 269.234 106.927 269.184 107.052C269.134 107.177 269.11 107.31 269.112 107.444C269.113 107.579 269.142 107.712 269.195 107.835C269.248 107.958 269.325 108.07 269.421 108.164C269.518 108.258 269.632 108.331 269.757 108.381C269.882 108.431 270.015 108.455 270.149 108.453C270.284 108.452 270.417 108.423 270.54 108.37C270.612 108.343 270.679 108.306 270.74 108.26C271.09 108.904 271.506 109.511 271.98 110.07C271.913 110.111 271.849 110.158 271.79 110.21C271.69 110.304 271.61 110.417 271.556 110.542C271.501 110.668 271.473 110.803 271.473 110.94C271.473 111.077 271.501 111.212 271.556 111.338C271.61 111.463 271.69 111.576 271.79 111.67C271.883 111.768 271.996 111.847 272.12 111.9C272.245 111.954 272.379 111.981 272.515 111.981C272.651 111.981 272.785 111.954 272.909 111.9C273.034 111.847 273.147 111.768 273.24 111.67C273.298 111.61 273.349 111.543 273.39 111.47C274.032 111.997 274.729 112.453 275.47 112.83C275.418 112.9 275.378 112.978 275.35 113.06C275.257 113.279 275.244 113.525 275.316 113.752C275.387 113.979 275.538 114.174 275.74 114.3L274.81 116.64C274.806 116.663 274.806 116.687 274.81 116.71H269.43V117.64H291.47V116.71H286.54L285.44 114.17C285.642 114.038 285.789 113.839 285.855 113.607C285.921 113.376 285.902 113.128 285.8 112.91C285.766 112.831 285.723 112.757 285.67 112.69C286.315 112.343 286.924 111.934 287.49 111.47C287.531 111.543 287.582 111.61 287.64 111.67C287.834 111.864 288.096 111.972 288.37 111.972C288.644 111.972 288.906 111.864 289.1 111.67C289.294 111.476 289.402 111.214 289.402 110.94C289.402 110.666 289.294 110.404 289.1 110.21L288.91 110.07C289.44 109.43 289.903 108.736 290.29 108C290.35 108.042 290.413 108.079 290.48 108.11C290.605 108.16 290.739 108.185 290.874 108.183C291.009 108.181 291.143 108.152 291.267 108.099C291.391 108.046 291.503 107.968 291.597 107.872C291.691 107.775 291.765 107.66 291.815 107.535C291.865 107.41 291.89 107.276 291.888 107.141C291.886 107.006 291.857 106.872 291.804 106.748C291.751 106.624 291.673 106.512 291.576 106.418C291.48 106.324 291.365 106.25 291.24 106.2C291.18 106.171 291.116 106.151 291.05 106.14C291.262 105.443 291.402 104.726 291.47 104L291.66 104.02ZM290.66 102.79H289.77C289.753 101.652 289.529 100.528 289.11 99.47L289.9 99.13C290.041 99.337 290.256 99.4834 290.5 99.54C290.786 100.397 290.961 101.288 291.02 102.19C290.832 102.34 290.704 102.553 290.66 102.79ZM283.9 112.95C283.008 113.255 282.08 113.443 281.14 113.51C280.999 113.366 280.818 113.269 280.62 113.23V112.23C281.741 112.208 282.848 111.984 283.89 111.57L284.28 112.46C284.105 112.579 283.971 112.75 283.9 112.95ZM277.2 113.04C277.12 112.85 276.984 112.69 276.81 112.58L277.17 111.68C278.132 112.034 279.145 112.226 280.17 112.25V113.25C279.972 113.289 279.791 113.386 279.65 113.53C278.817 113.462 277.995 113.298 277.2 113.04ZM286.97 96.77C287.657 97.5028 288.218 98.3441 288.63 99.26L281.36 102.38L286.97 96.77ZM280.97 102.15L283.97 94.69C284.971 95.1184 285.886 95.7249 286.67 96.48L280.97 102.15ZM280.62 101.93V93.93C281.646 93.9509 282.66 94.1471 283.62 94.51L280.62 101.93ZM280.21 102L277.04 94.62C278.048 94.2101 279.122 93.9865 280.21 93.96V102ZM279.81 102.1L274.2 96.48C274.923 95.7827 275.758 95.2115 276.67 94.79L279.81 102.1ZM279.58 102.44L272.16 99.44C272.577 98.4394 273.17 97.5216 273.91 96.73L279.58 102.44ZM279.36 102.79H271.47C271.485 101.787 271.667 100.793 272.01 99.85L279.36 102.79ZM279.43 103.19L272.15 106.32C271.737 105.326 271.51 104.265 271.48 103.19H279.43ZM279.53 103.59L273.97 109.15C273.28 108.438 272.712 107.617 272.29 106.72L279.53 103.59ZM279.86 103.83L276.97 111.15C275.982 110.736 275.077 110.147 274.3 109.41L279.86 103.83ZM280.21 104.04V111.85C279.223 111.826 278.247 111.641 277.32 111.3L280.21 104.04ZM280.62 111.85V103.97L283.73 111.21C282.74 111.608 281.687 111.825 280.62 111.85ZM281.02 103.85L286.55 109.38C285.832 110.057 285.008 110.611 284.11 111.02L281.02 103.85ZM281.26 103.51L288.62 106.45C288.188 107.429 287.585 108.323 286.84 109.09L281.26 103.51ZM281.47 103.16H289.36C289.324 104.156 289.125 105.139 288.77 106.07L281.47 103.16ZM281.4 102.76L288.74 99.6C289.141 100.606 289.351 101.677 289.36 102.76H281.4ZM289.86 98C289.735 98.2216 289.693 98.4801 289.74 98.73L288.97 99.15C288.541 98.1854 287.953 97.2997 287.23 96.53L287.82 95.94C288.033 96.0856 288.295 96.143 288.55 96.1C289.053 96.6953 289.493 97.3423 289.86 98.03V98ZM287.51 95.57L286.92 96.17C286.102 95.3702 285.142 94.7293 284.09 94.28L284.4 93.52C284.529 93.5439 284.662 93.5422 284.791 93.5147C284.92 93.4873 285.042 93.4347 285.15 93.36C285.943 93.759 286.685 94.2525 287.36 94.83C287.311 95.0964 287.364 95.3715 287.51 95.6V95.57ZM283.58 92.73C283.607 92.8606 283.66 92.9845 283.735 93.0944C283.811 93.2043 283.908 93.298 284.02 93.37L283.72 94.13C282.729 93.7516 281.68 93.5486 280.62 93.53V92.72C280.885 92.6609 281.117 92.5037 281.27 92.28C282.055 92.3567 282.829 92.5176 283.58 92.76V92.73ZM280.21 92.73V93.54C279.067 93.5622 277.938 93.7961 276.88 94.23L276.56 93.48C276.67 93.405 276.763 93.3088 276.835 93.1972C276.907 93.0856 276.957 92.9608 276.98 92.83C277.814 92.543 278.681 92.3616 279.56 92.29C279.709 92.5212 279.942 92.686 280.21 92.75V92.73ZM275.43 93.5C275.541 93.5726 275.665 93.6223 275.796 93.6463C275.926 93.6704 276.06 93.6682 276.19 93.64L276.51 94.39C275.55 94.8384 274.671 95.4433 273.91 96.18L273.32 95.58C273.468 95.3638 273.526 95.0981 273.48 94.84C274.081 94.3315 274.735 93.8889 275.43 93.52V93.5ZM273.03 95.87L273.63 96.46C272.846 97.2904 272.219 98.256 271.78 99.31L270.98 98.99C271.023 98.7421 270.977 98.4869 270.85 98.27C271.238 97.4659 271.725 96.7135 272.3 96.03C272.552 96.0788 272.814 96.0287 273.03 95.89V95.87ZM270.25 99.79C270.49 99.7239 270.697 99.5705 270.83 99.36L271.63 99.68C271.269 100.671 271.08 101.716 271.07 102.77H270.18C270.134 102.532 270.002 102.318 269.81 102.17C269.87 101.37 270.018 100.578 270.25 99.81V99.79ZM270.18 103.17H271.07C271.104 104.301 271.344 105.416 271.78 106.46L270.93 106.83C270.804 106.64 270.617 106.499 270.4 106.43C270.093 105.568 269.898 104.671 269.82 103.76C270.01 103.607 270.138 103.39 270.18 103.15V103.17ZM271.02 107.84C271.113 107.64 271.138 107.415 271.09 107.2L271.94 106.83C272.386 107.775 272.983 108.64 273.71 109.39L273.03 110.07C272.853 109.951 272.643 109.891 272.43 109.9C271.883 109.277 271.41 108.592 271.02 107.86V107.84ZM273.32 110.35L274 109.68C274.817 110.452 275.765 111.072 276.8 111.51L276.44 112.41C276.238 112.367 276.027 112.391 275.84 112.48C274.993 112.071 274.203 111.553 273.49 110.94C273.489 110.738 273.43 110.54 273.32 110.37V110.35ZM275.16 116.69L276.07 114.43C276.304 114.478 276.547 114.442 276.757 114.326C276.966 114.21 277.127 114.024 277.21 113.8C277.239 113.716 277.259 113.629 277.27 113.54C277.97 113.753 278.691 113.891 279.42 113.95C279.41 114.04 279.41 114.13 279.42 114.22C279.42 114.492 279.528 114.753 279.72 114.945C279.912 115.137 280.173 115.245 280.445 115.245C280.717 115.245 280.978 115.137 281.17 114.945C281.362 114.753 281.47 114.492 281.47 114.22C281.48 114.13 281.48 114.04 281.47 113.95C282.3 113.881 283.119 113.713 283.91 113.45C283.919 113.54 283.943 113.628 283.98 113.71C284.069 113.93 284.234 114.112 284.444 114.222C284.655 114.332 284.898 114.363 285.13 114.31L286.13 116.69H275.16ZM285.25 112.35C285.061 112.269 284.851 112.248 284.65 112.29L284.27 111.41C285.215 110.976 286.083 110.392 286.84 109.68L287.51 110.35C287.401 110.528 287.342 110.732 287.34 110.94C286.704 111.5 286.002 111.981 285.25 112.37V112.35ZM287.8 110.07L287.13 109.39C287.914 108.582 288.547 107.641 289 106.61L289.85 106.95C289.811 107.168 289.847 107.394 289.95 107.59C289.533 108.422 289.012 109.199 288.4 109.9C288.184 109.892 287.972 109.959 287.8 110.09V110.07ZM290.53 106.16C290.316 106.24 290.131 106.383 290 106.57L289.15 106.23C289.528 105.253 289.734 104.217 289.76 103.17H290.66C290.703 103.402 290.827 103.611 291.01 103.76C290.943 104.573 290.782 105.375 290.53 106.15V106.16Z" fill="#00477D"/>
<path d="M197.64 72.83C198.64 73.37 199.54 73.34 199.75 72.72C199.96 72.1 199.51 71.72 198.8 71.48L201.15 68.73C202.15 69.28 203.07 69.26 203.29 68.63C203.51 68 203.04 67.63 202.29 67.37L204.45 64.85C211 67.22 216.2 67.61 216.96 65.45C217.72 63.29 213.41 60.35 206.8 58.11L206.69 54.8C207.43 55.04 208.06 54.93 208.24 54.43C208.42 53.93 207.74 53.19 206.62 53.01L206.5 49.4C207.23 49.63 207.85 49.51 208.02 49.02C208.19 48.53 207.53 47.8 206.44 47.62L206.28 43.08L204.76 39.34L200.97 56.47L200.6 56.38C195.85 55.38 191.52 54.48 188.25 53.92L184.25 46.56L183.71 53.26C183.255 53.201 182.795 53.201 182.34 53.26C182.311 53.2508 182.279 53.2508 182.25 53.26C182.25 53.38 182.62 53.72 183.4 54.26L179.64 59.83L187.31 56.54C190.22 58.13 194.14 60.17 198.5 62.31L198.85 62.47L195.92 68.47L191.19 78.24L194.71 76.24L197.64 72.83Z" fill="white"/>
<path d="M271.05 214.96C270.32 215.8 270.16 216.71 270.72 217.05C271.28 217.39 271.72 217.05 272.13 216.37L274.34 219.24C273.6 220.08 273.43 221.01 274 221.36C274.57 221.71 275 221.36 275.43 220.65L277.43 223.28C273.76 229.21 272.31 234.22 274.27 235.41C276.23 236.6 279.99 232.98 283.54 226.97L286.81 227.54C286.41 228.22 286.4 228.86 286.81 229.13C287.22 229.4 288.12 228.9 288.52 227.85L292.09 228.47C291.71 229.13 291.7 229.76 292.14 230.03C292.58 230.3 293.44 229.81 293.84 228.77L298.31 229.55L302.31 228.83L286.31 221.55L286.48 221.2C288.48 216.76 290.2 212.7 291.42 209.62L299.42 207.27L292.97 205.36C293.131 204.929 293.235 204.478 293.28 204.02C293.28 204.02 293.28 203.93 293.28 203.92C293.28 203.91 292.76 204.19 292.12 204.84L287.43 200.02L289.08 208.21C286.92 210.72 284.08 214.14 281.08 217.97L280.85 218.28L275.55 214.18L266.96 207.53L268.18 211.38L271.05 214.96Z" fill="white"/>
<path d="M83.41 136.28C83.41 136.28 93.69 123.51 69.84 125.35C69.84 125.35 72.71 110.74 56.26 118.35C56.26 118.35 46.93 104.92 36.52 120.48C36.52 120.48 15.96 111.05 16.78 126.42C16.78 126.42 -0.0800098 126.53 0.32999 136.33L83.41 136.28Z" fill="white"/>
<path d="M230.88 29.23H329.61C329.61 29.23 331.23 19.02 313.98 18.23C313.98 18.23 314.98 4.65999 300.98 11.23C300.98 11.23 289.26 -11.87 278.57 8.68999C278.57 8.68999 258.19 -4.54001 252.48 18.15C252.49 18.15 230.88 13.15 230.88 29.23Z" fill="white"/>
<path d="M264.97 293.84H347.83C347.83 293.84 347.83 283.31 330.56 284C330.56 284 330.3 273.61 317.56 280.31C317.56 280.31 307.84 262.51 299.13 281.6C299.13 281.6 285.41 272.94 281.37 286.68C281.33 286.68 264.97 280.57 264.97 293.84Z" fill="#F9FBFC"/>
<path d="M134.56 291.93H70.5599C70.5599 291.93 72.0199 278.67 82.4599 283.98C82.4599 283.98 88.7399 268.45 102.56 277.54C102.56 277.54 111.87 269.96 118.65 283.09C118.65 283.09 132.66 274.68 134.56 291.93Z" fill="#F9FBFC"/>
</svg>
